<svg version="1.0" width="1em" height="1em" xmlns="http://www.w3.org/2000/svg" xmlns:xlink="http://www.w3.org/1999/xlink" x="0px" y="0px" viewBox="0 0 15 16" enable-background="new 0 0 15 16" xml:space="preserve">
  <path fill="#63B84D" d="M7.527,0C4.621,0,2.265,2.36,2.265,5.271c0,0.709,0.14,1.385,0.393,2.002h0l0,0.001C2.66,7.277,2.66,7.28,2.662,7.283c0,0-0.003-0.009,0.003,0c0.247,0.512,4.609,6.5,4.609,6.5l0.51,0c0,0,4.314-5.849,4.611-6.509h0c0.253-0.618,0.393-1.294,0.393-2.003C12.788,2.36,10.432,0,7.527,0z M7.527,7.722c-0.958,0-1.735-0.986-1.735-2.202c0-1.216,0.777-2.202,1.735-2.202c0.958,0,1.735,0.986,1.735,2.202C9.262,6.737,8.485,7.722,7.527,7.722z"/>
</svg>
