<?xml version="1.0" encoding="utf-8"?>
<!-- Generator: Adobe Illustrator 17.1.0, SVG Export Plug-In . SVG Version: 6.00 Build 0)  -->
<!DOCTYPE svg PUBLIC "-//W3C//DTD SVG 1.0//EN" "http://www.w3.org/TR/2001/REC-SVG-20010904/DTD/svg10.dtd">
<svg version="1.0" id="Layer_1" xmlns="http://www.w3.org/2000/svg" xmlns:xlink="http://www.w3.org/1999/xlink" x="0px" y="0px"
	 viewBox="0 0 15 16" enable-background="new 0 0 15 16" xml:space="preserve">
<g>
	<path fill="#63B84D" d="M7.527,0C4.621,0,2.265,2.36,2.265,5.271c0,0.709,0.14,1.385,0.393,2.002h0l0,0.001
		C2.66,7.277,2.66,7.28,2.662,7.283c0,0-0.003-0.009,0.003,0c0.247,0.512,4.609,6.5,4.609,6.5l0.51,0c0,0,4.314-5.849,4.611-6.509h0
		c0.253-0.618,0.393-1.294,0.393-2.003C12.788,2.36,10.432,0,7.527,0z M7.527,7.722c-0.958,0-1.735-0.986-1.735-2.202
		c0-1.216,0.777-2.202,1.735-2.202c0.958,0,1.735,0.986,1.735,2.202C9.262,6.737,8.485,7.722,7.527,7.722z"/>
	<path opacity="0.15" fill="#4C5355" d="M14.812,15.347l-4.295-3.607c-0.732,1.01-1.449,1.987-1.93,2.638l-0.3,0.407l-0.505,0
		l-0.51,0l-0.508,0l-0.299-0.411c-0.484-0.665-1.207-1.659-1.942-2.68L0.123,15.39c-0.11,0.093-0.152,0.246-0.102,0.382
		c0.049,0.137,0.177,0.228,0.321,0.228L14.649,16c0,0,0.005-0.001,0.009-0.001c0.189,0,0.342-0.154,0.342-0.345
		C15,15.52,14.924,15.404,14.812,15.347z"/>
</g>
</svg>
