<?xml version="1.0" encoding="utf-8"?>
<!-- Generator: Adobe Illustrator 19.1.0, SVG Export Plug-In . SVG Version: 6.00 Build 0)  -->
<svg version="1.0" id="Layer_1" xmlns="http://www.w3.org/2000/svg" xmlns:xlink="http://www.w3.org/1999/xlink" x="0px" y="0px"
	 viewBox="0 0 500 500" enable-background="new 0 0 500 500" xml:space="preserve">
<g>
	<circle fill="#95D9F1" cx="250" cy="250" r="200"/>
	<g>
		<g>
			<path fill="#FFFFFF" d="M333.9,168.7v183.2c0,2-0.8,4-2.3,5.5c-1.5,1.5-3.5,2.3-5.5,2.3H173.9c-2,0-4-0.8-5.5-2.3
				c-1.5-1.5-2.3-3.5-2.3-5.5V148.1c0-2,0.8-4,2.3-5.5c1.5-1.5,3.5-2.3,5.5-2.3h131.6L333.9,168.7z"/>
			<path fill="#E6E5E5" d="M333.9,168.7h-20.6c-2,0-4-0.8-5.5-2.3c-1.5-1.5-2.3-3.5-2.3-5.5v-20.6L333.9,168.7z"/>
		</g>
		<g>
			
				<rect x="294.4" y="215.9" transform="matrix(0.7072 0.707 -0.707 0.7072 278.2719 -132.9113)" fill="#F4836B" width="10.3" height="107.3"/>
			
				<rect x="301.7" y="223.2" transform="matrix(0.7071 0.7071 -0.7071 0.7071 285.6076 -135.9366)" fill="#EA6653" width="10.3" height="107.3"/>
			
				<rect x="309" y="230.5" transform="matrix(0.7072 0.707 -0.707 0.7072 292.8632 -138.9588)" fill="#E2503B" width="10.3" height="107.3"/>
			<polygon fill="#E6E5E5" points="279.9,325.7 260,331 252.7,323.7 258,303.8 			"/>
			<polygon fill="#CCCBCA" points="279.9,325.7 272.6,318.4 257.5,328.6 260,331 			"/>
			<polygon fill="#4A5158" points="260,331 250,333.7 252.7,323.7 			"/>
			
				<rect x="350.6" y="237.4" transform="matrix(0.707 0.7072 -0.7072 0.707 275.7196 -180.5378)" fill="#E6E5E5" width="10.3" height="10.3"/>
			
				<rect x="334.5" y="226.4" transform="matrix(0.707 0.7072 -0.7072 0.707 264.7741 -176.005)" fill="#FFFFFF" width="20.6" height="10.3"/>
			<path fill="#343C44" d="M364.8,240.8l-1.7,1.7l-7.3-7.3l1.7-1.7c2.8-2.8,4.5-6.7,4.5-10.9c0-2.4-0.5-4.7-1.5-6.7
				c1.6,0.8,3,1.8,4.3,3c2.8,2.8,4.5,6.7,4.5,11C369.3,234.1,367.5,238,364.8,240.8z"/>
			<path fill="#4A5158" d="M357.5,233.5l-1.7,1.7l-14.6-14.6l1.7-1.7c2.8-2.8,6.7-4.5,10.9-4.5c2.4,0,4.6,0.5,6.7,1.5
				c1,2,1.5,4.3,1.5,6.7C362,226.8,360.2,230.7,357.5,233.5z"/>
		</g>
		<g>
			<rect x="194.5" y="203.4" fill="#4A5158" width="111" height="8.7"/>
			<rect x="194.5" y="238.2" fill="#4A5158" width="106.5" height="8.7"/>
			<rect x="194.5" y="220.8" fill="#4A5158" width="111" height="8.7"/>
			<rect x="194.5" y="168.7" fill="#EA6653" width="55.5" height="8.7"/>
			<rect x="194.5" y="186.1" fill="#4A5158" width="111" height="8.7"/>
			<rect x="194.5" y="325" fill="#4A5158" width="19.7" height="8.7"/>
			<rect x="194.5" y="255.5" fill="#4A5158" width="89.2" height="8.7"/>
			<rect x="194.5" y="307.6" fill="#4A5158" width="37.1" height="8.7"/>
			<rect x="194.5" y="272.9" fill="#4A5158" width="71.8" height="8.7"/>
			<rect x="194.5" y="290.3" fill="#4A5158" width="54.4" height="8.7"/>
		</g>
	</g>
</g>
</svg>
