<?xml version="1.0" encoding="utf-8"?>
<!-- Generator: Adobe Illustrator 19.1.0, SVG Export Plug-In . SVG Version: 6.00 Build 0)  -->
<svg version="1.0" id="Layer_1" xmlns="http://www.w3.org/2000/svg" xmlns:xlink="http://www.w3.org/1999/xlink" x="0px" y="0px"
	 viewBox="0 0 500 500" enable-background="new 0 0 500 500" xml:space="preserve">
<g>
	<circle fill="#95D9F1" cx="250" cy="250" r="200"/>
	<g>
		<defs>
			<circle id="SVGID_28_" cx="250" cy="250" r="200"/>
		</defs>
		<clipPath id="SVGID_2_">
			<use xlink:href="#SVGID_28_"  overflow="visible"/>
		</clipPath>
	</g>
	<g>
		<path fill-rule="evenodd" clip-rule="evenodd" fill="#2D3F50" d="M235,268.8c-33.4,33.4-78.8-19.7-49.3-49.2
			c2.6-2.6,6.8-2.6,9.3,0l1.7,1.7l32.7-32.7l15.4-15.4l-1.7-1.7c-2.5-2.6-2.5-6.7,0-9.3c29.8-29.7,82.5,16,49.3,49.2
			c-2.6,2.6-6.8,2.6-9.3,0l0.9,0.9l-11,11l-37.1,37.1l-0.9-0.8C237.5,262.2,237.5,266.3,235,268.8z"/>
		<path fill-rule="evenodd" clip-rule="evenodd" fill="#3E576F" d="M181.1,260.2c-7.1-12.4-7.5-28.5,4.6-40.6c2.6-2.6,6.8-2.6,9.3,0
			l1.7,1.7l32.7-32.7l15.4-15.4l-1.7-1.7c-2.5-2.6-2.5-6.7,0-9.3c12.2-12.2,28.2-11.7,40.6-4.6L181.1,260.2z"/>
		<path fill-rule="evenodd" clip-rule="evenodd" fill="#2D3F50" d="M268.8,232.4c9.6,8.8,75.9,72.8,95.1,94.5
			c15.3,17.4,3.1,27.9-12.4,14.6c-21.2-18.1-86.8-86.6-95.5-96.3L268.8,232.4z"/>
		<path fill-rule="evenodd" clip-rule="evenodd" fill="#F29D1F" d="M155,302.3h111.5c6.9,0,12.6,4.9,13.2,11.3l1,13.1H140.9l0.9-13
			C142.3,307.3,148,302.3,155,302.3z"/>
		<path fill-rule="evenodd" clip-rule="evenodd" fill="#2D3F50" d="M155,302.3h111.5c6.9,0,12.6,4.9,13.2,11.3v0.1H141.8
			C142.3,307.3,148,302.3,155,302.3z"/>
		<path fill-rule="evenodd" clip-rule="evenodd" fill="#3E576F" d="M155,302.3h111.5c4.8,0,9.1,2.4,11.4,6H143.6
			C145.9,304.7,150.2,302.3,155,302.3z"/>
		<polygon fill-rule="evenodd" clip-rule="evenodd" fill="#F29D1F" points="279.5,221.7 245.2,255.9 199,209.7 233.3,175.4 		"/>
		<polygon fill-rule="evenodd" clip-rule="evenodd" fill="#FBCD4D" points="249.6,191.7 215.3,226 199,209.7 233.3,175.4 		"/>
		<path fill-rule="evenodd" clip-rule="evenodd" fill="#2D3F50" d="M292.6,346.9l-0.7-17.1c-0.3-6.6-5.7-11.8-12.3-11.8H142.1
			c-6.6,0-12,5.2-12.3,11.8l-0.8,17.1H292.6z"/>
		<path fill-rule="evenodd" clip-rule="evenodd" fill="#3E576F" d="M290.2,324.1c-2.1-3.6-6.1-6-10.6-6H142.1c-4.5,0-8.4,2.4-10.6,6
			H290.2z"/>
		<polygon fill-rule="evenodd" clip-rule="evenodd" fill="#F29D1F" points="237.9,258.4 235.9,260.4 196.8,221.3 198.8,219.3 		"/>
		
			<rect x="261.9" y="166.2" transform="matrix(0.7071 -0.7071 0.7071 0.7071 -59.8964 243.0155)" fill-rule="evenodd" clip-rule="evenodd" fill="#F29D1F" width="2.9" height="55.3"/>
	</g>
</g>
</svg>
