<?xml version="1.0" encoding="utf-8"?>
<!-- Generator: Adobe Illustrator 19.1.0, SVG Export Plug-In . SVG Version: 6.00 Build 0)  -->
<svg version="1.0" id="Layer_1" xmlns="http://www.w3.org/2000/svg" xmlns:xlink="http://www.w3.org/1999/xlink" x="0px" y="0px"
	 viewBox="0 0 500 500" enable-background="new 0 0 500 500" xml:space="preserve">
<g>
	<defs>
		<circle id="SVGID_96_" cx="250" cy="250" r="200"/>
	</defs>
	<clipPath id="SVGID_2_">
		<use xlink:href="#SVGID_96_"  overflow="visible"/>
	</clipPath>
</g>
<g>
	<path fill="#71C9E9" d="M445.5,292L298.7,145.2c-5.1-5.1-11.9-7.9-19.2-7.9H222h-1.6c-7.3,0-14.1,2.8-19.2,7.9
		c-5.1,5.1-7.9,11.9-7.9,19.1c0,3.5,0.7,6.9,2,10.2c1.3,3.4,3.4,6.4,5.9,9l23.6,23.6l0,0l-8.7,37h-38.3c-1.9,0-3.8,0.7-5.3,2.2
		c-1.5,1.4-2.2,3.4-2.2,5.3v78.9h-3.9c-1.9,0-3.8,0.7-5.3,2.2c-1.4,1.4-2.2,3.4-2.2,5.3v7.8c0,1.9,0.7,3.8,2.2,5.3l98.7,98.7
		C351.5,445.3,426.9,379.2,445.5,292z"/>
	<circle fill="#95D9F1" cx="250" cy="250" r="200"/>
	<g>
		<path fill="#4A5158" d="M329.6,251.6c0-1.9-0.7-3.8-2.2-5.3c-1.5-1.5-3.4-2.2-5.3-2.2H177.9c-1.9,0-3.8,0.7-5.3,2.2
			c-1.5,1.5-2.2,3.4-2.2,5.3v78.9h159.2V251.6z"/>
		<path fill="#FFFFFF" d="M201.9,342.9l-8.5-2l35.1-149.4h-8.1c-7.2,0-14-2.8-19.2-7.9c-2.6-2.6-4.6-5.6-6-9c-1.3-3.2-2-6.7-2-10.2
			c0-7.2,2.8-14,7.9-19.2c5.1-5.1,11.9-7.9,19.2-7.9h59.1c7.2,0,14,2.8,19.2,7.9c5.1,5.1,7.9,11.9,7.9,19.2c0,7.2-2.8,14-7.9,19.2
			c-5.1,5.1-11.9,7.9-19.2,7.9h-8.1l35.1,149.4l-8.5,2l-36.4-154.8c-0.3-1.3,0-2.7,0.8-3.7c0.8-1,2.1-1.7,3.4-1.7l13.6,0
			c4.9,0,9.5-1.9,13-5.4c3.5-3.5,5.4-8.1,5.4-13c0-4.9-1.9-9.5-5.4-13c-3.5-3.5-8.1-5.4-13-5.4h-59.1c-4.9,0-9.5,1.9-13,5.4
			c-3.5,3.5-5.4,8.1-5.4,13c0,2.4,0.5,4.7,1.3,6.9c0.9,2.3,2.3,4.3,4,6.1c3.5,3.5,8.1,5.4,13,5.4h13.6c1.3,0,2.6,0.6,3.4,1.7
			c0.8,1,1.1,2.4,0.8,3.7L201.9,342.9z"/>
		<path fill="#343C44" d="M166.5,330.5c-1.9,0-3.8,0.7-5.3,2.2c-1.5,1.5-2.2,3.4-2.2,5.3v7.8c0,1.9,0.7,3.8,2.2,5.3
			c1.5,1.5,3.4,2.2,5.3,2.2h19.8l11.4-11.4l11.4,11.4h81.9l11.4-11.4l11.4,11.4h19.8c1.9,0,3.8-0.7,5.3-2.2c1.5-1.5,2.2-3.4,2.2-5.3
			V338c0-1.9-0.7-3.8-2.2-5.3c-1.5-1.5-3.4-2.2-5.3-2.2H166.5z"/>
	</g>
</g>
</svg>
