<?xml version="1.0" encoding="utf-8"?>
<!-- Generator: Adobe Illustrator 19.1.0, SVG Export Plug-In . SVG Version: 6.00 Build 0)  -->
<svg version="1.0" id="Layer_1" xmlns="http://www.w3.org/2000/svg" xmlns:xlink="http://www.w3.org/1999/xlink" x="0px" y="0px"
	 viewBox="0 0 500 500" enable-background="new 0 0 500 500" xml:space="preserve">
<g>
	<defs>
		<circle id="SVGID_98_" cx="250" cy="250" r="200"/>
	</defs>
	<clipPath id="SVGID_2_">
		<use xlink:href="#SVGID_98_"  overflow="visible"/>
	</clipPath>
</g>
<g>
	<path fill="#71C9E9" d="M448.6,273.3l-98.8-98.8c0-0.1-0.1-0.1-0.1-0.1c-0.1-0.1-0.1-0.1-0.1-0.1c-1.5-1.4-3.4-2.2-5.3-2.2H228.1
		l-17.5-17.5c-1.5-1.5-3.5-2.3-5.5-2.3h-49.3c-2,0-4,0.8-5.5,2.3c-1.5,1.5-2.2,3.5-2.2,5.5v31.7c-2,0-4,0.8-5.5,2.3
		c-1.5,1.5-2.2,3.5-2.2,5.5v23.5v97c0,1.9,0.7,3.8,2.1,5.3c0.1,0.1,0.1,0.1,0.2,0.2c0.1,0.1,0.1,0.1,0.2,0.2l123.5,123.5
		C361.4,441.6,437.7,367.5,448.6,273.3z"/>
	<circle fill="#95D9F1" cx="250" cy="250" r="200"/>
	<g>
		<path fill="#F5B541" d="M212.9,172.1v-12c0-2-0.8-4-2.3-5.5c-1.5-1.5-3.5-2.3-5.5-2.3h-49.4c-2,0-4,0.8-5.5,2.3
			c-1.5,1.5-2.3,3.5-2.3,5.5v31.7h203.9v-12c0-2-0.8-4-2.3-5.5c-1.5-1.5-3.5-2.3-5.5-2.3H212.9z"/>
		<path fill="#FFFFFF" d="M344.2,312.4c0,2-0.8,4-2.3,5.5s-3.5,2.3-5.5,2.3H163.5c-2,0-4-0.8-5.5-2.3c-1.5-1.5-2.3-3.5-2.3-5.5
			V191.9c0-2,0.8-4,2.3-5.5c1.5-1.5,3.5-2.3,5.5-2.3h172.9c2,0,4,0.8,5.5,2.3c1.5,1.5,2.3,3.5,2.3,5.5V312.4z"/>
		<path fill="#FECE67" d="M359.7,320.1c0,2-0.8,4-2.3,5.5c-1.5,1.5-3.5,2.3-5.5,2.3H148.1c-2,0-4-0.8-5.5-2.3
			c-1.5-1.5-2.3-3.5-2.3-5.5V199.6c0-2,0.8-4,2.3-5.5c1.5-1.5,3.5-2.3,5.5-2.3h203.9c2,0,4,0.8,5.5,2.3c1.5,1.5,2.3,3.5,2.3,5.5
			V320.1z"/>
		<g>
			<rect x="155.8" y="248.3" fill="#FFFFFF" width="57.1" height="7.2"/>
			<rect x="155.8" y="233.8" fill="#FFFFFF" width="57.1" height="7.2"/>
			<rect x="155.8" y="219.4" fill="#343C44" width="28.5" height="7.2"/>
		</g>
	</g>
</g>
</svg>
