<?xml version="1.0" encoding="utf-8"?>
<!-- Generator: Adobe Illustrator 19.1.0, SVG Export Plug-In . SVG Version: 6.00 Build 0)  -->
<svg version="1.0" id="Layer_1" xmlns="http://www.w3.org/2000/svg" xmlns:xlink="http://www.w3.org/1999/xlink" x="0px" y="0px"
	 viewBox="0 0 500 500" enable-background="new 0 0 500 500" xml:space="preserve">
<g>
	<circle fill="#95D9F1" cx="250" cy="250" r="200"/>
	<g>
		<g>
			<rect x="173.9" y="153" fill="#FFFFFF" width="152.3" height="194"/>
			<g>
				
					<rect x="177.6" y="144" transform="matrix(0.7072 0.707 -0.707 0.7072 162.8122 -87.1019)" fill="#FFFFFF" width="17.9" height="17.9"/>
				
					<rect x="203" y="144" transform="matrix(0.7072 0.707 -0.707 0.7072 170.2427 -105.0433)" fill="#FFFFFF" width="17.9" height="17.9"/>
				
					<rect x="228.3" y="144" transform="matrix(0.7072 0.707 -0.707 0.7072 177.6732 -122.9846)" fill="#FFFFFF" width="17.9" height="17.9"/>
				
					<rect x="253.7" y="144" transform="matrix(0.7072 0.707 -0.707 0.7072 185.1037 -140.926)" fill="#FFFFFF" width="17.9" height="17.9"/>
				
					<rect x="279.1" y="144" transform="matrix(0.7072 0.707 -0.707 0.7072 192.5342 -158.8673)" fill="#FFFFFF" width="17.9" height="17.9"/>
				<polygon fill="#FFFFFF" points="313.4,165.7 300.8,153 313.4,140.3 326.1,153 				"/>
			</g>
			<g>
				
					<rect x="177.6" y="338" transform="matrix(0.7071 0.7071 -0.7071 0.7071 300.0008 -30.2891)" fill="#FFFFFF" width="17.9" height="17.9"/>
				
					<rect x="203" y="338" transform="matrix(0.7071 0.7071 -0.7071 0.7071 307.4331 -48.2323)" fill="#FFFFFF" width="17.9" height="17.9"/>
				
					<rect x="228.3" y="338" transform="matrix(0.7071 0.7071 -0.7071 0.7071 314.8654 -66.1755)" fill="#FFFFFF" width="17.9" height="17.9"/>
				
					<rect x="253.7" y="338" transform="matrix(0.7071 0.7071 -0.7071 0.7071 322.2977 -84.1186)" fill="#FFFFFF" width="17.9" height="17.9"/>
				
					<rect x="279.1" y="338" transform="matrix(0.7071 0.7071 -0.7071 0.7071 329.73 -102.0618)" fill="#FFFFFF" width="17.9" height="17.9"/>
				
					<rect x="304.5" y="338" transform="matrix(0.7071 0.7071 -0.7071 0.7071 337.1623 -120.005)" fill="#FFFFFF" width="17.9" height="17.9"/>
			</g>
		</g>
		<g>
			<g>
				<rect x="189.7" y="175" fill="#343C44" width="35.9" height="7.3"/>
				<rect x="189.7" y="189.6" fill="#D9D8D7" width="118.9" height="7.3"/>
				<rect x="189.7" y="204.2" fill="#D9D8D7" width="118.9" height="7.3"/>
				<rect x="189.7" y="218.9" fill="#D9D8D7" width="118.9" height="7.3"/>
				<rect x="189.7" y="233.5" fill="#D9D8D7" width="118.9" height="7.3"/>
				<rect x="189.7" y="248.2" fill="#D9D8D7" width="118.9" height="7.3"/>
				<rect x="189.7" y="262.8" fill="#D9D8D7" width="118.9" height="7.3"/>
			</g>
			<g>
				<rect x="213.4" y="284.8" fill="#D9D8D7" width="73.2" height="7.3"/>
				<rect x="231.7" y="299.4" fill="#D9D8D7" width="36.6" height="7.3"/>
			</g>
			<g>
				<rect x="181.1" y="321.4" fill="#D9D8D7" width="7.2" height="3.7"/>
				<rect x="195.6" y="321.4" fill="#D9D8D7" width="7.3" height="3.7"/>
				<rect x="210.1" y="321.4" fill="#D9D8D7" width="7.3" height="3.7"/>
				<rect x="224.6" y="321.4" fill="#D9D8D7" width="7.3" height="3.7"/>
				<rect x="239.1" y="321.4" fill="#D9D8D7" width="7.3" height="3.7"/>
				<rect x="253.6" y="321.4" fill="#D9D8D7" width="7.3" height="3.7"/>
				<rect x="268.1" y="321.4" fill="#D9D8D7" width="7.3" height="3.7"/>
				<rect x="282.6" y="321.4" fill="#D9D8D7" width="7.3" height="3.7"/>
				<rect x="297.1" y="321.4" fill="#D9D8D7" width="7.3" height="3.7"/>
				<rect x="311.6" y="321.4" fill="#D9D8D7" width="7.2" height="3.7"/>
			</g>
		</g>
	</g>
</g>
</svg>
