<?xml version="1.0" encoding="utf-8"?>
<!-- Generator: Adobe Illustrator 19.1.0, SVG Export Plug-In . SVG Version: 6.00 Build 0)  -->
<svg version="1.0" id="Layer_1" xmlns="http://www.w3.org/2000/svg" xmlns:xlink="http://www.w3.org/1999/xlink" x="0px" y="0px"
	 viewBox="0 0 500 500" enable-background="new 0 0 500 500" xml:space="preserve">
<g>
	<circle fill="#95D9F1" cx="250" cy="250" r="200"/>
	<g>
		<g>
			<rect x="323.5" y="219.5" fill="#4A5158" width="6.8" height="121.4"/>
			<rect x="330.4" y="219.5" fill="#343C44" width="6.8" height="121.4"/>
			<rect x="337.2" y="219.5" fill="#1E262E" width="6.8" height="121.4"/>
			<polygon fill="#FFFFFF" points="344.1,219.5 337.2,207.7 330.4,207.7 323.5,219.5 			"/>
			<polygon fill="#E6E5E5" points="344.1,219.5 337.2,219.5 334.9,207.7 337.2,207.7 			"/>
			<polygon fill="#4A5158" points="337.2,207.7 333.8,201.7 330.4,207.7 			"/>
			<rect x="337.2" y="341" fill="#E6E5E5" width="6.8" height="6.8"/>
			<polygon fill="#FFFFFF" points="337.2,347.8 323.5,347.8 323.5,341 337.2,341 			"/>
			<path fill="#EA6653" d="M344.1,349.4v-1.6h-6.8v1.6c0,2.6-1,5.3-3,7.3c-1.1,1.1-2.4,1.9-3.8,2.4c1.1,0.4,2.3,0.6,3.4,0.6
				c2.6,0,5.2-1,7.3-3C343.1,354.7,344.1,352,344.1,349.4z"/>
			<path fill="#F4836B" d="M337.2,349.4v-1.6h-13.7l0,1.6c0,2.6,1,5.3,3,7.3c1.1,1.1,2.4,1.9,3.8,2.4c1.4-0.5,2.7-1.3,3.8-2.4
				C336.2,354.7,337.2,352,337.2,349.4z"/>
		</g>
		<g>
			<g>
				<path fill="#FFFFFF" d="M301.2,359.7c2,0,4-0.8,5.5-2.3c1.5-1.5,2.3-3.5,2.3-5.5V140.3H191c-19.4,0-35.1,15.7-35.1,35.1v176.5
					c0,2,0.8,4,2.3,5.5c1.5,1.5,3.5,2.3,5.5,2.3H301.2z"/>
				<path fill="#CCCBCA" d="M226.1,175.4c0-19.4-15.7-35.1-35.1-35.1h118c19.4,0,35.1,15.7,35.1,35.1L226.1,175.4z"/>
			</g>
			<g>
				<g>
					<g>
						<path fill="#F4836B" d="M194.2,212.2c0,6.1-5,11.1-11.1,11.1c-6.1,0-11.1-5-11.1-11.1c0-6.1,5-11.1,11.1-11.1
							C189.3,201.1,194.2,206.1,194.2,212.2z"/>
						<polygon fill="#4A5158" points="183.2,218 176.1,210.9 179.2,207.7 183.2,211.7 192.7,202.2 195.8,205.3 						"/>
					</g>
					<g>
						<rect x="211.2" y="201.1" fill="#D9D8D7" width="81.6" height="7.4"/>
						<rect x="211.2" y="215.9" fill="#D9D8D7" width="42.5" height="7.4"/>
					</g>
				</g>
				<g>
					<g>
						<path fill="#F4836B" d="M194.2,249.1c0,6.1-5,11.1-11.1,11.1c-6.1,0-11.1-5-11.1-11.1c0-6.1,5-11.1,11.1-11.1
							C189.3,238,194.2,243,194.2,249.1z"/>
						<polygon fill="#4A5158" points="183.2,254.9 176.1,247.8 179.2,244.7 183.2,248.6 192.7,239.1 195.8,242.3 						"/>
					</g>
					<g>
						<rect x="211.2" y="238" fill="#D9D8D7" width="81.6" height="7.4"/>
						<rect x="211.2" y="252.8" fill="#D9D8D7" width="42.5" height="7.4"/>
					</g>
				</g>
				<g>
					<g>
						<path fill="#F4836B" d="M194.2,286c0,6.1-5,11.1-11.1,11.1c-6.1,0-11.1-5-11.1-11.1c0-6.1,5-11.1,11.1-11.1
							C189.3,274.9,194.2,279.9,194.2,286z"/>
						<polygon fill="#4A5158" points="183.2,291.8 176.1,284.7 179.2,281.6 183.2,285.5 192.7,276 195.8,279.2 						"/>
					</g>
					<g>
						<rect x="211.2" y="274.9" fill="#D9D8D7" width="81.6" height="7.4"/>
						<rect x="211.2" y="289.7" fill="#D9D8D7" width="42.5" height="7.4"/>
					</g>
				</g>
				<g>
					<g>
						<path fill="#F4836B" d="M194.2,322.9c0,6.1-5,11.1-11.1,11.1c-6.1,0-11.1-5-11.1-11.1c0-6.1,5-11.1,11.1-11.1
							C189.3,311.8,194.2,316.8,194.2,322.9z"/>
						<polygon fill="#4A5158" points="183.2,328.7 176.1,321.6 179.2,318.5 183.2,322.5 192.7,312.9 195.8,316.1 						"/>
					</g>
					<g>
						<rect x="211.2" y="311.8" fill="#D9D8D7" width="81.6" height="7.4"/>
						<rect x="211.2" y="326.6" fill="#D9D8D7" width="42.5" height="7.4"/>
					</g>
				</g>
			</g>
		</g>
	</g>
</g>
</svg>
