<?xml version="1.0" encoding="utf-8"?>
<!-- Generator: Adobe Illustrator 19.1.0, SVG Export Plug-In . SVG Version: 6.00 Build 0)  -->
<svg version="1.0" id="Layer_1" xmlns="http://www.w3.org/2000/svg" xmlns:xlink="http://www.w3.org/1999/xlink" x="0px" y="0px"
	 viewBox="0 0 500 500" enable-background="new 0 0 500 500" xml:space="preserve">
<g>
	<defs>
		<circle id="SVGID_1_" cx="250" cy="251" r="200"/>
	</defs>
	<clipPath id="SVGID_2_">
		<use xlink:href="#SVGID_1_"  overflow="visible"/>
	</clipPath>
	<path clip-path="url(#SVGID_2_)" fill-rule="evenodd" clip-rule="evenodd" fill="#71C9E9" d="M454.6,305.8V455H448h-6.6h-6.6h-6.6
		h-6.6H415h-6.6h-6.6h-6.6h-6.6H382h-6.6h-6.6h-6.6h-6.6h-6.6h-6.6h-6.6h-6.6h-6.6h-6.6h-6.6h-6.6h-6.6h-6.6h-6.6h-5.9l-96.2-96.2
		c-0.5-0.4-1-1-1.6-1.6c-0.5-0.6-1-1.3-1.6-2c-0.5-0.7-1.1-1.5-1.6-2.4c-0.5-0.8-1.1-1.8-1.6-2.7c-0.5-1-1.1-2-1.6-3.1
		c-0.5-1.1-1.1-2.2-1.6-3.4c-0.5-1.2-1.1-2.4-1.6-3.7c-0.5-1.3-1-2.6-1.6-4c-0.5-1.4-1-2.8-1.5-4.2c-0.5-1.5-0.9-2.9-1.4-4.5
		c-0.5-1.5-0.9-3.1-1.3-4.7c-0.4-1.6-0.8-3.2-1.2-4.9c-0.4-1.7-0.8-3.3-1.1-5c-0.4-1.7-0.7-3.4-1-5.2c-0.3-1.8-0.6-3.5-0.9-5.3
		c-0.3-1.8-0.5-3.6-0.7-5.4c-0.2-1.8-0.4-3.6-0.5-5.5c-0.1-1.8-0.2-3.7-0.3-5.5c-0.1-1.9-0.1-3.7-0.1-5.6c0-1.9,0-3.7,0.1-5.6
		c0.1-1.9,0.2-3.7,0.3-5.6c0.2-1.9,0.3-3.7,0.6-5.5c0.2-1.8,0.5-3.7,0.8-5.5c0.3-1.8,0.7-3.6,1.1-5.4c0.4-1.8,0.9-3.5,1.4-5.3
		c0.5-1.8,1.1-3.5,1.7-5.2c0.6-1.7,1.3-3.4,2-5c0.7-1.7,1.5-3.3,2.4-4.9c0.8-1.6,1.7-3.2,2.7-4.7l0-1.6l0-1.6l-0.1-1.6l-0.1-1.6
		l-0.1-1.6l-0.2-1.6l-0.2-1.6l-0.2-1.6l-0.3-1.6l-0.3-1.6l-0.3-1.6l-0.4-1.6l-0.4-1.6l-0.4-1.6l-0.4-1.6l-0.5-1.6l-0.5-1.6l-0.5-1.5
		l-0.5-1.5l-0.5-1.5l-0.5-1.5l-0.5-1.5l-0.6-1.5L163,190l-0.6-1.4l-0.6-1.4l-0.6-1.4l-0.6-1.4l-0.6-1.3l-0.6-1.3l-0.6-1.3l-0.6-1.2
		l1.6,0l1.7,0l1.7,0.1l1.8,0.1l1.8,0.1l1.8,0.1c0.6,0,1.2,0.1,1.8,0.1c0.6,0,1.2,0.1,1.9,0.1c0.6,0.1,1.3,0.1,1.9,0.2
		c0.6,0.1,1.3,0.1,1.9,0.2c0.6,0.1,1.3,0.2,1.9,0.2c0.6,0.1,1.3,0.2,1.9,0.3c0.6,0.1,1.3,0.2,1.9,0.3c0.6,0.1,1.3,0.2,1.9,0.3
		c0.6,0.1,1.3,0.3,1.9,0.4c0.6,0.1,1.3,0.3,1.9,0.4c0.6,0.2,1.3,0.3,1.9,0.5c0.6,0.2,1.2,0.3,1.8,0.5c0.6,0.2,1.2,0.4,1.8,0.6
		c0.6,0.2,1.2,0.4,1.8,0.6c0.6,0.2,1.2,0.4,1.8,0.7c0.6,0.2,1.2,0.5,1.7,0.7c0.6,0.3,1.1,0.5,1.7,0.8c0.6,0.3,1.1,0.6,1.7,0.9
		c0.5,0.3,1.1,0.6,1.6,0.9c0.5,0.3,1,0.7,1.6,1c0.5,0.3,1,0.7,1.5,1.1c0.5,0.4,1,0.7,1.5,1.1c0.5,0.4,0.9,0.8,1.4,1.2
		c0.5,0.5,1,1,1.5,1.5l2.6,2.6l1.2-0.3c0.5-0.1,1-0.3,1.5-0.4c0.5-0.1,1-0.2,1.5-0.4c0.5-0.1,1-0.2,1.6-0.3c0.5-0.1,1.1-0.2,1.6-0.3
		c0.5-0.1,1.1-0.2,1.6-0.3c0.5-0.1,1.1-0.2,1.7-0.3c0.5-0.1,1.1-0.2,1.7-0.2l0,0c0.6-0.1,1.1-0.2,1.7-0.2c0.6-0.1,1.1-0.1,1.7-0.2
		c0.6-0.1,1.2-0.1,1.7-0.2c0.6-0.1,1.2-0.1,1.8-0.2c0.6,0,1.2-0.1,1.8-0.2c0.6,0,1.2-0.1,1.8-0.1c0.6,0,1.2-0.1,1.9-0.1
		c0.6,0,1.2-0.1,1.9-0.1l4.1,4.1v-1.5L223,175.2c-0.7-0.6-1.3-1.3-1.9-2c-0.6-0.7-1.1-1.4-1.7-2.2c-0.5-0.8-1-1.6-1.4-2.4
		c-0.4-0.8-0.8-1.7-1.2-2.5c-0.4-0.9-0.7-1.8-1-2.6c-0.3-0.9-0.5-1.8-0.7-2.8c-0.2-0.9-0.3-1.9-0.4-2.8c-0.1-1-0.1-1.9-0.1-2.9
		c0-1,0-2,0.1-2.9c0.1-1,0.3-1.9,0.4-2.8c0.2-0.9,0.4-1.9,0.7-2.7c0.3-0.9,0.6-1.8,1-2.6c0.4-0.9,0.8-1.7,1.2-2.5
		c0.4-0.8,0.9-1.6,1.4-2.4s1.1-1.5,1.7-2.2c0.6-0.7,1.2-1.4,1.9-2c0.6-0.6,1.3-1.3,2-1.9c0.7-0.6,1.5-1.1,2.2-1.7
		c0.8-0.5,1.6-1,2.4-1.4c0.8-0.4,1.7-0.8,2.5-1.2s1.7-0.7,2.6-1c0.9-0.3,1.8-0.5,2.7-0.7c0.9-0.2,1.9-0.3,2.9-0.4
		c1-0.1,1.9-0.1,2.9-0.1c1,0,2,0.1,2.9,0.1c1,0.1,1.9,0.2,2.8,0.4c0.9,0.2,1.8,0.4,2.7,0.7c0.9,0.3,1.8,0.6,2.6,1
		c0.8,0.4,1.7,0.8,2.5,1.2c0.8,0.4,1.6,0.9,2.4,1.4c0.8,0.5,1.5,1.1,2.2,1.7c0.7,0.6,1.4,1.2,2,1.9l46,46l0.9-0.1
		c0.6-0.1,1.3-0.1,1.9-0.2c0.6-0.1,1.3-0.1,1.9-0.2c0.6-0.1,1.2-0.1,1.9-0.1c0.6,0,1.2-0.1,1.8-0.1l1.8-0.1l1.8-0.1l1.8-0.1l1.7-0.1
		l1.7,0l1.6,0L454.6,305.8z"/>
</g>
<g>
	<circle fill="#95D9F1" cx="250" cy="252" r="200"/>
</g>
<g>
	<defs>
		<circle id="SVGID_110_" cx="250" cy="252" r="200"/>
	</defs>
	<clipPath id="SVGID_4_">
		<use xlink:href="#SVGID_110_"  overflow="visible"/>
	</clipPath>
	<path clip-path="url(#SVGID_4_)" fill-rule="evenodd" clip-rule="evenodd" fill="#71C9E9" d="M454.6,306.8V456H448h-6.6h-6.6h-6.6
		h-6.6H415h-6.6h-6.6h-6.6h-6.6H382h-6.6h-6.6h-6.6h-6.6h-6.6h-6.6h-6.6h-6.6h-6.6h-6.6h-6.6h-6.6h-6.6h-6.6h-6.6h-5.9l-96.2-96.2
		c-0.5-0.4-1-1-1.6-1.6c-0.5-0.6-1-1.3-1.6-2c-0.5-0.7-1.1-1.5-1.6-2.4c-0.5-0.8-1.1-1.8-1.6-2.7c-0.5-1-1.1-2-1.6-3.1
		c-0.5-1.1-1.1-2.2-1.6-3.4c-0.5-1.2-1.1-2.4-1.6-3.7c-0.5-1.3-1-2.6-1.6-4c-0.5-1.4-1-2.8-1.5-4.2c-0.5-1.5-0.9-2.9-1.4-4.5
		c-0.5-1.5-0.9-3.1-1.3-4.7c-0.4-1.6-0.8-3.2-1.2-4.9c-0.4-1.7-0.8-3.3-1.1-5c-0.4-1.7-0.7-3.4-1-5.2c-0.3-1.8-0.6-3.5-0.9-5.3
		c-0.3-1.8-0.5-3.6-0.7-5.4c-0.2-1.8-0.4-3.6-0.5-5.5c-0.1-1.8-0.2-3.7-0.3-5.5c-0.1-1.9-0.1-3.7-0.1-5.6c0-1.9,0-3.7,0.1-5.6
		c0.1-1.9,0.2-3.7,0.3-5.6c0.2-1.9,0.3-3.7,0.6-5.5c0.2-1.8,0.5-3.7,0.8-5.5c0.3-1.8,0.7-3.6,1.1-5.4c0.4-1.8,0.9-3.5,1.4-5.3
		c0.5-1.8,1.1-3.5,1.7-5.2c0.6-1.7,1.3-3.4,2-5c0.7-1.7,1.5-3.3,2.4-4.9c0.8-1.6,1.7-3.2,2.7-4.7l0-1.6l0-1.6l-0.1-1.6l-0.1-1.6
		l-0.1-1.6l-0.2-1.6l-0.2-1.6l-0.2-1.6l-0.3-1.6l-0.3-1.6l-0.3-1.6l-0.4-1.6l-0.4-1.6l-0.4-1.6l-0.4-1.6l-0.5-1.6l-0.5-1.6l-0.5-1.5
		l-0.5-1.5l-0.5-1.5l-0.5-1.5l-0.5-1.5l-0.6-1.5L163,191l-0.6-1.4l-0.6-1.4l-0.6-1.4l-0.6-1.4l-0.6-1.3l-0.6-1.3l-0.6-1.3l-0.6-1.2
		l1.6,0l1.7,0l1.7,0.1l1.8,0.1l1.8,0.1l1.8,0.1c0.6,0,1.2,0.1,1.8,0.1c0.6,0,1.2,0.1,1.9,0.1c0.6,0.1,1.3,0.1,1.9,0.2
		c0.6,0.1,1.3,0.1,1.9,0.2c0.6,0.1,1.3,0.2,1.9,0.2c0.6,0.1,1.3,0.2,1.9,0.3c0.6,0.1,1.3,0.2,1.9,0.3c0.6,0.1,1.3,0.2,1.9,0.3
		c0.6,0.1,1.3,0.3,1.9,0.4c0.6,0.1,1.3,0.3,1.9,0.4c0.6,0.2,1.3,0.3,1.9,0.5c0.6,0.2,1.2,0.3,1.8,0.5c0.6,0.2,1.2,0.4,1.8,0.6
		c0.6,0.2,1.2,0.4,1.8,0.6c0.6,0.2,1.2,0.4,1.8,0.7c0.6,0.2,1.2,0.5,1.7,0.7c0.6,0.3,1.1,0.5,1.7,0.8c0.6,0.3,1.1,0.6,1.7,0.9
		c0.5,0.3,1.1,0.6,1.6,0.9c0.5,0.3,1,0.7,1.6,1c0.5,0.3,1,0.7,1.5,1.1c0.5,0.4,1,0.7,1.5,1.1c0.5,0.4,0.9,0.8,1.4,1.2
		c0.5,0.5,1,1,1.5,1.5l2.6,2.6l1.2-0.3c0.5-0.1,1-0.3,1.5-0.4c0.5-0.1,1-0.2,1.5-0.4c0.5-0.1,1-0.2,1.6-0.3c0.5-0.1,1.1-0.2,1.6-0.3
		c0.5-0.1,1.1-0.2,1.6-0.3c0.5-0.1,1.1-0.2,1.7-0.3c0.5-0.1,1.1-0.2,1.7-0.2l0,0c0.6-0.1,1.1-0.2,1.7-0.2c0.6-0.1,1.1-0.1,1.7-0.2
		c0.6-0.1,1.2-0.1,1.7-0.2c0.6-0.1,1.2-0.1,1.8-0.2c0.6,0,1.2-0.1,1.8-0.2c0.6,0,1.2-0.1,1.8-0.1c0.6,0,1.2-0.1,1.9-0.1
		c0.6,0,1.2-0.1,1.9-0.1l4.1,4.1v-1.5L223,176.2c-0.7-0.6-1.3-1.3-1.9-2c-0.6-0.7-1.1-1.4-1.7-2.2c-0.5-0.8-1-1.6-1.4-2.4
		c-0.4-0.8-0.8-1.7-1.2-2.5c-0.4-0.9-0.7-1.8-1-2.6c-0.3-0.9-0.5-1.8-0.7-2.8c-0.2-0.9-0.3-1.9-0.4-2.8c-0.1-1-0.1-1.9-0.1-2.9
		c0-1,0-2,0.1-2.9c0.1-1,0.3-1.9,0.4-2.8c0.2-0.9,0.4-1.9,0.7-2.7c0.3-0.9,0.6-1.8,1-2.6c0.4-0.9,0.8-1.7,1.2-2.5
		c0.4-0.8,0.9-1.6,1.4-2.4s1.1-1.5,1.7-2.2c0.6-0.7,1.2-1.4,1.9-2c0.6-0.6,1.3-1.3,2-1.9c0.7-0.6,1.5-1.1,2.2-1.7
		c0.8-0.5,1.6-1,2.4-1.4c0.8-0.4,1.7-0.8,2.5-1.2s1.7-0.7,2.6-1c0.9-0.3,1.8-0.5,2.7-0.7c0.9-0.2,1.9-0.3,2.9-0.4
		c1-0.1,1.9-0.1,2.9-0.1c1,0,2,0.1,2.9,0.1c1,0.1,1.9,0.2,2.8,0.4c0.9,0.2,1.8,0.4,2.7,0.7c0.9,0.3,1.8,0.6,2.6,1
		c0.8,0.4,1.7,0.8,2.5,1.2c0.8,0.4,1.6,0.9,2.4,1.4c0.8,0.5,1.5,1.1,2.2,1.7c0.7,0.6,1.4,1.2,2,1.9l46,46l0.9-0.1
		c0.6-0.1,1.3-0.1,1.9-0.2c0.6-0.1,1.3-0.1,1.9-0.2c0.6-0.1,1.2-0.1,1.9-0.1c0.6,0,1.2-0.1,1.8-0.1l1.8-0.1l1.8-0.1l1.8-0.1l1.7-0.1
		l1.7,0l1.6,0L454.6,306.8z"/>
</g>
<g>
	<circle fill="#95D9F1" cx="250" cy="253" r="200"/>
</g>
<g>
	<defs>
		<circle id="SVGID_112_" cx="250" cy="253" r="200"/>
	</defs>
	<clipPath id="SVGID_6_">
		<use xlink:href="#SVGID_112_"  overflow="visible"/>
	</clipPath>
	<path clip-path="url(#SVGID_6_)" fill-rule="evenodd" clip-rule="evenodd" fill="#71C9E9" d="M454.6,307.8V457H448h-6.6h-6.6h-6.6
		h-6.6H415h-6.6h-6.6h-6.6h-6.6H382h-6.6h-6.6h-6.6h-6.6h-6.6h-6.6h-6.6h-6.6h-6.6h-6.6h-6.6h-6.6h-6.6h-6.6h-6.6h-5.9l-96.2-96.2
		c-0.5-0.4-1-1-1.6-1.6c-0.5-0.6-1-1.3-1.6-2c-0.5-0.7-1.1-1.5-1.6-2.4c-0.5-0.8-1.1-1.8-1.6-2.7c-0.5-1-1.1-2-1.6-3.1
		c-0.5-1.1-1.1-2.2-1.6-3.4c-0.5-1.2-1.1-2.4-1.6-3.7c-0.5-1.3-1-2.6-1.6-4c-0.5-1.4-1-2.8-1.5-4.2c-0.5-1.5-0.9-2.9-1.4-4.5
		c-0.5-1.5-0.9-3.1-1.3-4.7c-0.4-1.6-0.8-3.2-1.2-4.9c-0.4-1.7-0.8-3.3-1.1-5c-0.4-1.7-0.7-3.4-1-5.2c-0.3-1.8-0.6-3.5-0.9-5.3
		c-0.3-1.8-0.5-3.6-0.7-5.4c-0.2-1.8-0.4-3.6-0.5-5.5c-0.1-1.8-0.2-3.7-0.3-5.5c-0.1-1.9-0.1-3.7-0.1-5.6c0-1.9,0-3.7,0.1-5.6
		c0.1-1.9,0.2-3.7,0.3-5.6c0.2-1.9,0.3-3.7,0.6-5.5c0.2-1.8,0.5-3.7,0.8-5.5c0.3-1.8,0.7-3.6,1.1-5.4c0.4-1.8,0.9-3.5,1.4-5.3
		c0.5-1.8,1.1-3.5,1.7-5.2c0.6-1.7,1.3-3.4,2-5c0.7-1.7,1.5-3.3,2.4-4.9c0.8-1.6,1.7-3.2,2.7-4.7l0-1.6l0-1.6l-0.1-1.6l-0.1-1.6
		l-0.1-1.6l-0.2-1.6l-0.2-1.6l-0.2-1.6l-0.3-1.6l-0.3-1.6l-0.3-1.6l-0.4-1.6l-0.4-1.6l-0.4-1.6l-0.4-1.6l-0.5-1.6l-0.5-1.6l-0.5-1.5
		l-0.5-1.5l-0.5-1.5l-0.5-1.5l-0.5-1.5l-0.6-1.5L163,192l-0.6-1.4l-0.6-1.4l-0.6-1.4l-0.6-1.4l-0.6-1.3l-0.6-1.3l-0.6-1.3l-0.6-1.2
		l1.6,0l1.7,0l1.7,0.1l1.8,0.1l1.8,0.1l1.8,0.1c0.6,0,1.2,0.1,1.8,0.1c0.6,0,1.2,0.1,1.9,0.1c0.6,0.1,1.3,0.1,1.9,0.2
		c0.6,0.1,1.3,0.1,1.9,0.2c0.6,0.1,1.3,0.2,1.9,0.2c0.6,0.1,1.3,0.2,1.9,0.3c0.6,0.1,1.3,0.2,1.9,0.3c0.6,0.1,1.3,0.2,1.9,0.3
		c0.6,0.1,1.3,0.3,1.9,0.4c0.6,0.1,1.3,0.3,1.9,0.4c0.6,0.2,1.3,0.3,1.9,0.5c0.6,0.2,1.2,0.3,1.8,0.5c0.6,0.2,1.2,0.4,1.8,0.6
		c0.6,0.2,1.2,0.4,1.8,0.6c0.6,0.2,1.2,0.4,1.8,0.7c0.6,0.2,1.2,0.5,1.7,0.7c0.6,0.3,1.1,0.5,1.7,0.8c0.6,0.3,1.1,0.6,1.7,0.9
		c0.5,0.3,1.1,0.6,1.6,0.9c0.5,0.3,1,0.7,1.6,1c0.5,0.3,1,0.7,1.5,1.1c0.5,0.4,1,0.7,1.5,1.1c0.5,0.4,0.9,0.8,1.4,1.2
		c0.5,0.5,1,1,1.5,1.5l2.6,2.6l1.2-0.3c0.5-0.1,1-0.3,1.5-0.4c0.5-0.1,1-0.2,1.5-0.4c0.5-0.1,1-0.2,1.6-0.3c0.5-0.1,1.1-0.2,1.6-0.3
		c0.5-0.1,1.1-0.2,1.6-0.3c0.5-0.1,1.1-0.2,1.7-0.3c0.5-0.1,1.1-0.2,1.7-0.2l0,0c0.6-0.1,1.1-0.2,1.7-0.2c0.6-0.1,1.1-0.1,1.7-0.2
		c0.6-0.1,1.2-0.1,1.7-0.2c0.6-0.1,1.2-0.1,1.8-0.2c0.6,0,1.2-0.1,1.8-0.2c0.6,0,1.2-0.1,1.8-0.1c0.6,0,1.2-0.1,1.9-0.1
		c0.6,0,1.2-0.1,1.9-0.1l4.1,4.1v-1.5L223,177.2c-0.7-0.6-1.3-1.3-1.9-2c-0.6-0.7-1.1-1.4-1.7-2.2c-0.5-0.8-1-1.6-1.4-2.4
		c-0.4-0.8-0.8-1.7-1.2-2.5c-0.4-0.9-0.7-1.8-1-2.6c-0.3-0.9-0.5-1.8-0.7-2.8c-0.2-0.9-0.3-1.9-0.4-2.8c-0.1-1-0.1-1.9-0.1-2.9
		c0-1,0-2,0.1-2.9c0.1-1,0.3-1.9,0.4-2.8c0.2-0.9,0.4-1.9,0.7-2.7c0.3-0.9,0.6-1.8,1-2.6c0.4-0.9,0.8-1.7,1.2-2.5
		c0.4-0.8,0.9-1.6,1.4-2.4s1.1-1.5,1.7-2.2c0.6-0.7,1.2-1.4,1.9-2c0.6-0.6,1.3-1.3,2-1.9c0.7-0.6,1.5-1.1,2.2-1.7
		c0.8-0.5,1.6-1,2.4-1.4c0.8-0.4,1.7-0.8,2.5-1.2s1.7-0.7,2.6-1c0.9-0.3,1.8-0.5,2.7-0.7c0.9-0.2,1.9-0.3,2.9-0.4
		c1-0.1,1.9-0.1,2.9-0.1c1,0,2,0.1,2.9,0.1c1,0.1,1.9,0.2,2.8,0.4c0.9,0.2,1.8,0.4,2.7,0.7c0.9,0.3,1.8,0.6,2.6,1
		c0.8,0.4,1.7,0.8,2.5,1.2c0.8,0.4,1.6,0.9,2.4,1.4c0.8,0.5,1.5,1.1,2.2,1.7c0.7,0.6,1.4,1.2,2,1.9l46,46l0.9-0.1
		c0.6-0.1,1.3-0.1,1.9-0.2c0.6-0.1,1.3-0.1,1.9-0.2c0.6-0.1,1.2-0.1,1.9-0.1c0.6,0,1.2-0.1,1.8-0.1l1.8-0.1l1.8-0.1l1.8-0.1l1.7-0.1
		l1.7,0l1.6,0L454.6,307.8z"/>
</g>
<g>
	<circle fill="#95D9F1" cx="250" cy="250" r="200"/>
</g>
<g>
	<defs>
		<circle id="SVGID_114_" cx="250" cy="250" r="200"/>
	</defs>
	<clipPath id="SVGID_8_">
		<use xlink:href="#SVGID_114_"  overflow="visible"/>
	</clipPath>
</g>
<g>
	<defs>
		<circle id="SVGID_116_" cx="250" cy="250" r="200"/>
	</defs>
	<clipPath id="SVGID_10_">
		<use xlink:href="#SVGID_116_"  overflow="visible"/>
	</clipPath>
	<path clip-path="url(#SVGID_10_)" fill-rule="evenodd" clip-rule="evenodd" fill="#71C9E9" d="M454.6,304.8V454H448h-6.6h-6.6h-6.6
		h-6.6H415h-6.6h-6.6h-6.6h-6.6H382h-6.6h-6.6h-6.6h-6.6h-6.6h-6.6h-6.6h-6.6h-6.6h-6.6h-6.6h-6.6h-6.6h-6.6h-6.6h-5.9l-96.2-96.2
		c-0.5-0.4-1-1-1.6-1.6c-0.5-0.6-1-1.3-1.6-2c-0.5-0.7-1.1-1.5-1.6-2.4c-0.5-0.8-1.1-1.8-1.6-2.7c-0.5-1-1.1-2-1.6-3.1
		c-0.5-1.1-1.1-2.2-1.6-3.4c-0.5-1.2-1.1-2.4-1.6-3.7c-0.5-1.3-1-2.6-1.6-4c-0.5-1.4-1-2.8-1.5-4.2c-0.5-1.5-0.9-2.9-1.4-4.5
		c-0.5-1.5-0.9-3.1-1.3-4.7c-0.4-1.6-0.8-3.2-1.2-4.9c-0.4-1.7-0.8-3.3-1.1-5c-0.4-1.7-0.7-3.4-1-5.2c-0.3-1.8-0.6-3.5-0.9-5.3
		c-0.3-1.8-0.5-3.6-0.7-5.4c-0.2-1.8-0.4-3.6-0.5-5.5c-0.1-1.8-0.2-3.7-0.3-5.5c-0.1-1.9-0.1-3.7-0.1-5.6c0-1.9,0-3.7,0.1-5.6
		c0.1-1.9,0.2-3.7,0.3-5.6c0.2-1.9,0.3-3.7,0.6-5.5c0.2-1.8,0.5-3.7,0.8-5.5c0.3-1.8,0.7-3.6,1.1-5.4c0.4-1.8,0.9-3.5,1.4-5.3
		c0.5-1.8,1.1-3.5,1.7-5.2c0.6-1.7,1.3-3.4,2-5c0.7-1.7,1.5-3.3,2.4-4.9c0.8-1.6,1.7-3.2,2.7-4.7l0-1.6l0-1.6l-0.1-1.6l-0.1-1.6
		l-0.1-1.6l-0.2-1.6l-0.2-1.6l-0.2-1.6l-0.3-1.6l-0.3-1.6l-0.3-1.6l-0.4-1.6l-0.4-1.6l-0.4-1.6l-0.4-1.6l-0.5-1.6l-0.5-1.6l-0.5-1.5
		l-0.5-1.5l-0.5-1.5l-0.5-1.5l-0.5-1.5l-0.6-1.5L163,189l-0.6-1.4l-0.6-1.4l-0.6-1.4l-0.6-1.4l-0.6-1.3l-0.6-1.3l-0.6-1.3l-0.6-1.2
		l1.6,0l1.7,0l1.7,0.1l1.8,0.1l1.8,0.1l1.8,0.1c0.6,0,1.2,0.1,1.8,0.1c0.6,0,1.2,0.1,1.9,0.1c0.6,0.1,1.3,0.1,1.9,0.2
		c0.6,0.1,1.3,0.1,1.9,0.2c0.6,0.1,1.3,0.2,1.9,0.2c0.6,0.1,1.3,0.2,1.9,0.3c0.6,0.1,1.3,0.2,1.9,0.3c0.6,0.1,1.3,0.2,1.9,0.3
		c0.6,0.1,1.3,0.3,1.9,0.4c0.6,0.1,1.3,0.3,1.9,0.4c0.6,0.2,1.3,0.3,1.9,0.5c0.6,0.2,1.2,0.3,1.8,0.5c0.6,0.2,1.2,0.4,1.8,0.6
		c0.6,0.2,1.2,0.4,1.8,0.6c0.6,0.2,1.2,0.4,1.8,0.7c0.6,0.2,1.2,0.5,1.7,0.7c0.6,0.3,1.1,0.5,1.7,0.8c0.6,0.3,1.1,0.6,1.7,0.9
		c0.5,0.3,1.1,0.6,1.6,0.9c0.5,0.3,1,0.7,1.6,1c0.5,0.3,1,0.7,1.5,1.1c0.5,0.4,1,0.7,1.5,1.1c0.5,0.4,0.9,0.8,1.4,1.2
		c0.5,0.5,1,1,1.5,1.5l2.6,2.6l1.2-0.3c0.5-0.1,1-0.3,1.5-0.4c0.5-0.1,1-0.2,1.5-0.4c0.5-0.1,1-0.2,1.6-0.3c0.5-0.1,1.1-0.2,1.6-0.3
		c0.5-0.1,1.1-0.2,1.6-0.3c0.5-0.1,1.1-0.2,1.7-0.3c0.5-0.1,1.1-0.2,1.7-0.2l0,0c0.6-0.1,1.1-0.2,1.7-0.2c0.6-0.1,1.1-0.1,1.7-0.2
		c0.6-0.1,1.2-0.1,1.7-0.2c0.6-0.1,1.2-0.1,1.8-0.2c0.6,0,1.2-0.1,1.8-0.2c0.6,0,1.2-0.1,1.8-0.1c0.6,0,1.2-0.1,1.9-0.1
		c0.6,0,1.2-0.1,1.9-0.1l4.1,4.1v-1.5L223,174.2c-0.7-0.6-1.3-1.3-1.9-2c-0.6-0.7-1.1-1.4-1.7-2.2c-0.5-0.8-1-1.6-1.4-2.4
		c-0.4-0.8-0.8-1.7-1.2-2.5c-0.4-0.9-0.7-1.8-1-2.6c-0.3-0.9-0.5-1.8-0.7-2.8c-0.2-0.9-0.3-1.9-0.4-2.8c-0.1-1-0.1-1.9-0.1-2.9
		c0-1,0-2,0.1-2.9c0.1-1,0.3-1.9,0.4-2.8c0.2-0.9,0.4-1.9,0.7-2.7c0.3-0.9,0.6-1.8,1-2.6c0.4-0.9,0.8-1.7,1.2-2.5
		c0.4-0.8,0.9-1.6,1.4-2.4s1.1-1.5,1.7-2.2c0.6-0.7,1.2-1.4,1.9-2c0.6-0.6,1.3-1.3,2-1.9c0.7-0.6,1.5-1.1,2.2-1.7
		c0.8-0.5,1.6-1,2.4-1.4c0.8-0.4,1.7-0.8,2.5-1.2s1.7-0.7,2.6-1c0.9-0.3,1.8-0.5,2.7-0.7c0.9-0.2,1.9-0.3,2.9-0.4
		c1-0.1,1.9-0.1,2.9-0.1c1,0,2,0.1,2.9,0.1c1,0.1,1.9,0.2,2.8,0.4c0.9,0.2,1.8,0.4,2.7,0.7c0.9,0.3,1.8,0.6,2.6,1
		c0.8,0.4,1.7,0.8,2.5,1.2c0.8,0.4,1.6,0.9,2.4,1.4c0.8,0.5,1.5,1.1,2.2,1.7c0.7,0.6,1.4,1.2,2,1.9l46,46l0.9-0.1
		c0.6-0.1,1.3-0.1,1.9-0.2c0.6-0.1,1.3-0.1,1.9-0.2c0.6-0.1,1.2-0.1,1.9-0.1c0.6,0,1.2-0.1,1.8-0.1l1.8-0.1l1.8-0.1l1.8-0.1l1.7-0.1
		l1.7,0l1.6,0L454.6,304.8z"/>
</g>
<g>
	<circle fill="#95D9F1" cx="250" cy="251" r="200"/>
</g>
<g>
	<path fill-rule="evenodd" clip-rule="evenodd" fill="#CC685B" d="M272.6,200.5c11.4-18.7,38.5-20.2,56.4-20.7
		c-6.8,13.6-14.1,33.5-12.7,50.9l0,0C304.1,220.3,290.2,210.1,272.6,200.5z"/>
	<path fill-rule="evenodd" clip-rule="evenodd" fill="#CC685B" d="M215.5,200.5c-11.4-18.7-38.5-20.2-56.4-20.7
		c6.8,13.6,14.1,33.5,12.7,50.9l0,0C184,220.3,198,210.1,215.5,200.5z"/>
	<path fill-rule="evenodd" clip-rule="evenodd" fill="#F37665" d="M269.4,360.4c0.4,0.6,1.1,1,1.8,1h31.2c18.8,0,71.2-163-55-167.5
		l-0.1,12.7c0,1.8-1.4,3.1-3.2,3.1c-0.3,0,0.1,0-0.2,0c-1.7,0-3.2-1.4-3.2-3.1l-0.1-12.7c-126.3,4.5-73.6,167.5-54.8,167.5H217
		c0.7,0,1.3-0.3,1.8-1C230.1,344.5,258,344.5,269.4,360.4z"/>
	<path fill-rule="evenodd" clip-rule="evenodd" fill="#B15245" d="M269.4,360.4c0.4,0.6,1.1,1,1.8,1h31.2c6.4,0,16.7-18.8,22.6-43.8
		l-57.3-57.3L217.9,315l34.5,34.5C259.2,351.1,265.3,354.8,269.4,360.4z"/>
	<path fill-rule="evenodd" clip-rule="evenodd" fill="#2D3F50" d="M280.1,259.5c4.7,0,8.5-3.8,8.5-8.5c0-4.7-3.8-8.5-8.5-8.5
		c-4.7,0-8.5,3.8-8.5,8.5C271.6,255.6,275.4,259.5,280.1,259.5z"/>
	<path fill-rule="evenodd" clip-rule="evenodd" fill="#CC685B" d="M244.1,325.8c10.2,0,19.5-4.1,26.2-10.8
		c6.7-6.7,10.8-16,10.8-26.2c0-10.2-4.1-19.5-10.8-26.2c-6.7-6.7-16-10.8-26.2-10.8s-19.5,4.1-26.2,10.8
		c-6.7,6.7-10.8,15.9-10.8,26.2c0,10.2,4.1,19.5,10.8,26.2C224.6,321.7,233.8,325.8,244.1,325.8z"/>
	<path fill-rule="evenodd" clip-rule="evenodd" fill="#B15245" d="M260.4,297.3c4.7,0,8.5-3.8,8.5-8.5c0-4.7-3.8-8.5-8.5-8.5
		c-4.7,0-8.5,3.8-8.5,8.5C251.9,293.5,255.7,297.3,260.4,297.3z"/>
	<path fill-rule="evenodd" clip-rule="evenodd" fill="#B15245" d="M227.7,297.3c4.7,0,8.5-3.8,8.5-8.5c0-4.7-3.8-8.5-8.5-8.5
		c-4.7,0-8.5,3.8-8.5,8.5C219.2,293.5,223.1,297.3,227.7,297.3z"/>
	<path fill-rule="evenodd" clip-rule="evenodd" fill="#2D3F50" d="M208,259.5c4.7,0,8.5-3.8,8.5-8.5c0-4.7-3.8-8.5-8.5-8.5
		c-4.7,0-8.5,3.8-8.5,8.5C199.5,255.6,203.3,259.5,208,259.5z"/>
	<path fill-rule="evenodd" clip-rule="evenodd" fill="#F29D1F" d="M244.1,126.6c-15.9,0-28.7,12.9-28.7,28.7
		c0,15.9,12.8,28.7,28.7,28.7s28.7-12.8,28.7-28.7C272.8,139.5,259.9,126.6,244.1,126.6z"/>
	<path fill-rule="evenodd" clip-rule="evenodd" fill="#FBCD4D" d="M244.1,179.9c6.8,0,12.9-2.7,17.4-7.2c4.5-4.4,7.2-10.6,7.2-17.4
		s-2.7-12.9-7.2-17.4c-4.4-4.5-10.6-7.2-17.4-7.2c-6.8,0-12.9,2.7-17.4,7.2c-4.4,4.4-7.2,10.6-7.2,17.4s2.7,12.9,7.2,17.4
		C231.1,177.1,237.3,179.9,244.1,179.9z"/>
	<path fill-rule="evenodd" clip-rule="evenodd" fill="#F29D1F" d="M245.9,142.8v9.4c2.9,0.1,5.2,0.4,7,0.8c1.8,0.4,3.2,1.3,4.4,2.7
		c1.1,1.4,1.7,3.4,1.7,6c0,2.7-0.4,4.8-1.2,6.4c-0.8,1.5-2.1,2.6-3.8,3.3c-1.7,0.7-4,1.1-6.9,1.2h-1.1v3.6h-3.8v-3.6
		c-2,0-3.7-0.2-5.3-0.5c-1.6-0.3-2.9-0.8-4.1-1.6c-1.1-0.7-2-1.8-2.7-3.1c-0.6-1.3-1-3-1-5l0-1.2h6c0,1.5,0.1,2.7,0.4,3.5
		c0.2,0.8,0.6,1.4,1.2,1.8c0.5,0.4,1.2,0.6,1.8,0.7c0.7,0.1,1.9,0.2,3.7,0.3v-10.3c-2.3-0.1-4.1-0.3-5.5-0.6
		c-1.4-0.2-2.6-0.7-3.7-1.3c-1.1-0.6-1.9-1.6-2.5-2.9c-0.6-1.3-0.9-3-0.9-5.2c0-2.6,0.5-4.7,1.6-6.1c1-1.4,2.5-2.4,4.3-2.9
		c1.8-0.5,4.1-0.7,6.8-0.7v-3.2h3.8v3.2c3,0.1,5.4,0.4,7,0.9c1.7,0.5,2.9,1.4,3.8,2.9c0.9,1.4,1.3,3.6,1.3,6.5h-5.9
		c0-0.2,0-0.4,0-0.7c0-1.7-0.4-2.8-1.1-3.4c-0.7-0.6-2-0.9-3.7-0.9H245.9L245.9,142.8z M245.9,157.2v10.3h1.1c2,0,3.5-0.4,4.4-1.1
		c1-0.7,1.4-2,1.4-4c0-1.5-0.3-2.6-0.8-3.3c-0.5-0.7-1.2-1.2-2.1-1.4C249.2,157.5,247.8,157.4,245.9,157.2L245.9,157.2z
		 M242.2,142.8h-0.9c-1.3,0-2.4,0.1-3.2,0.3c-0.8,0.2-1.4,0.6-1.9,1.2c-0.5,0.6-0.7,1.6-0.7,2.9c0,1.9,0.6,3.2,1.7,3.9
		c1.1,0.7,2.8,1,5,1V142.8z"/>
	<path fill-rule="evenodd" clip-rule="evenodd" fill="#2D3F50" d="M269.4,360.4c0.4,0.6,1.1,1,1.8,1h31.2c2.1,0,4.7-2.1,7.3-5.8
		h-44.8C266.6,357,268.1,358.6,269.4,360.4L269.4,360.4z M178.4,355.6c2.7,3.7,5.2,5.8,7.3,5.8H217c0.7,0,1.3-0.3,1.8-1
		c1.3-1.8,2.8-3.4,4.5-4.8H178.4z"/>
</g>
</svg>
