<?xml version="1.0" encoding="utf-8"?>
<!-- Generator: Adobe Illustrator 17.1.0, SVG Export Plug-In . SVG Version: 6.00 Build 0)  -->
<!DOCTYPE svg PUBLIC "-//W3C//DTD SVG 1.0//EN" "http://www.w3.org/TR/2001/REC-SVG-20010904/DTD/svg10.dtd">
<svg version="1.0" id="Layer_1" xmlns="http://www.w3.org/2000/svg" xmlns:xlink="http://www.w3.org/1999/xlink" x="0px" y="0px"
	 viewBox="0 0 20 20" enable-background="new 0 0 20 20" xml:space="preserve">
<g>
	<path fill="#FFFFFF" d="M3,14.169c-0.276,0-0.5-0.224-0.5-0.5V3c0-0.276,0.224-0.5,0.5-0.5h5.621c0.165,0,0.318,0.081,0.412,0.217
		l0.996,1.449H17c0.276,0,0.5,0.224,0.5,0.5v9.003c0,0.276-0.224,0.5-0.5,0.5H3z"/>
	<path fill="#4C5355" d="M8.621,3l1.145,1.665H17v9.004H3V3H8.621 M8.621,2H3C2.448,2,2,2.448,2,3v10.669c0,0.552,0.448,1,1,1h14
		c0.552,0,1-0.448,1-1V4.665c0-0.552-0.448-1-1-1h-6.708L9.445,2.433C9.259,2.162,8.951,2,8.621,2L8.621,2z"/>
</g>
<g id="arrow_up_1_">
	<g>
		<g>
			<path fill="#828788" d="M10.002,7.561c-0.361,0-0.7,0.14-0.955,0.395l-4.661,4.659c-0.557,0.557-0.433,1.063-0.354,1.254
				c0.079,0.191,0.349,0.637,1.135,0.637l1.548-0.002v2.952c0,0.39,0.316,0.707,0.707,0.707h5.153c0.39,0,0.707-0.316,0.707-0.707
				v-2.952l1.547,0.002c0.789,0,1.059-0.446,1.138-0.637c0.079-0.192,0.204-0.697-0.353-1.254l-4.658-4.659
				C10.702,7.701,10.363,7.561,10.002,7.561L10.002,7.561z"/>
			<path fill="#FFFFFF" d="M10.002,7.097c0.485,0,0.942,0.189,1.284,0.532l4.658,4.658c0.775,0.775,0.543,1.542,0.454,1.758
				c-0.091,0.218-0.47,0.925-1.567,0.925l-1.082-0.001v2.487c0,0.646-0.526,1.171-1.172,1.171H7.423
				c-0.646,0-1.171-0.525-1.171-1.171v-2.487L5.17,14.971c-1.099,0-1.477-0.708-1.566-0.924c-0.09-0.215-0.324-0.982,0.454-1.76
				l4.661-4.659C9.062,7.285,9.517,7.097,10.002,7.097z M14.83,14.042c0.489,0,0.654-0.22,0.708-0.352
				c0.054-0.13,0.093-0.401-0.252-0.747l-4.658-4.659c-0.334-0.335-0.919-0.334-1.253,0l-4.661,4.659
				c-0.347,0.347-0.308,0.617-0.253,0.747c0.054,0.132,0.218,0.351,0.707,0.351l2.012-0.002v3.417c0,0.133,0.109,0.242,0.242,0.242
				h5.152c0.134,0,0.243-0.109,0.243-0.242V14.04L14.83,14.042z"/>
		</g>
	</g>
</g>
</svg>
