<?xml version="1.0" encoding="utf-8"?>
<!-- Generator: Adobe Illustrator 17.0.0, SVG Export Plug-In . SVG Version: 6.00 Build 0)  -->
<!DOCTYPE svg PUBLIC "-//W3C//DTD SVG 1.1//EN" "http://www.w3.org/Graphics/SVG/1.1/DTD/svg11.dtd">
<svg version="1.1" xmlns="http://www.w3.org/2000/svg" xmlns:xlink="http://www.w3.org/1999/xlink" x="0px" y="0px" width="32px"
	 height="32px" viewBox="0 0 32 32" enable-background="new 0 0 32 32" xml:space="preserve">
<g id="Layer_1">
</g>
<g id="icons">
	<g opacity="0.8">
		<g>
			<path fill="#4C5355" d="M8.462,18.726l1.789-1.838c0.365-0.375,0.739-0.239,1.175,0.044c0,0,1.284,1.064,1.716,1.043
				c1.102-0.052,2.741-1.712,3.904-2.907c1.108-1.138,2.689-2.756,2.74-3.872c0.021-0.451-1.033-1.79-1.033-1.79
				C18.478,8.959,18.346,8.575,18.71,8.2L20.5,6.363c0.364-0.375,0.738-0.639,1.174-0.356c0,0,1.942,1.347,1.984,1.405
				c1.56,2.18-2.59,6.869-4.758,9.096c-0.093,0.095-0.467,0.48-0.561,0.575c-2.168,2.227-6.733,6.49-8.855,4.888
				c-0.005-0.004-0.02-0.024-0.041-0.052l-0.774,0.827c-0.295,0.407-0.211,0.99,0.184,1.3c0.396,0.312,0.956,0.234,1.25-0.173
				c0.399-0.548,1.16-0.65,1.696-0.23c0.535,0.421,0.646,1.208,0.248,1.757l-0.255-0.2c0.294-0.407,0.211-0.988-0.183-1.298
				c-0.396-0.31-0.957-0.235-1.251,0.17c-0.398,0.55-1.157,0.653-1.694,0.232c-0.535-0.42-0.646-1.209-0.248-1.757l0.84-0.9
				c-0.389-0.575-1.139-1.716-1.139-1.716C7.84,19.484,8.098,19.101,8.462,18.726z"/>
		</g>
	</g>
</g>
</svg>
