<?xml version="1.0" encoding="utf-8"?>
<!-- Generator: Adobe Illustrator 17.0.0, SVG Export Plug-In . SVG Version: 6.00 Build 0)  -->
<!DOCTYPE svg PUBLIC "-//W3C//DTD SVG 1.1//EN" "http://www.w3.org/Graphics/SVG/1.1/DTD/svg11.dtd">
<svg version="1.1" xmlns="http://www.w3.org/2000/svg" xmlns:xlink="http://www.w3.org/1999/xlink" x="0px" y="0px" width="22px"
	 height="26px" viewBox="0 0 22 26" enable-background="new 0 0 22 26" xml:space="preserve">
<g id="Layer_1">
</g>
<g id="icons">
	<g>
		<g opacity="0.6">
			<polygon fill="#4C5355" points="19.328,11.813 21.638,10.677 19.054,9.397 21.136,7.367 18.242,6.947 19.698,4.1 16.788,4.633 
				17.25,1.718 14.609,3.15 14.218,0.431 12.178,2.517 10.902,-0.069 9.686,2.395 7.623,0.326 7.235,3.222 4.6,1.879 5.146,4.835 
				2.18,4.322 3.556,6.947 0.667,7.367 2.753,9.4 0.303,10.644 2.91,11.895 0.845,13.96 3.561,14.319 2.161,16.972 5.077,16.477 
				4.576,19.399 7.401,17.914 7.853,20.794 9.861,18.687 11.174,21.264 12.283,18.942 14.186,20.9 14.609,18.022 17.227,19.399 
				16.686,16.246 19.84,16.75 18.437,14.154 21.312,13.698 			"/>
		</g>
		<polygon fill="#4C5355" points="13.111,14 9.055,14 4.657,23.446 6.759,22.741 7.606,24.988 11.027,17.504 14.987,25.918 
			15.834,23.733 17.936,24.331 		"/>
	</g>
</g>
</svg>
