<?xml version="1.0" encoding="utf-8"?>
<!-- Generator: Adobe Illustrator 17.1.0, SVG Export Plug-In . SVG Version: 6.00 Build 0)  -->
<!DOCTYPE svg PUBLIC "-//W3C//DTD SVG 1.0//EN" "http://www.w3.org/TR/2001/REC-SVG-20010904/DTD/svg10.dtd">
<svg version="1.0" id="Layer_1" xmlns="http://www.w3.org/2000/svg" xmlns:xlink="http://www.w3.org/1999/xlink" x="0px" y="0px"
	 viewBox="0 0 15 16" enable-background="new 0 0 15 16" xml:space="preserve">
<g>
	<path fill="#4C5355" d="M7.527,0.03c-2.906,0-5.261,2.356-5.261,5.261c0,0.707,0.14,1.382,0.393,1.998h0l0,0.001
		C2.66,7.293,2.66,7.296,2.662,7.299c0,0-0.003-0.009,0.003,0c0.247,0.511,4.609,6.488,4.609,6.488l0.51,0
		c0,0,4.314-5.838,4.611-6.497h0c0.253-0.616,0.393-1.291,0.393-1.999C12.788,2.386,10.432,0.03,7.527,0.03z M7.527,7.738
		c-0.958,0-1.735-0.984-1.735-2.198c0-1.214,0.777-2.198,1.735-2.198c0.958,0,1.735,0.984,1.735,2.198
		C9.262,6.754,8.485,7.738,7.527,7.738z"/>
	<path opacity="0.2" fill="#4C5355" d="M14.812,15.348l-4.295-3.6c-0.732,1.008-1.449,1.983-1.93,2.633l-0.3,0.406l-0.505,0l-0.51,0
		l-0.508,0l-0.299-0.41c-0.484-0.664-1.207-1.656-1.942-2.675l-4.401,3.69c-0.11,0.093-0.152,0.245-0.102,0.381
		c0.049,0.136,0.177,0.227,0.321,0.227L14.649,16c0,0,0.005-0.001,0.009-0.001c0.189,0,0.342-0.154,0.342-0.344
		C15,15.521,14.924,15.405,14.812,15.348z"/>
</g>
</svg>
