<?xml version="1.0" encoding="utf-8"?>
<!-- Generator: Adobe Illustrator 17.0.0, SVG Export Plug-In . SVG Version: 6.00 Build 0)  -->
<!DOCTYPE svg PUBLIC "-//W3C//DTD SVG 1.1//EN" "http://www.w3.org/Graphics/SVG/1.1/DTD/svg11.dtd">
<svg version="1.1" id="Layer_1" xmlns="http://www.w3.org/2000/svg" xmlns:xlink="http://www.w3.org/1999/xlink" x="0px" y="0px"
	 width="24px" height="24px" viewBox="0 0 24 24" enable-background="new 0 0 24 24" xml:space="preserve">
<path fill="#FFFFFF" d="M6.333,17.549c0.48-0.017,0.824-0.081,1.032-0.191c0.353-0.185,0.529-0.538,0.529-1.058V7.699
	c0-0.516-0.165-0.864-0.494-1.042C7.203,6.549,6.848,6.48,6.333,6.451V6h5.488c1.058,0,1.936,0.121,2.636,0.364
	c1.318,0.457,1.977,1.289,1.977,2.497c0,0.734-0.267,1.316-0.802,1.747c-0.535,0.431-1.114,0.704-1.738,0.819v0.165
	c0.659,0.127,1.231,0.341,1.717,0.642c0.948,0.59,1.422,1.41,1.422,2.462c0,0.983-0.454,1.779-1.361,2.389S13.556,18,12.047,18
	H6.333V17.549z M12.94,10.847c0.376-0.358,0.564-0.994,0.564-1.908c0-0.676-0.123-1.246-0.368-1.708
	c-0.246-0.462-0.718-0.694-1.418-0.694c-0.37,0-0.627,0.062-0.772,0.186c-0.145,0.124-0.217,0.348-0.217,0.672v3.988
	C11.828,11.384,12.565,11.205,12.94,10.847z M10.868,17.046c0.145,0.254,0.422,0.382,0.832,0.382c0.838,0,1.426-0.228,1.764-0.685
	s0.507-1.107,0.507-1.951c0-1.26-0.373-2.098-1.118-2.514c-0.451-0.254-1.159-0.373-2.124-0.355v4.439
	C10.735,16.673,10.781,16.902,10.868,17.046z"/>
</svg>
