<?xml version="1.0" encoding="utf-8"?>
<!-- Generator: Adobe Illustrator 17.0.0, SVG Export Plug-In . SVG Version: 6.00 Build 0)  -->
<!DOCTYPE svg PUBLIC "-//W3C//DTD SVG 1.1//EN" "http://www.w3.org/Graphics/SVG/1.1/DTD/svg11.dtd">
<svg version="1.1" id="Layer_1" xmlns="http://www.w3.org/2000/svg" xmlns:xlink="http://www.w3.org/1999/xlink" x="0px" y="0px"
	 width="24px" height="24px" viewBox="0 0 24 24" enable-background="new 0 0 24 24" xml:space="preserve">
<path fill="#FFFFFF" d="M8.333,17.536c0.426-0.053,0.742-0.156,0.946-0.312c0.204-0.158,0.374-0.479,0.508-0.966l2.203-8.05
	c0.064-0.228,0.112-0.419,0.145-0.574c0.032-0.155,0.048-0.291,0.048-0.407c0-0.304-0.085-0.495-0.254-0.574
	c-0.169-0.079-0.523-0.142-1.06-0.188V6h5.343v0.464c-0.438,0.058-0.755,0.164-0.95,0.315s-0.361,0.476-0.495,0.972l-2.213,8.05
	l-0.14,0.619c-0.012,0.058-0.022,0.117-0.031,0.178c-0.009,0.061-0.013,0.118-0.013,0.171c0,0.302,0.082,0.493,0.245,0.575
	c0.164,0.08,0.517,0.145,1.06,0.191V18H8.333V17.536z"/>
</svg>
