<svg xmlns="http://www.w3.org/2000/svg" viewBox="0 0 150 150">
    <g fill="none" fill-rule="nonzero">
        <circle cx="50" cy="50" r="50" fill="#95D9F1"/>
        <path fill="#FFF" d="M73.775 47.075c-.275-1.95-2.05-3.325-4.025-3.325 0 0-6.675-.075-8.9-.025-.925.025-3.225.15-3.725-.225s-.475-.675-.375-1.15c.225-1.25 1.225-3.625 2.375-6.025 1.075-2.25 1.375-9.725-.4-10.975-1.775-1.225-4.225-.8-5.45 1l-1.425 5.125a18.458 18.458 0 0 1-2.575 5.5l-2.675 3.85c-.575.825-2.8 3.45-4.075 4.9a3.51 3.51 0 0 0-.875 2.35L41.6 66.3c0 1.075.7 2.025 1.75 2.35l5.1 1.5 12.3.025h2.65c1.8 0 3.475-1.1 4-2.825.275-.9.175-1.75-.1-2.525 1.725-.4 3-1.95 3-3.775 0-1.15-.5-2.15-1.275-2.875 1.8-.35 3.175-1.925 3.175-3.825 0-1.15-.5-2.175-1.3-2.9 1.875-.55 3.175-2.325 2.875-4.375z"/>
        <path fill="#596374" d="M26.625 70.325l11.4.025c.8 0 1.45-.65 1.45-1.45l.05-22.35c0-.8-.65-1.45-1.45-1.45l-11.4-.025c-.8 0-1.45.65-1.45 1.45l-.05 22.35c0 .8.65 1.45 1.45 1.45z"/>
    </g>
</svg>
