<?xml version="1.0" encoding="utf-8"?>
<!-- Generator: Adobe Illustrator 19.1.0, SVG Export Plug-In . SVG Version: 6.00 Build 0)  -->
<svg version="1.0" id="Layer_1" xmlns="http://www.w3.org/2000/svg" xmlns:xlink="http://www.w3.org/1999/xlink" x="0px" y="0px"
	 viewBox="0 0 500 500" enable-background="new 0 0 500 500" xml:space="preserve">
<g>
	<circle fill="#95D9F1" cx="250" cy="250" r="200"/>
	<g>
		<g>
			<g>
				<path fill="#FFFFFF" d="M333.9,168.7v183.2c0,2-0.8,4-2.3,5.5c-1.5,1.5-3.5,2.3-5.5,2.3H173.9c-2,0-4-0.8-5.5-2.3
					c-1.5-1.5-2.3-3.5-2.3-5.5V148.1c0-2,0.8-4,2.3-5.5c1.5-1.5,3.5-2.3,5.5-2.3h131.6L333.9,168.7z"/>
				<path fill="#E6E5E5" d="M333.9,168.7h-20.6c-2,0-4-0.8-5.5-2.3c-1.5-1.5-2.3-3.5-2.3-5.5v-20.6L333.9,168.7z"/>
			</g>
			<g>
				<rect x="194.5" y="203.4" fill="#CCCBCA" width="111" height="8.7"/>
				<rect x="194.5" y="220.8" fill="#CCCBCA" width="111" height="8.7"/>
				<rect x="194.5" y="168.7" fill="#343C44" width="55.5" height="8.7"/>
				<rect x="194.5" y="186.1" fill="#CCCBCA" width="111" height="8.7"/>
				<rect x="194.5" y="325" fill="#CCCBCA" width="111" height="8.7"/>
				<rect x="194.5" y="307.6" fill="#CCCBCA" width="111" height="8.7"/>
				<rect x="194.5" y="290.3" fill="#CCCBCA" width="111" height="8.7"/>
				<rect x="194.5" y="272.9" fill="#CCCBCA" width="111" height="8.7"/>
				<rect x="194.5" y="255.5" fill="#CCCBCA" width="111" height="8.7"/>
				<rect x="194.5" y="238.2" fill="#CCCBCA" width="111" height="8.7"/>
			</g>
		</g>
		<g>
			<rect x="290.8" y="287.9" fill="#4A5158" width="9.9" height="11"/>
			<g>
				<path fill="#343C44" d="M295.8,186.1c-28.8,0-52.1,23.3-52.1,52.1c0,28.8,23.3,52.1,52.1,52.1c28.8,0,52.1-23.3,52.1-52.1
					C347.8,209.4,324.5,186.1,295.8,186.1z"/>
				<path fill="#5AB5D9" d="M295.7,279.8c-23,0-41.7-18.7-41.7-41.7c0-23,18.7-41.7,41.7-41.7c23,0,41.7,18.7,41.7,41.7
					C337.4,261.2,318.8,279.8,295.7,279.8z"/>
				<path fill="#95D9F1" d="M295.7,271.5c-18.4,0-33.4-14.9-33.4-33.4c0-18.4,14.9-33.4,33.4-33.4c18.4,0,33.4,14.9,33.4,33.4
					C329.1,256.6,314.2,271.5,295.7,271.5z"/>
				<circle fill="#FFFFFF" cx="295.8" cy="238.2" r="5.8"/>
				<path fill="#FFFFFF" d="M291.1,220.4c0,7.2-5.8,13.1-13.1,13.1c-7.2,0-13.1-5.8-13.1-13.1c0-7.2,5.8-13.1,13.1-13.1
					C285.2,207.3,291.1,213.2,291.1,220.4z"/>
			</g>
			<path fill="#343C44" d="M305.5,303.6V350c0,5.4-4.3,9.7-9.7,9.7c-5.4,0-9.7-4.4-9.7-9.7v-46.3H305.5z"/>
			<path fill="#E6E5E5" d="M305.5,303.6H286v-1.2c0-0.9,0.3-1.8,1-2.5c0.7-0.7,1.6-1,2.4-1H302c0.9,0,1.8,0.3,2.4,1
				c0.7,0.7,1,1.6,1,2.5V303.6z"/>
		</g>
	</g>
</g>
</svg>
