<?xml version="1.0" encoding="utf-8"?>
<!-- Generator: Adobe Illustrator 19.1.0, SVG Export Plug-In . SVG Version: 6.00 Build 0)  -->
<svg version="1.0" id="Layer_1" xmlns="http://www.w3.org/2000/svg" xmlns:xlink="http://www.w3.org/1999/xlink" x="0px" y="0px"
	 viewBox="0 0 500 500" enable-background="new 0 0 500 500" xml:space="preserve">
<g>
	<circle fill="#95D9F1" cx="250" cy="250" r="200"/>
</g>
<g>
	<g>
		<path fill="#4A5158" d="M251.2,157.2c0,12.2-9.8,22-22,22c-12.1,0-22-9.8-22-22c0-12.1,9.8-22,22-22
			C241.3,135.2,251.2,145,251.2,157.2z"/>
		<g>
			<rect x="227" y="122.5" fill="#FFFFFF" width="4.4" height="8.8"/>
			
				<rect x="209.6" y="128.7" transform="matrix(0.4998 0.8661 -0.8661 0.4998 220.4471 -119.8788)" fill="#FFFFFF" width="8.8" height="4.4"/>
			
				<rect x="198.5" y="139.8" transform="matrix(0.8661 0.4999 -0.4999 0.8661 98.1754 -82.4212)" fill="#FFFFFF" width="8.8" height="4.4"/>
			<rect x="194.5" y="155" fill="#FFFFFF" width="8.8" height="4.4"/>
			
				<rect x="200.7" y="168" transform="matrix(0.4992 0.8665 -0.8665 0.4992 250.9717 -89.5149)" fill="#FFFFFF" width="4.4" height="8.8"/>
			
				<rect x="251.1" y="170.2" transform="matrix(0.8664 0.4994 -0.4994 0.8664 120.2127 -104.5389)" fill="#FFFFFF" width="8.8" height="4.4"/>
			<rect x="255.1" y="155" fill="#FFFFFF" width="8.8" height="4.4"/>
			
				<rect x="253.2" y="137.6" transform="matrix(0.5003 0.8659 -0.8659 0.5003 250.6329 -150.2029)" fill="#FFFFFF" width="4.4" height="8.8"/>
			
				<rect x="242.2" y="126.5" transform="matrix(0.8663 0.4996 -0.4996 0.8663 98.0925 -104.5648)" fill="#FFFFFF" width="4.4" height="8.8"/>
		</g>
	</g>
	<g>
		<path fill="#FFFFFF" d="M308.7,194.9c-2.3-2.3-5.4-3.5-8.4-3.5c-3,0-6.1,1.2-8.4,3.5c-2.3,2.3-3.5,5.4-3.5,8.4v0
			c0-3-1.2-6.1-3.5-8.4c-2.3-2.3-5.3-3.5-8.4-3.5c-3,0-6.1,1.2-8.4,3.5c-2.3,2.3-3.5,5.3-3.5,8.4v0c0-3-1.2-6.1-3.5-8.4
			c-2.3-2.3-5.4-3.5-8.4-3.5c-3,0-6.1,1.2-8.4,3.5c-2.3,2.3-3.5,5.4-3.5,8.4v-46.1c0-3-1.2-6.1-3.5-8.4c-2.3-2.3-5.3-3.5-8.4-3.5
			c-3,0-6.1,1.2-8.4,3.5c-2.3,2.3-3.5,5.4-3.5,8.4v136.3H241h23.7h23.7h23.7v-90.2C312.2,200.2,311,197.2,308.7,194.9z"/>
		<path fill="#FFFFFF" d="M229.2,304.3c-6.5,0-11.9-5.3-11.9-11.9c0-19.9-16.2-36-36-36c-6.5,0-11.9-5.3-11.9-11.9
			c0-6.6,5.3-11.9,11.9-11.9c32.9,0,59.7,26.8,59.7,59.7C241,299,235.7,304.3,229.2,304.3z"/>
		<path fill="#343C44" d="M308.6,367.5c1.8,0,3.6-0.7,4.9-2c1.3-1.4,2-3.1,2-4.9v-61.1c0-1.8-0.7-3.6-2-4.9c-1.4-1.4-3.1-2-4.9-2
			h-87.6c-1.8,0-3.6,0.7-4.9,2c-1.4,1.4-2,3.1-2,4.9v61.1c0,1.8,0.7,3.6,2,4.9c1.4,1.4,3.1,2,4.9,2H308.6z"/>
		<path fill="#FFFFFF" d="M297.6,306c3,0,5.5,2.5,5.5,5.5c0,3-2.5,5.5-5.5,5.5c-3,0-5.5-2.5-5.5-5.5
			C292.1,308.5,294.6,306,297.6,306z"/>
	</g>
</g>
</svg>
