<?xml version="1.0" encoding="utf-8"?>
<!-- Generator: Adobe Illustrator 19.1.0, SVG Export Plug-In . SVG Version: 6.00 Build 0)  -->
<svg version="1.0" id="Layer_1" xmlns="http://www.w3.org/2000/svg" xmlns:xlink="http://www.w3.org/1999/xlink" x="0px" y="0px"
	 viewBox="0 0 500 500" enable-background="new 0 0 500 500" xml:space="preserve">
<g>
	<path fill="#95D9F1" d="M450,250c0,110.5-89.5,200-200,200S50,360.5,50,250c0-110.5,89.5-200,200-200S450,139.5,450,250z"/>
	<g>
		<path fill="#FFFFFF" d="M366.1,201H133.9v117.5c0,2,0.8,4,2.3,5.5c1.5,1.5,3.5,2.3,5.5,2.3h216.8c2,0,4-0.8,5.5-2.3
			c1.5-1.5,2.3-3.5,2.3-5.5V201z"/>
		<path fill="#FECE67" d="M366.1,181.5c0-2-0.8-4-2.3-5.5c-1.5-1.5-3.5-2.3-5.5-2.3H141.6c-2,0-4,0.8-5.5,2.3
			c-1.5,1.5-2.3,3.5-2.3,5.5V201h232.3V181.5z"/>
		<path fill="#ECA434" d="M275.8,187.4c0-2.8-2.3-5.2-5.2-5.2h-41.3c-2.8,0-5.2,2.3-5.2,5.2l0,0c0,2.8,2.3,5.2,5.2,5.2h41.3
			C273.5,192.5,275.8,190.2,275.8,187.4L275.8,187.4z"/>
		<g>
			<g>
				<rect x="152.1" y="219.3" fill="#E6E5E5" width="88.8" height="88.8"/>
				<g>
					<g>
						<path fill="#4A5158" d="M196.4,277.9c-15.2,0-27.4,13.5-27.4,30.2h54.9C223.9,291.4,211.6,277.9,196.4,277.9z"/>
						<path fill="#4A5158" d="M213,256.2c0,9.1-7.4,16.5-16.6,16.5c-9,0-16.4-7.4-16.4-16.5c0-9.1,7.4-16.5,16.4-16.5
							C205.6,239.8,213,247.2,213,256.2z"/>
					</g>
				</g>
			</g>
			<g>
				<rect x="259.1" y="301.2" fill="#CCCBCA" width="44.4" height="6.8"/>
				<rect x="259.1" y="287.6" fill="#CCCBCA" width="88.8" height="6.8"/>
				<rect x="259.1" y="273.9" fill="#CCCBCA" width="88.8" height="6.8"/>
				<rect x="259.1" y="260.2" fill="#CCCBCA" width="88.8" height="6.8"/>
			</g>
			<rect x="259.1" y="219.3" fill="#4A5158" width="88.8" height="20.5"/>
		</g>
		<path fill="#FFFFFF" d="M260.9,148c-3-3-7-4.5-10.9-4.5s-7.9,1.5-10.9,4.5c-3,3-4.5,7-4.5,10.9v28.4h31V159
			C265.5,155,264,151.1,260.9,148z M250,165.4c-3.6,0-6.5-2.9-6.5-6.5c0-3.6,2.9-6.5,6.5-6.5c3.6,0,6.5,2.9,6.5,6.5
			C256.5,162.6,253.6,165.4,250,165.4z"/>
	</g>
</g>
</svg>
