<?xml version="1.0" encoding="utf-8"?>
<!-- Generator: Adobe Illustrator 19.1.0, SVG Export Plug-In . SVG Version: 6.00 Build 0)  -->
<svg version="1.0" id="Layer_1" xmlns="http://www.w3.org/2000/svg" xmlns:xlink="http://www.w3.org/1999/xlink" x="0px" y="0px"
	 viewBox="0 0 500 500" enable-background="new 0 0 500 500" xml:space="preserve">
<g>
	<circle fill="#95D9F1" cx="250" cy="250" r="200"/>
	<g>
		<g>
			<g>
				<path fill="#1895A4" d="M349,260.5c0.1-1,0.2-2.1,0.2-3.1c0.1-1.6,0.1-3.3,0.1-4.9c0-1.6,0-3.3-0.1-4.9c0-1-0.1-2-0.2-3
					c0-0.5-0.1-1.1-0.1-1.6c-4.9-53-49.5-94.7-103.8-94.7c-52.7,0-96.4,39.3-103.3,90.2c0,0.1,0,0.3,0,0.4c-0.2,1.3-0.3,2.7-0.5,4
					c-0.1,0.6-0.1,1.3-0.1,1.9c-0.1,0.9-0.1,1.9-0.2,2.8c-0.1,1.6-0.1,3.3-0.1,4.9c0,1.6,0,3.3,0.1,4.9c0,0.9,0.1,1.9,0.2,2.8
					c0,0.6,0.1,1.3,0.1,1.9c0.1,1.4,0.3,2.7,0.5,4c0,0.1,0,0.3,0,0.4c6.9,50.9,50.6,90.2,103.3,90.2c54.3,0,99-41.7,103.8-94.7
					C349,261.5,349,261,349,260.5z"/>
				<path fill="#19B0BF" d="M245.1,148.2c-52.7,0-96.4,39.3-103.3,90.2c0,0.1,0,0.3,0,0.4c-0.2,1.3-0.3,2.7-0.5,4
					c-0.1,0.6-0.1,1.3-0.1,1.9c-0.1,0.9-0.1,1.9-0.2,2.8c-0.1,1.6-0.1,3.3-0.1,4.9c0,1.6,0,3.3,0.1,4.9c0,0.9,0.1,1.9,0.2,2.8
					c0,0.6,0.1,1.3,0.1,1.9c0.1,1.4,0.3,2.7,0.5,4c0,0.1,0,0.3,0,0.4c6.9,50.9,50.6,90.2,103.3,90.2"/>
				<g>
					<path fill="#D1EBFA" d="M330.1,295c-0.4,0.7-0.7,1.4-1.1,2.1c-0.3,0.6-0.7,1.3-1.1,1.9c-0.4,0.7-0.8,1.4-1.2,2.1
						c-0.4,0.6-0.8,1.2-1.1,1.8c-0.4,0.7-0.8,1.3-1.3,2c-0.4,0.6-0.8,1.2-1.2,1.8c-0.4,0.6-0.9,1.3-1.4,1.9
						c-0.4,0.6-0.9,1.2-1.3,1.7c-0.5,0.6-1,1.2-1.4,1.8c-0.5,0.6-0.9,1.1-1.4,1.7c-0.5,0.6-1,1.2-1.5,1.8c-0.5,0.5-1,1.1-1.4,1.6
						c-0.5,0.6-1.1,1.1-1.6,1.7c-0.5,0.5-1,1-1.5,1.5c-0.6,0.6-1.1,1.1-1.7,1.6c-0.5,0.5-1,1-1.6,1.4c-0.6,0.5-1.2,1-1.8,1.6
						c-0.5,0.5-1.1,0.9-1.6,1.4c-0.6,0.5-1.2,1-1.9,1.5c-0.6,0.4-1.1,0.9-1.7,1.3c-0.6,0.5-1.3,0.9-2,1.4c-0.6,0.4-1.1,0.8-1.7,1.2
						c-0.7,0.5-1.4,0.9-2,1.3c-0.6,0.4-1.2,0.7-1.8,1.1c-0.7,0.4-1.4,0.8-2.1,1.2c-0.6,0.3-1.2,0.7-1.8,1c-0.7,0.4-1.5,0.8-2.2,1.1
						c-0.6,0.3-1.2,0.6-1.8,0.9c-0.8,0.4-1.5,0.7-2.3,1c-0.6,0.3-1.2,0.6-1.9,0.8c-0.8,0.3-1.6,0.6-2.4,0.9
						c-0.6,0.2-1.2,0.5-1.9,0.7c-0.1,0.1-0.3,0.1-0.4,0.2c11.5-11.5,20.6-29,25.8-49.9h28.9c-0.1,0.3-0.3,0.6-0.4,0.9
						C330.8,293.7,330.4,294.4,330.1,295z"/>
					<path fill="#D1EBFA" d="M279.2,163.7c0.8,0.3,1.6,0.6,2.4,0.9c0.6,0.3,1.2,0.5,1.9,0.8c0.8,0.3,1.5,0.7,2.3,1
						c0.6,0.3,1.2,0.6,1.8,0.9c0.7,0.4,1.5,0.7,2.2,1.1c0.6,0.3,1.2,0.7,1.8,1c0.7,0.4,1.4,0.8,2.1,1.2c0.6,0.4,1.2,0.7,1.8,1.1
						c0.7,0.4,1.4,0.9,2,1.3c0.6,0.4,1.2,0.8,1.7,1.2c0.7,0.5,1.3,0.9,2,1.4c0.6,0.4,1.1,0.8,1.7,1.3c0.6,0.5,1.3,1,1.9,1.5
						c0.5,0.4,1.1,0.9,1.6,1.4c0.6,0.5,1.2,1,1.8,1.6c0.5,0.5,1.1,1,1.6,1.4c0.6,0.5,1.1,1.1,1.7,1.6c0.5,0.5,1,1,1.5,1.5
						c0.5,0.6,1.1,1.1,1.6,1.7c0.5,0.5,1,1.1,1.4,1.6c0.5,0.6,1,1.2,1.5,1.8c0.5,0.5,0.9,1.1,1.4,1.7c0.5,0.6,1,1.2,1.4,1.8
						c0.4,0.6,0.9,1.1,1.3,1.7c0.5,0.6,0.9,1.3,1.4,1.9c0.4,0.6,0.8,1.2,1.2,1.8c0.4,0.7,0.9,1.3,1.3,2c0.4,0.6,0.8,1.2,1.1,1.8
						c0.4,0.7,0.8,1.4,1.2,2.1c0.4,0.6,0.7,1.3,1.1,1.9c0.4,0.7,0.7,1.4,1.1,2.1c0.3,0.6,0.7,1.3,1,1.9c0.1,0.3,0.3,0.6,0.4,0.9
						h-28.9c-5.2-20.9-14.3-38.4-25.8-49.9c0.1,0,0.3,0.1,0.4,0.2C277.9,163.2,278.5,163.4,279.2,163.7z"/>
					<path fill="#D1EBFA" d="M298.2,252.4c0,10.7-1,20.9-2.8,30.5h-45.7v-61.1h45.7C297.2,231.5,298.2,241.7,298.2,252.4z"/>
					<path fill="#D1EBFA" d="M293.3,292.1c-7.8,30.3-24.2,52-43.6,55v-55H293.3z"/>
					<path fill="#D1EBFA" d="M249.7,212.7v-55c19.4,3,35.8,24.7,43.6,55H249.7z"/>
					<path fill="#D1EBFA" d="M340.1,256.8c0,0.7-0.1,1.4-0.1,2.2c0,0.6-0.1,1.2-0.1,1.8c-0.1,1.1-0.2,2.1-0.3,3.2c0,0,0,0.1,0,0.1
						c-0.8,6.4-2.3,12.7-4.4,18.9h-30.5c1.8-9.7,2.7-19.9,2.7-30.5c0-10.6-1-20.9-2.7-30.6h30.5c2.1,6.2,3.6,12.5,4.4,18.9
						c0,0.1,0,0.2,0,0.2c0.1,1,0.2,2.1,0.3,3.1c0.1,0.6,0.1,1.2,0.1,1.9c0,0.7,0.1,1.4,0.1,2.1c0.1,1.4,0.1,2.9,0.1,4.3
						C340.2,253.9,340.2,255.3,340.1,256.8z"/>
				</g>
				<g>
					<path fill="#FFFFFF" d="M150.8,264.3c0-0.2-0.1-0.4-0.1-0.6c-0.1-1-0.2-1.9-0.3-2.9c-0.1-0.7-0.1-1.4-0.2-2
						c0-0.7-0.1-1.3-0.1-2c-0.1-1.4-0.1-2.9-0.1-4.3s0-2.9,0.1-4.3c0-0.7,0.1-1.3,0.1-2c0-0.7,0.1-1.4,0.2-2.1
						c0.1-1,0.2-1.9,0.3-2.9c0-0.2,0-0.4,0.1-0.6c0.8-6.3,2.3-12.5,4.4-18.6h30.5c-1.8,9.7-2.7,19.9-2.7,30.6
						c0,10.6,1,20.9,2.7,30.5h-30.5C153,276.9,151.6,270.6,150.8,264.3z"/>
					<path fill="#FFFFFF" d="M192,252.4c0-10.7,1-21,2.8-30.6h45.7V283h-45.7C193,273.4,192,263.1,192,252.4z"/>
					<path fill="#FFFFFF" d="M240.5,157.7v55h-43.6C204.7,182.4,221.1,160.7,240.5,157.7z"/>
					<path fill="#FFFFFF" d="M240.5,292.1v55c-19.4-3-35.8-24.7-43.6-55H240.5z"/>
					<path fill="#FFFFFF" d="M213.3,162.8c-11.5,11.5-20.6,29-25.8,49.9h-28.8C169.4,189.6,189.1,171.4,213.3,162.8z"/>
					<path fill="#FFFFFF" d="M158.7,292.1h28.8c5.2,20.9,14.3,38.4,25.8,49.9C189.1,333.5,169.4,315.3,158.7,292.1z"/>
				</g>
			</g>
			<g>
				<path fill="#2D5972" d="M214.4,112.4c-30.7,0-55.5,24.8-55.5,55.5c0,30.7,55.5,78,55.5,78s55.5-47.3,55.5-78
					C269.9,137.2,245.1,112.4,214.4,112.4z M214.4,195.5c-15.2,0-27.6-12.3-27.6-27.6c0-15.2,12.3-27.5,27.6-27.5
					c15.2,0,27.5,12.3,27.5,27.5C241.9,183.1,229.6,195.5,214.4,195.5z"/>
				<path fill="#0F303F" d="M214.4,112.4c-0.4,0-0.7,0-1,0.1v25.3c0.3,0,0.7-0.1,1-0.1c16.7,0,30.2,13.5,30.2,30.2
					c0,16.7-13.5,30.2-30.2,30.2c-0.4,0-0.7,0-1-0.1V245c0.6,0.6,1,0.9,1,0.9s55.5-47.3,55.5-78
					C269.9,137.2,245.1,112.4,214.4,112.4z"/>
				<path fill="#D1EBFA" d="M214.4,195.5c-15.2,0-27.6-12.3-27.6-27.6c0-15.2,12.3-27.5,27.6-27.5c15.2,0,27.5,12.3,27.5,27.5
					C241.9,183.1,229.6,195.5,214.4,195.5z"/>
				<path fill="#A7DAE9" d="M214.4,140.4c15.2,0,27.5,12.3,27.5,27.5c0,15.2-12.3,27.6-27.5,27.6"/>
			</g>
		</g>
	</g>
</g>
</svg>
