<?xml version="1.0" encoding="utf-8"?>
<!-- Generator: Adobe Illustrator 19.1.0, SVG Export Plug-In . SVG Version: 6.00 Build 0)  -->
<svg version="1.0" id="Layer_1" xmlns="http://www.w3.org/2000/svg" xmlns:xlink="http://www.w3.org/1999/xlink" x="0px" y="0px"
	 viewBox="0 0 500 500" enable-background="new 0 0 500 500" xml:space="preserve">
<g>
	<circle fill="#95D9F1" cx="250" cy="250" r="200"/>
	<g>
		<g>
			<g>
				<path fill="#FFFFFF" d="M359.7,330c0,2-0.8,4-2.3,5.5c-1.5,1.5-3.5,2.3-5.5,2.3H148.1c-2,0-4-0.8-5.5-2.3
					c-1.5-1.5-2.3-3.5-2.3-5.5V201.7h219.4V330z"/>
				<path fill="#E6E5E5" d="M359.7,201.7H140.3V170c0-2,0.8-4,2.3-5.5c1.5-1.5,3.5-2.3,5.5-2.3h203.9c2,0,4,0.8,5.5,2.3
					c1.5,1.5,2.3,3.5,2.3,5.5V201.7z"/>
			</g>
			<g>
				<circle fill="#EA6653" cx="159.7" cy="182" r="6.5"/>
				<circle fill="#F5B541" cx="179" cy="182" r="6.5"/>
				<circle fill="#71C9E9" cx="198.4" cy="182" r="6.5"/>
			</g>
		</g>
		<g>
			<rect x="159.7" y="308.8" fill="#CCCBCA" width="180.6" height="8.7"/>
			<rect x="159.7" y="291.4" fill="#CCCBCA" width="180.6" height="8.7"/>
			<rect x="159.7" y="274.1" fill="#CCCBCA" width="180.6" height="8.7"/>
			<rect x="159.7" y="256.7" fill="#4A5158" width="180.6" height="8.7"/>
		</g>
		<g>
			<polygon fill="#FECE67" points="170.3,219.1 173.6,225.8 180.9,226.8 175.6,232 176.9,239.3 170.3,235.9 163.7,239.3 165,232 
				159.7,226.8 167,225.8 			"/>
			<polygon fill="#FECE67" points="197.1,219.1 200.4,225.8 207.7,226.8 202.4,232 203.7,239.3 197.1,235.9 190.5,239.3 191.8,232 
				186.5,226.8 193.8,225.8 			"/>
			<polygon fill="#FECE67" points="223.9,219.1 227.2,225.8 234.5,226.8 229.2,232 230.5,239.3 223.9,235.9 217.4,239.3 218.6,232 
				213.3,226.8 220.6,225.8 			"/>
			<polygon fill="#FECE67" points="250.7,219.1 254,225.8 261.4,226.8 256,232 257.3,239.3 250.7,235.9 244.2,239.3 245.4,232 
				240.1,226.8 247.5,225.8 			"/>
			<polygon fill="#D9D8D7" points="277.5,219.1 280.8,225.8 288.2,226.8 282.9,232 284.1,239.3 277.5,235.9 271,239.3 272.2,232 
				266.9,226.8 274.3,225.8 			"/>
		</g>
		<polygon fill="#EA6653" points="309.4,201.7 309.4,239.3 324.8,223.8 340.3,239.3 340.3,201.7 		"/>
	</g>
</g>
</svg>
