<?xml version="1.0" encoding="utf-8"?>
<!-- Generator: Adobe Illustrator 19.1.0, SVG Export Plug-In . SVG Version: 6.00 Build 0)  -->
<svg version="1.0" id="Layer_1" xmlns="http://www.w3.org/2000/svg" xmlns:xlink="http://www.w3.org/1999/xlink" x="0px" y="0px"
	 viewBox="0 0 500 500" enable-background="new 0 0 500 500" xml:space="preserve">
<g>
	<circle fill="#95D9F1" cx="250" cy="250" r="200"/>
</g>
<g>
	<defs>
		<circle id="SVGID_3_" cx="250" cy="250" r="200"/>
	</defs>
	<clipPath id="SVGID_2_">
		<use xlink:href="#SVGID_3_"  overflow="visible"/>
	</clipPath>
</g>
<g>
	<defs>
		<circle id="SVGID_5_" cx="250" cy="250" r="200"/>
	</defs>
	<clipPath id="SVGID_4_">
		<use xlink:href="#SVGID_5_"  overflow="visible"/>
	</clipPath>
</g>
<g>
	<rect x="141.7" y="263.8" fill-rule="evenodd" clip-rule="evenodd" fill="#3E576F" width="228.8" height="40.9"/>
	<path fill-rule="evenodd" clip-rule="evenodd" fill="#EDF0F1" d="M377.8,277.3h-22.1c-6.1-5.8-14.1-9.6-23.1-9.6
		c-9.1,0-17.3,3.5-23.4,9.3c-6.6,6.2-10.7,15-10.7,24.8c0,1,0.1,1.9,0.1,2.8H214c0.1-0.9,0.1-1.9,0.1-2.8c0-9.8-4.1-18.6-10.7-24.8
		c-6.1-5.8-14.3-9.3-23.4-9.3c-9,0-17.3,3.5-23.4,9.3h-23.4v-14.2h157.9v-68.7c0-6.5,5.3-11.8,11.8-11.8h9.4
		c9.3,0,19.1-0.9,28.1,2.2c9.8,3.4,16.1,9.8,20.7,18.2C368.4,216.3,379.7,261.1,377.8,277.3z"/>
	<path fill-rule="evenodd" clip-rule="evenodd" fill="#2D3F50" d="M291.1,304.7H214v0l0-0.1l0,0v0v-0.1v0l0,0v-0.1l0,0v0l0,0l0,0v0
		v0v0v-0.1v0l0,0V304v0v-0.1l0,0v-0.1v0v-0.1v0l0,0l0,0l0,0v-0.1l0,0v0v-0.1v0v0v-0.1l0,0l0,0l0,0v-0.1v0v0v-0.1l0,0v0l0-0.1v0l0,0
		V303v0v-0.1l0,0v0v-0.1l0,0l0,0v-0.1v0v0v-0.1v0l0,0v-0.1v0l0,0v-0.1v0v-0.1v0v-0.1v0v0v-0.1v0V302v0V302v0v-0.1v-0.1v-0.1v-0.1v0
		v-0.1V301V301l0-0.1v-0.3l0-0.1v0v-0.1l0-0.1V300v0l0-0.3l0-0.1v0v-0.1l0-0.1l0-0.1v-0.1l0-0.1l0-0.3l0-0.1l0-0.1v-0.1l0-0.1v-0.1
		l0,0l0-0.1l0-0.1l0-0.1l0,0l0-0.1l0-0.1l0-0.1l0-0.1l0-0.1l0-0.1l0-0.1l0-0.1v-0.1l0-0.1l0-0.1l0-0.1l0-0.1l0-0.1l0-0.1h0l0-0.1
		l0-0.1l0-0.1l0,0l0-0.1l0-0.1l0-0.1l0-0.1l0-0.1l0-0.1l0-0.1l0-0.1l0-0.1l0-0.1l0-0.1l-0.1-0.3l0-0.1l-0.1-0.3l0-0.1l0-0.1l0,0
		l0-0.1l0-0.1l0-0.1c-1.6-6.2-5-11.8-9.6-16.1c-6.1-5.8-14.3-9.3-23.4-9.3c-9,0-17.3,3.5-23.4,9.3c-6.6,6.2-10.7,15-10.7,24.8
		c0,1,0,1.9,0.1,2.8h-1.1l-1.1,0c-0.4,0-0.7-0.1-1-0.1v0.1h-2.3c-15.6,0-13.2-27.6-8.8-27.6h1.5v-14.2h157.9v30.2h8.4
		c-0.7,2.8-1.1,5.7-1.1,8.8c0,1,0.1,1.9,0.1,2.8H291.1z"/>
	<path fill-rule="evenodd" clip-rule="evenodd" fill="#2D3F50" d="M332.5,274.2c-15.3,0-27.7,12.4-27.7,27.7
		c0,15.3,12.4,27.7,27.7,27.7c15.3,0,27.7-12.4,27.7-27.7C360.2,286.6,347.8,274.2,332.5,274.2z"/>
	<path fill-rule="evenodd" clip-rule="evenodd" fill="#2D3F50" d="M180,274.2c-15.3,0-27.7,12.4-27.7,27.7
		c0,15.3,12.4,27.7,27.7,27.7c15.3,0,27.7-12.4,27.7-27.7C207.7,286.6,195.3,274.2,180,274.2z"/>
	<path fill-rule="evenodd" clip-rule="evenodd" fill="#2A81BA" d="M354,241.8c-10,0-34.5,0-44.6,0c-1.1,0-1.9-0.9-1.9-1.9
		c0-8.7,0-32.7,0-41.5c0-1.1,0.9-1.9,1.9-1.9c2.3,0,15.6-0.1,23.7-0.1c9.7,0,15,5.3,17.4,10.5c3.5,7.5,6.6,17.9,8.5,29.7
		C359.2,237.9,357.9,241.8,354,241.8z"/>
	<path fill-rule="evenodd" clip-rule="evenodd" fill="#EDF0F1" d="M332.5,288.3c-7.5,0-13.6,6.1-13.6,13.5c0,7.5,6.1,13.6,13.6,13.6
		c7.5,0,13.5-6.1,13.5-13.6C346,294.4,340,288.3,332.5,288.3z"/>
	<path fill-rule="evenodd" clip-rule="evenodd" fill="#EDF0F1" d="M180,288.3c-7.5,0-13.5,6.1-13.5,13.5c0,7.5,6.1,13.6,13.5,13.6
		s13.5-6.1,13.5-13.6C193.5,294.4,187.5,288.3,180,288.3z"/>
	<path fill-rule="evenodd" clip-rule="evenodd" fill="#2D3F50" d="M366.2,305h6.1c15.6,0,13.2-27.6,8.8-27.6h-25.5
		c6.6,6.2,10.7,15,10.7,24.8C366.3,303.1,366.3,304,366.2,305z"/>
	<path fill-rule="evenodd" clip-rule="evenodd" fill="#2D3F50" d="M357.8,243.7L357.8,243.7L357.8,243.7L357.8,243.7L357.8,243.7
		v-0.1v-2.7v0v0v0v0v0v-3.3c0-2.4,1.6-4.3,3.6-4.3h0c2,0,3.6,1.9,3.6,4.3v3.3v0v0v0v0v0v2.7v0v0v0v0v0v3.3c0,2.4-1.6,4.3-3.6,4.3
		l0,0c-2,0-3.6-1.9-3.6-4.3V243.7z"/>
	<polygon fill-rule="evenodd" clip-rule="evenodd" fill="#F0C419" points="379.3,273.2 365.1,273.2 365.1,259 378.1,259 	"/>
	<rect x="131.6" y="265.6" fill-rule="evenodd" clip-rule="evenodd" fill="#ED2224" width="7.1" height="8.7"/>
	<path fill-rule="evenodd" clip-rule="evenodd" fill="#DBE1E6" d="M115.6,184.6c0,21.4,0,42.8,0,64.2c0,7.8,6.3,14.1,14.1,14.1
		c44.7,0,98.4,0,143.1,0c7.8,0,14.1-6.3,14.1-14.1c0-21.4,0-42.8,0-64.2c0-7.8-6.3-14.1-14.1-14.1c-44.7,0-98.4,0-143.1,0
		C121.9,170.5,115.6,176.8,115.6,184.6z"/>
</g>
</svg>
