<?xml version="1.0" encoding="utf-8"?>
<!-- Generator: Adobe Illustrator 19.1.0, SVG Export Plug-In . SVG Version: 6.00 Build 0)  -->
<svg version="1.0" id="Layer_1" xmlns="http://www.w3.org/2000/svg" xmlns:xlink="http://www.w3.org/1999/xlink" x="0px" y="0px"
	 viewBox="0 0 500 500" enable-background="new 0 0 500 500" xml:space="preserve">
<g>
	<path fill="#95D9F1" d="M450,250c0,110.5-89.5,200-200,200S50,360.5,50,250c0-110.5,89.5-200,200-200S450,139.5,450,250z"/>
</g>
<g>
	<defs>
		<path id="SVGID_11_" d="M450,250c0,110.5-89.5,200-200,200S50,360.5,50,250c0-110.5,89.5-200,200-200S450,139.5,450,250z"/>
	</defs>
	<clipPath id="SVGID_2_">
		<use xlink:href="#SVGID_11_"  overflow="visible"/>
	</clipPath>
</g>
<g>
	<path fill-rule="evenodd" clip-rule="evenodd" fill="#E8D6AC" d="M323.8,241.2c4.7,10.9,6.8,22.1,8.4,33.8L310,288l-0.8-0.9
		c3.1,4.7,5.1,8.5,5.1,10.5c0,5.5-6.1,8.6-8.1,6.9l0,0c5.9,7.2,2.8,18.2-8,15.8l0,0c2.6,2,1,16.6-11.9,10.3l-3.6-2.4
		c1.5,1.1-1.1,12.3-8.2,9.7c-5.9-2.2-13.2-5.8-21.4-10.3c-0.4,1.6-0.9,3-1.4,4.2c-0.9,2.1-2.1,4-3.5,5.1c-5.4,4.5-11-1.1-14.8-4.8
		c-4.9,2.5-16.7-6.8-14.9-9.7l-1.7-0.7c-0.4,0.6-1,1-1.8,0.9c-4.4-0.3-16.5-7.4-13.9-11.3l1.1-2.6c-0.6,0.9-2.7,0.6-3.7,0.1
		c-1.3-0.6-2.5-1.4-3.5-2.5c-3.8-3.9-2.5-9.7,0.8-13.7c-8-5-15.2-9.6-21-13c1.5-11.3,5.6-18.5,9.5-29.3c3.6-10.1,8.3-19.8,14.2-29
		c30.9-8.8,57.5-1.1,71.3,0.9c11.4-3.9,24.6-7.3,36.5-9.3C313.3,221.7,318.7,231,323.8,241.2z"/>
	<path fill-rule="evenodd" clip-rule="evenodd" fill="#EDF0F1" d="M330.1,280c2,3.9,7.3,5.2,11.2,3.1l11-6.3c4-2.3,6.4-6.3,6.1-10.9
		l-3.2-67.8c-0.2-3.9-2.1-7.2-5.5-9.2c-3.3-2.1-7.1-2.4-10.7-0.8l-30.7,12.9c-1.2,0.5-2.2,1.1-3.1,1.8c-2.7,2.2-3.2,4.8-2.6,7.5
		C317.4,228.3,326,254.4,330.1,280z"/>
	<path fill-rule="evenodd" clip-rule="evenodd" fill="#2D3F50" d="M346.8,275.3c0.5,6.6,7.8,9.5,13.2,7l12.5-6.4
		c4.7-2.4,7.6-6.7,7.6-11.9v-79.6c0-4.4-2-8.2-5.6-10.8c-3.6-2.6-7.9-3.1-12-1.6l-35.2,12.6c-1.4,0.5-2.6,1.1-3.6,1.8
		c-5.2,3.7-3.8,9.5-1,14.2C337.6,222,344.2,252.9,346.8,275.3z"/>
	<path fill-rule="evenodd" clip-rule="evenodd" fill="#EDF0F1" d="M177.9,286.1c-2,3.9-7.3,5.2-11.2,3.1l-11-6.3
		c-4-2.3-6.3-6.3-6.1-10.9l3.2-67.2c0.2-3.9,2.1-7.2,5.4-9.2c3.3-2.1,7.1-2.4,10.7-0.8l30.6,12.9c1.2,0.5,2.2,1.1,3.1,1.8
		c2.7,2.1,3.2,4.8,2.5,7.5C190.6,235.1,182,260.5,177.9,286.1z"/>
	<path fill-rule="evenodd" clip-rule="evenodd" fill="#2D3F50" d="M161.2,281.4c-0.5,6.6-7.8,9.5-13.2,7l-12.5-6.3
		c-4.7-2.4-7.6-6.7-7.6-12v-78.9c0-4.4,2-8.2,5.6-10.8c3.6-2.6,7.9-3.1,12-1.6l35.2,12.6c1.4,0.5,2.6,1.1,3.6,1.8
		c5.2,3.7,3.8,9.5,1,14.2C170.4,228.7,163.8,259.1,161.2,281.4z"/>
	<path fill-rule="evenodd" clip-rule="evenodd" fill="#CCBC97" d="M205.7,286c2.5,0.3,4.6,1.5,6.4,3.2l0,0l0,0
		c0.5,0.5,1.2,1.4,1.6,2.3c3.9-2.8,8.9-2.1,12.7,0.5c1.3,0.9,2.4,2,3.2,3.3c0.8,1.3,1.4,2.9,1.6,4.4c0,0.1,0,0.3,0.1,0.4
		c2-1.1,4.5-1.5,7-1.3c1.5,0.1,3,0.5,4.3,1.1c1.4,0.6,2.6,1.6,3.6,2.8c1.8,2.3,2.3,5.6,0.5,9.8c0.3,0,0.6,0,0.9,0.1
		c1.6,0.2,3.3,0.6,4.7,1.4c0.9,0.5,1.6,1.2,2.1,2c1.2,2.1,1.6,4.8,1.4,7.5c-0.1,1-0.2,2-0.4,2.9c7.5,4.1,14.3,7.4,19.7,9.4
		c1.3,0.5,2.3,0.2,3.1-0.4c0.6-0.5,1.1-1.2,1.6-2c0.4-0.8,0.7-1.8,0.9-2.6c0.1-0.7,0.8-0.7,0.6-0.9l-23.9-15.8
		c-2.1-1.4,0.3-4.9,2.3-3.6l23.9,15.8l0,0l3.4,2.3c3.2,1.5,5.4,1.6,6.8,0.8l0.1-0.1c0.7-0.4,1.3-1,1.8-1.7c0.5-0.8,0.8-1.7,0.9-2.6
		c0.3-1.6,0.2-3-0.1-3.2l0,0l-36.4-28.1c-1.9-1.5,0.7-4.9,2.6-3.4l36.1,27.8c1.9,0.4,3.5,0.2,4.7-0.3c1.1-0.5,2-1.3,2.5-2.3
		c0.6-1.1,0.8-2.4,0.8-3.8c-0.1-2-0.9-4.1-2.4-5.9l-31.8-27.3c-1.9-1.6,0.9-4.9,2.8-3.2l31.9,27.4c0.7,0.5,2.9-1.3,3.3-1.9
		c0.8-0.9,1.3-2,1.3-3.4c0-3-5.3-10-7.5-13.2c-0.9-1.2-1.8-2.6-2.9-4.1c-1-1.3-2-2.7-3.1-4c-6.1-7.9-13.2-16.2-18.7-22.1
		c-5-4.4-10-7.3-14.1-6.8c-5.2,0.7-11.3,2.2-17.2,3.7l-0.1,0c-5.6,1.4-15.7,3.5-21.6,2.7c-1.7-0.2-3.1-0.8-4.2-1.6h0
		c-1.5-1.2-2.4-2.9-2.1-4.9c0.1-1.1,0.6-2.2,1.5-3.4c1-1.4,2.8-2.9,5.4-4.7c7.3-4.9,17-9.3,25.1-12.8c2.8-1.2,5.5-2.3,8.3-3.4
		c-11.7-1.7-22.8-3.9-34.8-3.6c-8.1,0.2-16.3,1.3-25,2.9c1.2-1.7,2.4-3.4,3.7-5c7.3-1.2,14.2-2,21.2-2.2c13.9-0.3,29.4,2.8,43.4,4.8
		c5.8-2,11.9-3.8,18.2-5.4c4.7-1.2,10.6-2.7,15.8-3.7c1,1.2,1.9,2.5,2.8,3.8c-5.3,1-12.3,2.8-17.6,4.1c-6.3,1.6-12.6,3.5-18.3,5.4
		c-5.4,1.8-10.7,3.9-16,6.2c-7.9,3.4-17.3,7.6-24.4,12.4c-2.2,1.5-3.6,2.7-4.4,3.7c-1.5,2.1-0.2,2.7,2,3.1c5.3,0.8,15.2-1.4,20-2.6
		l0.1,0c5.9-1.5,12.2-3.1,17.7-3.7c14.4-1.8,33.7,25.7,42.8,38.7c0.9,1.3,1.6,2.4,2.3,3.3l18.7-11c0.3,1.5,0.6,3,0.8,4.5l-17.2,10.1
		c2.3,3.8,3.7,6.9,3.7,8.7c0,2.5-1,4.6-2.3,6.2c-0.9,1-1.9,1.8-3,2.4c-0.4,0.2-0.7,0.3-1.1,0.5c0.7,1.6,1.2,3.4,1.3,5
		c0.1,2.2-0.3,4.3-1.3,6.1c-1,1.9-2.5,3.4-4.6,4.2c-1.2,0.5-2.6,0.8-4.2,0.8c0.1,1,0.1,2.1-0.1,3.2c-0.2,1.4-0.7,2.8-1.5,4.1
		c-0.8,1.3-1.9,2.5-3.4,3.3l-0.1,0.1c-2.6,1.3-6.1,1.4-10.8-0.8c-0.1-0.1-0.2-0.1-0.3-0.2l-0.1-0.1c-0.2,1-0.6,2.1-1.2,3.2
		c-0.7,1.3-1.5,2.5-2.7,3.4c-1.9,1.5-4.3,2.2-7.3,1.1c-5.4-2-12-5.2-19.3-9.2c-0.2,0.7-0.5,1.3-0.7,1.9c-0.5,1.2-1.2,2.3-1.8,3.3
		c-0.7,1-1.5,1.9-2.3,2.6c-2.2,1.8-4.6,2.3-7,2h0l0,0c-2.7-0.4-5.3-1.9-7.4-3.7l0,0c-0.8-0.7-1.3-1.5-1.5-2.5
		c-2.8,0.9-6.5-0.2-9.7-2.1c-1.5-0.9-3-2-4.2-3.1c-1.3-1.2-2.3-2.5-2.9-3.6c-0.1-0.3-0.3-0.6-0.4-0.9c-0.5,0.1-1,0.2-1.5,0.2h0
		c-2.4-0.2-6.6-1.9-10-4.2c-1.6-1.1-3.1-2.3-4.2-3.6c-1.3-1.5-2.1-3.1-2-4.7c0-0.4,0.1-0.7,0.2-1.1c-0.5-0.1-0.9-0.3-1.3-0.4
		c-0.7-0.3-1.5-0.7-2.2-1.2v0c-0.7-0.5-1.4-1-2-1.7c-2.5-2.5-3.2-5.6-2.8-8.8c0.2-1.7,0.8-3.4,1.6-4.9l0,0v0
		c0.2-0.3,0.3-0.6,0.5-0.9c-5.2-3.3-10.1-6.4-14.4-9c0.2-1.5,0.5-3,0.8-4.5c4.8,2.9,10.4,6.4,16.3,10.2
		C198.2,287.2,201.9,285.5,205.7,286L205.7,286z M247.2,316.9c-0.7-0.1-1.2-0.1-1.5,0c-0.4,0.7-1,1.6-1.6,2.7c-3,4.7-8,12.6-6.3,14
		l0.1,0.1c1.6,1.3,3.4,2.5,5.2,2.7l0,0c1.2,0.2,2.5-0.1,3.6-1c0.5-0.4,1-1,1.5-1.7c0.5-0.8,1-1.6,1.4-2.6c0.9-2,1.7-4.8,1.8-7.6
		c0.1-2-0.1-3.8-0.8-5.1c-0.1-0.1-0.3-0.3-0.6-0.5C249.3,317.2,248.2,317,247.2,316.9L247.2,316.9z M235,325.1
		c2.9-4.8,6.2-10.3,7.7-13.9l0.1-0.2c1.2-2.6,1-4.4,0.1-5.7c-0.5-0.6-1.2-1.1-2-1.5c-0.9-0.4-1.9-0.7-2.9-0.7
		c-2.4-0.2-4.8,0.4-5.6,1.8l-0.1,0.1c-1.5,2.3-12,17.9-11.7,18.5c0.4,0.7,1.1,1.5,2,2.4c1,0.9,2.2,1.9,3.5,2.6
		c2.2,1.3,4.4,2.2,5.8,1.9C232.7,328.9,233.8,327,235,325.1L235,325.1z M205.5,308.5c-1,1.5-1.9,2.9-2.7,4c0,0.4,0.3,0.9,0.9,1.6
		c0.8,0.9,2,1.9,3.4,2.8c2.8,1.9,6.1,3.3,7.8,3.5c0.2-0.2,0.3-0.4,0.5-0.5c0-0.1,0.1-0.1,0.1-0.2c0.1-0.1,0.1-0.2,0.2-0.3
		c0.5-0.6,1.2-1.5,1.8-2.3c3.6-4.6,10.1-13.4,9.5-16.8c-0.8-4.9-6.9-8.3-10.9-5.4C212.7,297.5,208.7,303.5,205.5,308.5L205.5,308.5z
		 M206.2,290.4c-0.4-0.1-0.7-0.2-1.1-0.2c-2.4-0.3-4.9,0.9-6.9,2.8c-0.9,0.9-1.7,2-2.3,3.1l0,0c-0.6,1.1-1,2.3-1.2,3.5
		c-0.2,1.9,0.2,3.8,1.6,5.3c0.4,0.4,0.8,0.8,1.3,1.1l0,0l0,0c0.5,0.3,1,0.6,1.6,0.9c0.3,0.1,0.8,0.2,1.2,0.2l9.3-13.8
		c-0.2-0.4-0.5-0.8-0.7-1l0,0c-0.3-0.3-0.6-0.5-0.9-0.8c-0.3-0.2-0.7-0.4-1-0.6l0,0C206.9,290.7,206.5,290.5,206.2,290.4z"/>
</g>
</svg>
