<?xml version="1.0" encoding="utf-8"?>
<!-- Generator: Adobe Illustrator 17.0.0, SVG Export Plug-In . SVG Version: 6.00 Build 0)  -->
<!DOCTYPE svg PUBLIC "-//W3C//DTD SVG 1.1//EN" "http://www.w3.org/Graphics/SVG/1.1/DTD/svg11.dtd">
<svg version="1.1" id="Layer_1" xmlns="http://www.w3.org/2000/svg" xmlns:xlink="http://www.w3.org/1999/xlink" x="0px" y="0px"
	 width="44px" height="22px" viewBox="0 0 44 22" enable-background="new 0 0 44 22" xml:space="preserve">
<g>
	<g>
		<g>
			<path fill="#787E7F" d="M24.318,0c-2.816,0-4.86,2.59-4.86,6.159c0,1.705,0.718,3.52,1.969,4.979l0.385,0.449l-0.565,0.176
				c-1.393,0.434-2.892,1.141-4.455,2.102c-1.735,1.068-3.707,2.599-3.75,3.051v1.941c0,0.536,0.436,0.972,0.972,0.972h20.411
				c0.536,0,0.972-0.436,0.972-0.972v-1.944c-0.12-0.605-3.922-3.651-8.114-5.042l-0.56-0.186l0.391-0.441
				c1.311-1.477,2.062-3.33,2.062-5.084C29.177,2.59,27.134,0,24.318,0z"/>
			<path fill="#787E7F" d="M36.422,11.919c0.914-1.03,1.671-2.505,1.671-4.132c0-2.935-1.708-5.065-4.06-5.065
				c-1.314,0-2.413,0.681-3.139,1.78c0.083,0.531,0.127,1.084,0.127,1.658c0,1.152-0.258,2.331-0.73,3.453
				c0.268,0.782,0.683,1.485,1.157,2.07c1.043,0.557,1.896,1.099,2.456,1.479c3.039,2.063,3.224,2.995,3.303,3.392
				c0.023,0.118,0.035,0.238,0.035,0.358v1.75h4.612c0.58,0,1.053-0.472,1.053-1.053v-1.504
				C42.905,15.441,39.584,12.968,36.422,11.919z"/>
		</g>
	</g>
	<path fill="#787E7F" d="M11.201,16.914c0-0.057,0.003-0.114,0.008-0.171c0.044-0.466,0.159-1.705,4.619-4.449
		c0.51-0.313,1.014-0.601,1.512-0.865c0.403-0.544,0.751-1.176,0.982-1.868c-0.459-1.109-0.707-2.272-0.707-3.403
		c0-0.553,0.043-1.087,0.12-1.601c-0.725-1.133-1.839-1.837-3.176-1.837c-2.353,0-4.06,2.13-4.06,5.065
		c0,1.583,0.716,3.022,1.596,4.047c-1.308,0.407-2.556,1.068-3.514,1.657c-0.031,0.019-3.044,1.891-3.044,2.614v1.504
		c0,0.58,0.472,1.053,1.053,1.053h4.611V16.914z"/>
</g>
<g>
	<path fill="#FFFFFF" d="M9.476,9.565c-4.771,0-8.386,4.603-8.537,4.799l-0.464,0.6L0,15.576l0.474,0.612l0.465,0.6
		c0.151,0.195,3.767,4.798,8.537,4.798c4.773,0,8.386-4.603,8.538-4.799l0.464-0.599l0.474-0.612l-0.474-0.612l-0.465-0.6
		C17.863,14.168,14.25,9.565,9.476,9.565L9.476,9.565z"/>
</g>
<g>
	<g>
		<g>
			<path fill="#4C5355" d="M9.476,20.587c-4.282,0-7.607-4.23-7.746-4.411l-0.465-0.6l0.465-0.6c0.139-0.18,3.465-4.411,7.746-4.411
				s7.607,4.23,7.746,4.411l0.465,0.6l-0.465,0.6C17.083,16.356,13.758,20.587,9.476,20.587z M3.806,15.574
				c0.977,1.036,3.195,3.051,5.67,3.051c2.485,0,4.696-2.012,5.67-3.049c-0.977-1.036-3.195-3.051-5.67-3.051
				C6.991,12.526,4.78,14.538,3.806,15.574z"/>
		</g>
	</g>
	<circle fill="#62B850" cx="9.476" cy="15.685" r="2.179"/>
</g>
</svg>
