<?xml version="1.0" encoding="UTF-8" standalone="no"?>
<svg
	xmlns:dc="http://purl.org/dc/elements/1.1/"
	xmlns:cc="http://creativecommons.org/ns#"
	xmlns:rdf="http://www.w3.org/1999/02/22-rdf-syntax-ns#"
	xmlns:svg="http://www.w3.org/2000/svg"
	xmlns="http://www.w3.org/2000/svg"
	version="1.1"
	id="svg2"
	xml:space="preserve"
	width="665.53973"
	height="145.664"
	viewBox="0 0 665.53973 145.664">
	<metadata id="metadata8">
		<rdf:RDF>
			<cc:Work rdf:about="">
				<dc:format>image/svg+xml</dc:format><dc:type rdf:resource="http://purl.org/dc/dcmitype/StillImage"/>
				<dc:title></dc:title>
			</cc:Work>
		</rdf:RDF>
	</metadata>
	<defs id="defs6">
		<clipPath clipPathUnits="userSpaceOnUse" id="clipPath18"><path d="M 0,612 792,612 792,0 0,0 Z" id="path16"/></clipPath>
	</defs>
	<g id="g10" transform="matrix(1.3333333,0,0,-1.3333333,-201.91413,504.04199)">
		<g id="g12">
			<g id="g14" clip-path="url(#clipPath18)">
				<g id="g20" transform="translate(368.8706,288.5782)"><path
					d="M 0,0 C 0,-1.625 0.05,-3.147 0.152,-4.568 0.253,-5.989 0.304,-7.283 0.304,-8.45 l -5.633,0 c 0,0.964 -0.026,1.928 -0.076,2.893 -0.051,0.963 -0.076,1.953 -0.076,2.969 l -0.152,0 c -0.408,-0.864 -0.978,-1.701 -1.713,-2.512 -0.737,-0.813 -1.612,-1.536 -2.627,-2.17 -1.016,-0.635 -2.157,-1.142 -3.425,-1.523 -1.27,-0.38 -2.64,-0.571 -4.111,-0.571 -2.335,0 -4.353,0.356 -6.053,1.066 -1.7,0.71 -3.109,1.7 -4.225,2.969 -1.116,1.268 -1.941,2.804 -2.474,4.606 -0.533,1.801 -0.799,3.768 -0.799,5.9 l 0,22 5.938,0 0,-21.391 c 0,-2.995 0.659,-5.355 1.979,-7.08 1.319,-1.726 3.375,-2.588 6.166,-2.588 1.929,0 3.59,0.329 4.987,0.989 1.395,0.659 2.537,1.599 3.426,2.817 0.887,1.218 1.547,2.664 1.979,4.339 0.431,1.675 0.647,3.527 0.647,5.558 l 0,17.356 5.938,0 z"
					style="fill:#4d4d4d;fill-opacity:1;fill-rule:nonzero;stroke:none"
					id="path22"/></g><path d="m 375.189,315.756 5.938,0 0,-35.627 -5.938,0 z" style="fill:#4d4d4d;fill-opacity:1;fill-rule:nonzero;stroke:none" id="path24"/>
				<g id="g26" transform="translate(413.709,306.8489)"><path
					d="m 0,0 c -1.269,1.522 -2.639,2.626 -4.11,3.311 -1.473,0.686 -3.097,1.028 -4.872,1.028 -1.98,0 -3.731,-0.342 -5.253,-1.028 -1.523,-0.685 -2.779,-1.636 -3.769,-2.854 -0.989,-1.218 -1.739,-2.627 -2.245,-4.225 -0.509,-1.599 -0.762,-3.312 -0.762,-5.139 0,-1.827 0.291,-3.54 0.875,-5.139 0.583,-1.598 1.396,-3.007 2.437,-4.225 1.04,-1.218 2.296,-2.169 3.768,-2.854 1.471,-0.686 3.121,-1.028 4.949,-1.028 3.907,0 6.927,1.471 9.058,4.415 l 4.416,-4.187 c -1.726,-1.979 -3.757,-3.425 -6.091,-4.339 -2.335,-0.914 -4.796,-1.37 -7.383,-1.37 -2.742,0 -5.253,0.456 -7.538,1.37 -2.283,0.914 -4.224,2.208 -5.823,3.882 -1.598,1.675 -2.844,3.655 -3.73,5.938 -0.889,2.284 -1.332,4.796 -1.332,7.537 0,2.689 0.443,5.177 1.332,7.46 0.886,2.284 2.143,4.264 3.768,5.938 1.623,1.675 3.565,2.981 5.823,3.921 2.258,0.938 4.758,1.408 7.5,1.408 2.637,0 5.138,-0.457 7.498,-1.37 2.36,-0.913 4.427,-2.335 6.205,-4.263 z"
					style="fill:#4d4d4d;fill-opacity:1;fill-rule:nonzero;stroke:none"
					id="path28"/></g>
				<g id="g30" transform="translate(462.2012,286.0659)"><path
					d="m 0,0 10.81,0 c 1.573,0 3.133,0.164 4.682,0.495 1.547,0.33 2.942,0.862 4.187,1.599 1.243,0.735 2.246,1.7 3.006,2.893 0.762,1.191 1.143,2.651 1.143,4.377 0,1.877 -0.369,3.451 -1.104,4.72 -0.737,1.268 -1.701,2.284 -2.893,3.045 -1.193,0.761 -2.563,1.294 -4.11,1.598 -1.549,0.305 -3.135,0.457 -4.758,0.457 L 0,19.184 Z m 0,25.122 8.831,0 c 1.522,0 3.007,0.101 4.453,0.305 1.446,0.202 2.753,0.621 3.921,1.256 1.167,0.634 2.105,1.522 2.816,2.664 0.71,1.142 1.066,2.652 1.066,4.53 0,1.675 -0.33,3.032 -0.989,4.073 -0.661,1.039 -1.536,1.865 -2.626,2.474 -1.093,0.609 -2.335,1.027 -3.731,1.256 -1.396,0.228 -2.805,0.343 -4.225,0.343 l -9.516,0 z m -6.395,22.838 16.444,0 c 2.232,0 4.415,-0.228 6.547,-0.685 2.131,-0.457 4.035,-1.206 5.71,-2.246 1.674,-1.04 3.031,-2.398 4.072,-4.072 1.04,-1.675 1.56,-3.757 1.56,-6.243 0,-3.147 -0.85,-5.747 -2.549,-7.803 -1.702,-2.055 -3.997,-3.515 -6.89,-4.377 l 0,-0.152 c 1.725,-0.153 3.337,-0.598 4.834,-1.333 1.496,-0.736 2.791,-1.687 3.883,-2.854 1.091,-1.168 1.941,-2.526 2.55,-4.073 0.609,-1.549 0.914,-3.211 0.914,-4.987 0,-2.995 -0.622,-5.456 -1.866,-7.384 -1.244,-1.929 -2.868,-3.464 -4.872,-4.606 -2.006,-1.141 -4.263,-1.941 -6.775,-2.397 -2.513,-0.457 -5.013,-0.686 -7.499,-0.686 l -16.063,0 z"
					style="fill:#4d4d4d;fill-opacity:1;fill-rule:nonzero;stroke:none"
					id="path32"/></g>
				<g id="g34" transform="translate(502.0146,297.9419)"><path
					d="m 0,0 c 0,-1.878 0.291,-3.616 0.875,-5.215 0.583,-1.598 1.434,-2.995 2.551,-4.187 1.115,-1.193 2.448,-2.131 3.997,-2.816 1.547,-0.686 3.285,-1.028 5.214,-1.028 1.928,0 3.666,0.342 5.215,1.028 1.547,0.685 2.88,1.623 3.997,2.816 1.115,1.192 1.966,2.589 2.549,4.187 0.584,1.599 0.876,3.337 0.876,5.215 0,1.877 -0.292,3.616 -0.876,5.215 -0.583,1.598 -1.434,2.994 -2.549,4.187 -1.117,1.192 -2.45,2.131 -3.997,2.817 -1.549,0.685 -3.287,1.027 -5.215,1.027 -1.929,0 -3.667,-0.342 -5.214,-1.027 C 5.874,11.533 4.541,10.594 3.426,9.402 2.309,8.209 1.458,6.813 0.875,5.215 0.291,3.616 0,1.877 0,0 m -6.395,0 c 0,2.79 0.482,5.329 1.447,7.613 0.964,2.284 2.284,4.25 3.959,5.9 1.675,1.648 3.679,2.931 6.014,3.844 2.333,0.914 4.872,1.37 7.612,1.37 2.741,0 5.278,-0.456 7.613,-1.37 2.334,-0.913 4.339,-2.196 6.014,-3.844 1.674,-1.65 2.994,-3.616 3.959,-5.9 C 31.186,5.329 31.669,2.79 31.669,0 c 0,-2.792 -0.483,-5.329 -1.446,-7.613 -0.965,-2.283 -2.285,-4.251 -3.959,-5.9 -1.675,-1.649 -3.68,-2.93 -6.014,-3.844 -2.335,-0.914 -4.872,-1.37 -7.613,-1.37 -2.74,0 -5.279,0.456 -7.612,1.37 -2.335,0.914 -4.339,2.195 -6.014,3.844 -1.675,1.649 -2.995,3.617 -3.959,5.9 -0.965,2.284 -1.447,4.821 -1.447,7.613"
					style="fill:#4d4d4d;fill-opacity:1;fill-rule:nonzero;stroke:none"
					id="path36"/></g>
				<g id="g38" transform="translate(542.8936,297.9419)"><path
					d="m 0,0 c 0,-1.878 0.291,-3.616 0.875,-5.215 0.583,-1.598 1.433,-2.995 2.551,-4.187 1.115,-1.193 2.448,-2.131 3.997,-2.816 1.547,-0.686 3.285,-1.028 5.214,-1.028 1.928,0 3.666,0.342 5.214,1.028 1.548,0.685 2.88,1.623 3.998,2.816 1.115,1.192 1.965,2.589 2.549,4.187 0.583,1.599 0.876,3.337 0.876,5.215 0,1.877 -0.293,3.616 -0.876,5.215 -0.584,1.598 -1.434,2.994 -2.549,4.187 -1.118,1.192 -2.45,2.131 -3.998,2.817 -1.548,0.685 -3.286,1.027 -5.214,1.027 -1.929,0 -3.667,-0.342 -5.214,-1.027 C 5.874,11.533 4.541,10.594 3.426,9.402 2.308,8.209 1.458,6.813 0.875,5.215 0.291,3.616 0,1.877 0,0 m -6.395,0 c 0,2.79 0.482,5.329 1.447,7.613 0.964,2.284 2.284,4.25 3.959,5.9 1.674,1.648 3.678,2.931 6.013,3.844 2.334,0.914 4.872,1.37 7.613,1.37 2.741,0 5.278,-0.456 7.613,-1.37 2.334,-0.913 4.339,-2.196 6.014,-3.844 1.674,-1.65 2.994,-3.616 3.959,-5.9 C 31.185,5.329 31.669,2.79 31.669,0 c 0,-2.792 -0.484,-5.329 -1.446,-7.613 -0.965,-2.283 -2.285,-4.251 -3.959,-5.9 -1.675,-1.649 -3.68,-2.93 -6.014,-3.844 -2.335,-0.914 -4.872,-1.37 -7.613,-1.37 -2.741,0 -5.279,0.456 -7.613,1.37 -2.335,0.914 -4.339,2.195 -6.013,3.844 -1.675,1.649 -2.995,3.617 -3.959,5.9 -0.965,2.284 -1.447,4.821 -1.447,7.613"
					style="fill:#4d4d4d;fill-opacity:1;fill-rule:nonzero;stroke:none"
					id="path40"/></g>
				<g id="g42" transform="translate(612.3213,289.4918)"><path
					d="m 0,0 c 1.167,-1.473 2.448,-2.639 3.845,-3.502 1.395,-0.863 3.159,-1.294 5.291,-1.294 0.913,0 1.839,0.101 2.778,0.305 0.938,0.202 1.789,0.532 2.55,0.989 0.762,0.457 1.371,1.028 1.827,1.713 0.457,0.685 0.686,1.51 0.686,2.474 0,0.964 -0.217,1.751 -0.648,2.36 -0.431,0.609 -1.002,1.129 -1.713,1.561 -0.711,0.43 -1.522,0.773 -2.435,1.027 C 11.267,5.887 10.327,6.115 9.364,6.319 7.689,6.673 6.09,7.08 4.567,7.537 3.045,7.993 1.713,8.589 0.571,9.326 c -1.142,0.735 -2.055,1.686 -2.741,2.854 -0.684,1.167 -1.027,2.665 -1.027,4.492 0,1.725 0.381,3.247 1.141,4.568 0.762,1.319 1.777,2.409 3.046,3.273 1.268,0.862 2.69,1.523 4.263,1.979 1.572,0.457 3.197,0.685 4.872,0.685 2.537,0 4.884,-0.507 7.042,-1.522 2.156,-1.016 3.845,-2.665 5.062,-4.948 l -4.948,-3.274 c -0.762,1.268 -1.764,2.296 -3.007,3.083 -1.245,0.787 -2.753,1.18 -4.53,1.18 -0.812,0 -1.637,-0.102 -2.473,-0.304 C 6.433,21.188 5.684,20.884 5.024,20.478 4.364,20.071 3.818,19.552 3.388,18.918 2.956,18.282 2.741,17.559 2.741,16.748 c 0,-0.761 0.24,-1.408 0.723,-1.941 0.481,-0.533 1.141,-1.003 1.979,-1.409 0.837,-0.406 1.801,-0.761 2.893,-1.065 1.091,-0.305 2.22,-0.559 3.388,-0.762 1.572,-0.304 3.07,-0.698 4.491,-1.179 1.421,-0.483 2.665,-1.131 3.73,-1.942 1.067,-0.812 1.904,-1.827 2.513,-3.045 0.608,-1.218 0.913,-2.715 0.913,-4.491 0,-2.031 -0.406,-3.757 -1.218,-5.177 -0.812,-1.421 -1.891,-2.577 -3.235,-3.464 -1.346,-0.888 -2.868,-1.536 -4.567,-1.941 -1.702,-0.406 -3.44,-0.609 -5.215,-0.609 -3.046,0 -5.672,0.47 -7.88,1.408 -2.207,0.939 -4.199,2.676 -5.976,5.215 z"
					style="fill:#4d4d4d;fill-opacity:1;fill-rule:nonzero;stroke:none"
					id="path44"/></g>
				<g id="g46" transform="translate(435.3291,299.5406)"><path d="m 0,0 17.204,16.215 -8.45,0 -16.215,-15.682 0,33.926 -5.937,0 0,-53.871 5.937,0 0,18.727 17.661,-18.727 8.755,0 z" style="fill:#4d4d4d;fill-opacity:1;fill-rule:nonzero;stroke:none" id="path48"/></g>
				<g id="g50" transform="translate(591.082,299.5406)"><path d="m 0,0 17.204,16.215 -8.45,0 -16.215,-15.682 0,33.926 -5.937,0 0,-53.871 5.937,0 0,18.727 17.661,-18.727 8.755,0 z" style="fill:#4d4d4d;fill-opacity:1;fill-rule:nonzero;stroke:none" id="path52"/></g>
				<g id="g54" transform="translate(304.543,286.0659)"><path
					d="m 0,0 c -2.995,0 -5.761,0.558 -8.298,1.675 -2.538,1.116 -4.733,2.651 -6.585,4.606 -1.853,1.953 -3.311,4.25 -4.377,6.889 -1.066,2.639 -1.599,5.481 -1.599,8.526 0,2.994 0.52,5.811 1.561,8.451 1.04,2.638 2.486,4.935 4.339,6.889 1.852,1.953 4.047,3.502 6.585,4.644 2.537,1.142 5.329,1.713 8.374,1.713 3.045,0 5.836,-0.571 8.374,-1.713 2.537,-1.142 4.732,-2.691 6.585,-4.644 1.852,-1.954 3.299,-4.251 4.339,-6.889 1.04,-2.64 1.561,-5.457 1.561,-8.451 0,-3.045 -0.533,-5.887 -1.599,-8.526 C 18.194,10.531 16.735,8.234 14.883,6.281 13.03,4.326 10.822,2.791 8.26,1.675 5.697,0.558 2.943,0 0,0 m 14.617,-0.456 0,0.152 c 2.029,0.862 3.844,2.067 5.442,3.616 1.599,1.547 2.97,3.298 4.111,5.253 1.142,1.953 2.018,4.059 2.627,6.318 0.609,2.258 0.913,4.53 0.913,6.813 0,3.908 -0.711,7.549 -2.131,10.925 -1.422,3.374 -3.363,6.292 -5.824,8.754 -2.462,2.461 -5.38,4.403 -8.755,5.824 -3.375,1.42 -7.041,2.132 -11,2.132 -3.958,0 -7.626,-0.712 -11,-2.132 -3.376,-1.421 -6.294,-3.363 -8.755,-5.824 -2.462,-2.462 -4.403,-5.38 -5.824,-8.754 -1.421,-3.376 -2.131,-7.017 -2.131,-10.925 0,-3.908 0.71,-7.549 2.131,-10.924 1.421,-3.375 3.362,-6.293 5.824,-8.754 2.461,-2.463 5.379,-4.404 8.755,-5.824 3.374,-1.421 7.042,-2.132 11,-2.132 l 28.353,0 0,5.482 z"
					style="fill:#4d4d4d;fill-opacity:1;fill-rule:nonzero;stroke:none"
					id="path56"/></g>
				<g id="g58" transform="translate(352.8452,345.1875)"><path
					d="M 0,0 -2.943,0 C -3.545,0 -3.999,0.319 -4.046,0.91 L -4.1,2.068 c -2.112,-1.701 -4.637,-2.625 -7.308,-2.625 -5.142,0 -7.261,3.27 -7.261,8.229 l 0,13.596 c 0,0.784 0.461,1.061 1.197,1.061 l 3.216,0 c 0.743,0 1.153,-0.228 1.153,-1.061 l 0,-12.625 c 0,-2.534 0.646,-4.278 3.404,-4.278 1.748,0 3.952,0.969 5.33,2.203 l 0,14.7 c 0,0.784 0.414,1.061 1.15,1.061 l 3.263,0 c 0.729,0 1.143,-0.228 1.143,-1.061 l 0,-19.982 C 1.187,0.319 0.921,0 0,0"
					style="fill:#365ebf;fill-opacity:1;fill-rule:nonzero;stroke:none"
					id="path60"/></g>
				<g id="g62" transform="translate(278.0347,366.5957)"><path
					d="m 0,0 c 0,0.558 0.272,0.921 0.828,0.921 l 3.887,0 C 5.271,0.921 5.59,0.6 5.59,0 l 0,-20.265 c 0,-0.825 -0.363,-1.143 -1.147,-1.143 l -3.246,0 C 0.367,-21.408 0,-21.09 0,-20.265 Z"
					style="fill:#365ebf;fill-opacity:1;fill-rule:nonzero;stroke:none"
					id="path64"/></g>
				<g id="g66" transform="translate(359.79,366.5957)"><path
					d="m 0,0 c 0,0.558 0.276,0.921 0.828,0.921 l 3.887,0 C 5.264,0.921 5.586,0.6 5.586,0 l 0,-20.265 c 0,-0.825 -0.363,-1.143 -1.153,-1.143 l -3.236,0 C 0.37,-21.408 0,-21.09 0,-20.265 Z"
					style="fill:#365ebf;fill-opacity:1;fill-rule:nonzero;stroke:none"
					id="path68"/></g>
				<g id="g70" transform="translate(308.2563,345.1875)"><path
					d="m 0,0 -3.303,0 c -0.83,0 -1.106,0.411 -1.106,1.194 l 0,12.503 c 0,2.524 -0.683,4.325 -3.491,4.325 -1.789,0 -3.992,-0.97 -5.428,-2.211 l 0,-14.668 C -13.328,0.367 -13.645,0 -14.428,0 l -3.353,0 c -0.697,0 -1.107,0.367 -1.107,1.101 l 0,20.074 c 0,0.735 0.327,1.149 1.147,1.149 l 2.997,0 c 0.639,0 1.056,-0.186 1.099,-0.874 l 0.034,-1.228 c 2.122,1.697 4.789,2.674 7.46,2.674 5.149,0 7.261,-3.226 7.261,-8.237 l 0,-13.465 C 1.11,0.411 0.837,0 0,0"
					style="fill:#365ebf;fill-opacity:1;fill-rule:nonzero;stroke:none"
					id="path72"/></g>
				<g id="g74" transform="translate(324.6484,373.7921)"><path d="M 0,0 C 0,1.855 -1.514,3.372 -3.367,3.372 -5.24,3.372 -6.743,1.855 -6.743,0 c 0,-1.864 1.503,-3.372 3.376,-3.372 C -1.514,-3.372 0,-1.864 0,0" style="fill:#365ebf;fill-opacity:1;fill-rule:nonzero;stroke:none" id="path76"/></g>
				<g id="g78" transform="translate(329.4443,367.5166)"><path
					d="m 0,0 c 0.545,0 0.871,-0.181 0.871,-0.786 l 0,-3.232 c 0,-0.554 -0.36,-0.878 -0.915,-0.878 l -5.327,0 -0.007,-16.29 c 0,-0.824 -0.356,-1.143 -1.194,-1.143 l -3.191,0 c -0.834,0 -1.201,0.319 -1.201,1.143 l 0,16.29 -5.328,0 c -0.551,0 -0.917,0.324 -0.917,0.878 l 0,3.232 c 0,0.605 0.319,0.786 0.867,0.786 z"
					style="fill:#365ebf;fill-opacity:1;fill-rule:nonzero;stroke:none"
					id="path80"/></g>
				<g id="g82" transform="translate(381.6914,373.7921)"><path d="m 0,0 c 0,1.855 -1.51,3.372 -3.373,3.372 -1.864,0 -3.374,-1.517 -3.374,-3.372 0,-1.864 1.51,-3.372 3.374,-3.372 C -1.51,-3.372 0,-1.864 0,0" style="fill:#365ebf;fill-opacity:1;fill-rule:nonzero;stroke:none" id="path84"/></g>
				<g id="g86" transform="translate(386.4868,367.5166)"><path
					d="m 0,0 c 0.552,0 0.875,-0.181 0.875,-0.786 l 0,-3.232 c 0,-0.554 -0.367,-0.878 -0.915,-0.878 l -5.337,0 0,-16.29 c 0,-0.824 -0.367,-1.143 -1.191,-1.143 l -3.202,0 c -0.827,0 -1.194,0.319 -1.194,1.143 l 0,16.29 -5.327,0 c -0.555,0 -0.915,0.324 -0.915,0.878 l 0,3.232 c 0,0.605 0.316,0.786 0.868,0.786 z"
					style="fill:#365ebf;fill-opacity:1;fill-rule:nonzero;stroke:none"
					id="path88"/></g>
				<g id="g90" transform="translate(260.6826,323.4075)"><path d="m 0,0 c 0,-30.168 -24.455,-54.624 -54.623,-54.624 -30.168,0 -54.624,24.456 -54.624,54.624 0,30.168 24.456,54.624 54.624,54.624 C -24.455,54.624 0,30.168 0,0" style="fill:#2ca01c;fill-opacity:1;fill-rule:nonzero;stroke:none" id="path92"/></g>
				<g id="g94" transform="translate(203.5879,291.1692)"><path
					d="m 0,0 -7.643,0 0,46.391 -6.836,0 c -7.782,0 -14.113,-6.331 -14.113,-14.113 0,-7.783 6.331,-14.114 14.113,-14.114 l 1.991,0 0,-7.642 -1.991,0 c -11.997,0 -21.756,9.759 -21.756,21.756 0,11.996 9.759,21.756 21.756,21.756 l 14.479,0 z"
					style="fill:#ffffff;fill-opacity:1;fill-rule:nonzero;stroke:none"
					id="path96"/></g>
				<g id="g98" transform="translate(222.9277,301.6909)"><path
					d="m 0,0 -14.479,0 0,54.034 7.643,0 0,-46.391 6.836,0 c 7.782,0 14.113,6.331 14.113,14.113 0,7.782 -6.331,14.113 -14.113,14.113 l -1.991,0 0,7.643 1.991,0 c 11.997,0 21.756,-9.759 21.756,-21.756 C 21.756,9.76 11.997,0 0,0"
					style="fill:#ffffff;fill-opacity:1;fill-rule:nonzero;stroke:none"
					id="path100"/></g>
				<g id="g102" transform="translate(646.0694,283.3444)"><path
					d="m 0,0 c 0.211,0.014 0.397,0.052 0.558,0.114 0.161,0.063 0.291,0.164 0.39,0.303 0.098,0.138 0.148,0.329 0.148,0.571 0,0.206 -0.039,0.371 -0.115,0.497 C 0.905,1.61 0.802,1.711 0.672,1.787 0.542,1.863 0.397,1.915 0.235,1.941 0.074,1.968 -0.096,1.982 -0.274,1.982 l -1.304,0 0,-2.002 0.941,0 C -0.423,-0.02 -0.21,-0.013 0,0 m -2.291,-3.191 0,5.777 2.218,0 C 0.581,2.586 1.057,2.45 1.358,2.177 1.658,1.903 1.807,1.507 1.807,0.988 1.807,0.737 1.769,0.517 1.694,0.329 1.617,0.141 1.512,-0.018 1.378,-0.148 1.243,-0.278 1.089,-0.381 0.914,-0.457 0.739,-0.533 0.553,-0.589 0.357,-0.625 l 1.719,-2.566 -0.833,0 -1.626,2.566 -1.195,0 0,-2.566 z m 0.128,6.839 C -2.678,3.424 -3.124,3.119 -3.5,2.734 -3.876,2.349 -4.169,1.897 -4.379,1.377 -4.59,0.858 -4.695,0.298 -4.695,-0.302 c 0,-0.6 0.105,-1.16 0.316,-1.68 0.21,-0.519 0.503,-0.972 0.879,-1.357 0.376,-0.385 0.822,-0.689 1.337,-0.913 0.515,-0.224 1.077,-0.336 1.686,-0.336 0.601,0 1.158,0.112 1.673,0.336 0.515,0.224 0.961,0.528 1.337,0.913 0.376,0.385 0.672,0.838 0.887,1.357 0.214,0.52 0.323,1.08 0.323,1.68 0,0.6 -0.109,1.16 -0.323,1.679 C 3.205,1.897 2.909,2.349 2.533,2.734 2.157,3.119 1.711,3.424 1.196,3.648 0.681,3.872 0.124,3.984 -0.477,3.984 -1.086,3.984 -1.648,3.872 -2.163,3.648 M 1.499,4.313 C 2.108,4.057 2.636,3.704 3.084,3.251 3.532,2.799 3.884,2.268 4.138,1.659 4.394,1.05 4.521,0.396 4.521,-0.302 4.521,-1.01 4.394,-1.666 4.138,-2.27 3.884,-2.875 3.532,-3.401 3.084,-3.849 2.636,-4.297 2.108,-4.649 1.499,-4.904 0.889,-5.159 0.231,-5.287 -0.477,-5.287 c -0.707,0 -1.365,0.128 -1.974,0.383 -0.609,0.255 -1.139,0.607 -1.586,1.055 -0.448,0.448 -0.799,0.974 -1.055,1.579 -0.255,0.604 -0.382,1.26 -0.382,1.968 0,0.698 0.127,1.352 0.382,1.961 0.256,0.609 0.607,1.14 1.055,1.592 0.447,0.453 0.977,0.806 1.586,1.062 0.609,0.255 1.267,0.383 1.974,0.383 0.708,0 1.366,-0.128 1.976,-0.383"
					style="fill:#4d4d4d;fill-opacity:1;fill-rule:nonzero;stroke:none"
					id="path104"/></g>
			</g>
		</g>
	</g>
</svg>
