<?xml version="1.0" encoding="utf-8"?>
<!-- Generator: Adobe Illustrator 19.1.0, SVG Export Plug-In . SVG Version: 6.00 Build 0)  -->
<svg version="1.0" id="Layer_1" xmlns="http://www.w3.org/2000/svg" xmlns:xlink="http://www.w3.org/1999/xlink" x="0px" y="0px"
	 viewBox="0 0 500 500" enable-background="new 0 0 500 500" xml:space="preserve">
<g>
	<circle fill="#95D9F1" cx="250" cy="250" r="200"/>
	<path fill="#71C9E9" d="M314.9,163l-5.8-5.8c-12.1-10.3-30.9-16.9-52-16.9c-31,0-57,14.2-64.2,33.4c-11.4,7.9-18.4,18.7-18.4,30.5
		v12.4c0,6.6,2.1,12.8,6,18.4c-0.8,2.8-1.3,5.8-1.3,8.8v0c-4.5,5.9-7,12.7-7,19.8V276c0,9.3,4.4,18,11.8,25.2
		c-0.1,0.7-0.1,1.4-0.1,2.1v12.4c0,9,4,17.3,10.9,24.3c0.2,0.2,0.4,0.4,0.6,0.6L298.8,444c73-18.3,130.1-76.8,146.4-150.6L314.9,163
		z"/>
	<g>
		<g>
			<ellipse fill="#ECA434" cx="250" cy="315.5" rx="66.2" ry="44.1"/>
			<rect x="183.8" y="303.2" fill="#ECA434" width="132.4" height="12.4"/>
			<ellipse fill="#FECE67" cx="250" cy="303.2" rx="66.2" ry="44.1"/>
			<path fill="#F5B541" d="M250,335.8c-29.7,0-54.7-15-54.7-32.7c0-17.7,25.1-32.7,54.7-32.7c29.7,0,54.7,15,54.7,32.7
				C304.7,320.9,279.7,335.8,250,335.8z"/>
			<path fill="#ECA434" d="M204.1,303.2c0-16.8,22.6-31.1,50.3-32.5c-1.5-0.1-2.9-0.1-4.4-0.1c-29.7,0-54.7,15-54.7,32.7
				c0,17.7,25.1,32.7,54.7,32.7c1.5,0,3,0,4.4-0.1C226.7,334.3,204.1,320,204.1,303.2z"/>
			<g>
				<g>
					<path fill="#F5B541" d="M225.6,345.6c-0.7-0.2-1.5-0.4-2.2-0.6v9.6c0.7,0.2,1.5,0.4,2.2,0.6V345.6z"/>
					<path fill="#F5B541" d="M310,331.8c0.8-1.3,1.6-2.7,2.2-4.1v-6.8c-0.7,1.1-1.4,2.1-2.2,3.1V331.8z"/>
					<path fill="#F5B541" d="M230.7,346.7c-0.7-0.1-1.5-0.3-2.2-0.5v9.7c0.7,0.2,1.5,0.3,2.2,0.5V346.7z"/>
					<path fill="#F5B541" d="M240.9,348.2c-0.7-0.1-1.5-0.1-2.2-0.2v9.7c0.7,0.1,1.5,0.2,2.2,0.2V348.2z"/>
					<path fill="#F5B541" d="M235.8,347.6c-0.7-0.1-1.5-0.2-2.2-0.3v9.7c0.7,0.1,1.5,0.2,2.2,0.3V347.6z"/>
					<path fill="#F5B541" d="M215.4,342.2c-0.7-0.3-1.5-0.6-2.2-0.9v9.5c0.7,0.3,1.5,0.6,2.2,1V342.2z"/>
					<path fill="#F5B541" d="M220.5,344.1c-0.7-0.2-1.5-0.5-2.2-0.8v9.6c0.7,0.3,1.5,0.5,2.2,0.8V344.1z"/>
					<path fill="#F5B541" d="M299.8,342.9c0.8-0.6,1.5-1.2,2.2-1.8v-9c-0.7,0.6-1.5,1.1-2.2,1.7V342.9z"/>
					<path fill="#F5B541" d="M304.9,338.3c0.8-0.8,1.5-1.6,2.2-2.5v-8.4c-0.7,0.8-1.4,1.5-2.2,2.2V338.3z"/>
					<path fill="#F5B541" d="M200.2,342.9v-9.1c-0.8-0.6-1.5-1.1-2.2-1.7v9C198.7,341.7,199.4,342.3,200.2,342.9z"/>
					<path fill="#F5B541" d="M210.4,340c-0.7-0.4-1.5-0.7-2.2-1.1v9.4c0.7,0.4,1.5,0.8,2.2,1.2V340z"/>
					<path fill="#F5B541" d="M205.3,337.2c-0.7-0.4-1.5-0.9-2.2-1.4v9.2c0.7,0.5,1.5,1,2.2,1.5V337.2z"/>
					<path fill="#F5B541" d="M251.1,358.3v-9.7c-0.4,0-0.7,0-1.1,0c-0.4,0-0.7,0-1.1,0v9.7c0.4,0,0.7,0,1.1,0
						C250.4,358.4,250.7,358.3,251.1,358.3z"/>
					<path fill="#F5B541" d="M289.6,349.4c0.8-0.4,1.5-0.8,2.2-1.2v-9.4c-0.7,0.4-1.5,0.8-2.2,1.1V349.4z"/>
					<path fill="#F5B541" d="M294.7,346.5c0.8-0.5,1.5-1,2.2-1.5v-9.2c-0.7,0.5-1.5,0.9-2.2,1.4V346.5z"/>
					<path fill="#F5B541" d="M284.5,351.8c0.7-0.3,1.5-0.6,2.2-1v-9.5c-0.7,0.3-1.5,0.6-2.2,0.9V351.8z"/>
					<path fill="#F5B541" d="M192.9,335.8c0.7,0.8,1.4,1.7,2.2,2.5v-8.7c-0.8-0.7-1.5-1.5-2.2-2.2V335.8z"/>
					<path fill="#F5B541" d="M187.8,327.7c0.6,1.4,1.4,2.8,2.2,4.1V324c-0.8-1-1.5-2.1-2.2-3.1V327.7z"/>
					<path fill="#F5B541" d="M279.5,353.7c0.7-0.3,1.5-0.5,2.2-0.8v-9.6c-0.7,0.3-1.5,0.5-2.2,0.8V353.7z"/>
					<path fill="#F5B541" d="M264.2,357.3c0.7-0.1,1.5-0.2,2.2-0.3v-9.7c-0.7,0.1-1.5,0.2-2.2,0.3V357.3z"/>
					<path fill="#F5B541" d="M259.1,357.9c0.7-0.1,1.5-0.1,2.2-0.2V348c-0.7,0.1-1.5,0.2-2.2,0.2V357.9z"/>
					<path fill="#F5B541" d="M254,358.3c0.7,0,1.5-0.1,2.2-0.1v-9.7c-0.7,0-1.5,0.1-2.2,0.1V358.3z"/>
					<path fill="#F5B541" d="M274.4,355.2c0.7-0.2,1.5-0.4,2.2-0.6V345c-0.7,0.2-1.5,0.4-2.2,0.6V355.2z"/>
					<path fill="#F5B541" d="M269.3,356.4c0.7-0.2,1.5-0.3,2.2-0.5v-9.7c-0.7,0.2-1.5,0.3-2.2,0.5V356.4z"/>
					<path fill="#F5B541" d="M246,348.6c-0.7,0-1.5-0.1-2.2-0.1v9.7c0.7,0,1.5,0.1,2.2,0.1V348.6z"/>
				</g>
			</g>
		</g>
		<g>
			<ellipse fill="#ECA434" cx="261.7" cy="295.8" rx="66.2" ry="44.1"/>
			<rect x="195.5" y="283.4" fill="#ECA434" width="132.4" height="12.4"/>
			<ellipse fill="#FECE67" cx="261.7" cy="283.4" rx="66.2" ry="44.1"/>
			<path fill="#F5B541" d="M261.7,316.1c-29.7,0-54.7-15-54.7-32.7c0-17.7,25.1-32.7,54.7-32.7c29.7,0,54.7,15,54.7,32.7
				C316.5,301.1,291.4,316.1,261.7,316.1z"/>
			<path fill="#ECA434" d="M215.8,283.4c0-16.8,22.6-31.1,50.3-32.5c-1.5-0.1-2.9-0.1-4.4-0.1c-29.7,0-54.7,15-54.7,32.7
				c0,17.7,25.1,32.7,54.7,32.7c1.5,0,3,0,4.4-0.1C238.4,314.5,215.8,300.2,215.8,283.4z"/>
			<g>
				<g>
					<path fill="#F5B541" d="M237.4,325.8c-0.7-0.2-1.5-0.4-2.2-0.6v9.6c0.7,0.2,1.5,0.4,2.2,0.6V325.8z"/>
					<path fill="#F5B541" d="M321.7,312c0.8-1.3,1.6-2.7,2.2-4.1v-6.8c-0.7,1.1-1.4,2.1-2.2,3.1V312z"/>
					<path fill="#F5B541" d="M242.5,327c-0.7-0.1-1.5-0.3-2.2-0.5v9.7c0.7,0.2,1.5,0.3,2.2,0.5V327z"/>
					<path fill="#F5B541" d="M252.7,328.4c-0.7-0.1-1.5-0.1-2.2-0.2v9.7c0.7,0.1,1.5,0.2,2.2,0.2V328.4z"/>
					<path fill="#F5B541" d="M247.6,327.8c-0.7-0.1-1.5-0.2-2.2-0.3v9.7c0.7,0.1,1.5,0.2,2.2,0.3V327.8z"/>
					<path fill="#F5B541" d="M227.2,322.4c-0.7-0.3-1.5-0.6-2.2-0.9v9.5c0.7,0.3,1.5,0.6,2.2,1V322.4z"/>
					<path fill="#F5B541" d="M232.3,324.3c-0.7-0.2-1.5-0.5-2.2-0.8v9.6c0.7,0.3,1.5,0.5,2.2,0.8V324.3z"/>
					<path fill="#F5B541" d="M311.6,323.1c0.8-0.6,1.5-1.2,2.2-1.8v-9c-0.7,0.6-1.5,1.1-2.2,1.7V323.1z"/>
					<path fill="#F5B541" d="M316.7,318.5c0.8-0.8,1.5-1.6,2.2-2.5v-8.4c-0.7,0.7-1.4,1.5-2.2,2.2V318.5z"/>
					<path fill="#F5B541" d="M211.9,323.1V314c-0.8-0.6-1.5-1.1-2.2-1.7v9C210.4,321.9,211.1,322.5,211.9,323.1z"/>
					<path fill="#F5B541" d="M222.1,320.2c-0.7-0.4-1.5-0.7-2.2-1.1v9.4c0.7,0.4,1.5,0.8,2.2,1.2V320.2z"/>
					<path fill="#F5B541" d="M217,317.4c-0.8-0.4-1.5-0.9-2.2-1.4v9.2c0.7,0.5,1.5,1,2.2,1.5V317.4z"/>
					<path fill="#F5B541" d="M262.8,338.5v-9.7c-0.4,0-0.7,0-1.1,0c-0.4,0-0.7,0-1.1,0v9.7c0.4,0,0.7,0,1.1,0
						C262.1,338.6,262.5,338.6,262.8,338.5z"/>
					<path fill="#F5B541" d="M301.4,329.6c0.7-0.4,1.5-0.8,2.2-1.2V319c-0.7,0.4-1.5,0.8-2.2,1.1V329.6z"/>
					<path fill="#F5B541" d="M306.5,326.7c0.8-0.5,1.5-1,2.2-1.5V316c-0.7,0.5-1.5,0.9-2.2,1.4V326.7z"/>
					<path fill="#F5B541" d="M296.3,332c0.7-0.3,1.5-0.6,2.2-1v-9.5c-0.7,0.3-1.5,0.6-2.2,0.9V332z"/>
					<path fill="#F5B541" d="M204.6,316c0.7,0.8,1.4,1.7,2.2,2.5v-8.7c-0.8-0.7-1.5-1.5-2.2-2.2V316z"/>
					<path fill="#F5B541" d="M199.5,307.9c0.6,1.4,1.4,2.8,2.2,4.1v-7.8c-0.8-1-1.5-2.1-2.2-3.1V307.9z"/>
					<path fill="#F5B541" d="M291.2,333.9c0.7-0.3,1.5-0.5,2.2-0.8v-9.6c-0.7,0.3-1.5,0.5-2.2,0.8V333.9z"/>
					<path fill="#F5B541" d="M275.9,337.5c0.7-0.1,1.5-0.2,2.2-0.3v-9.7c-0.7,0.1-1.5,0.2-2.2,0.3V337.5z"/>
					<path fill="#F5B541" d="M270.8,338.1c0.7-0.1,1.5-0.1,2.2-0.2v-9.7c-0.7,0.1-1.5,0.2-2.2,0.2V338.1z"/>
					<path fill="#F5B541" d="M265.7,338.5c0.7,0,1.5-0.1,2.2-0.1v-9.7c-0.7,0-1.5,0.1-2.2,0.1V338.5z"/>
					<path fill="#F5B541" d="M286.1,335.4c0.7-0.2,1.5-0.4,2.2-0.6v-9.6c-0.7,0.2-1.5,0.4-2.2,0.6V335.4z"/>
					<path fill="#F5B541" d="M281,336.6c0.8-0.2,1.5-0.3,2.2-0.5v-9.7c-0.7,0.2-1.5,0.3-2.2,0.5V336.6z"/>
					<path fill="#F5B541" d="M257.7,328.8c-0.7,0-1.5-0.1-2.2-0.1v9.7c0.7,0,1.5,0.1,2.2,0.1V328.8z"/>
				</g>
			</g>
		</g>
		<g>
			<ellipse fill="#ECA434" cx="238.3" cy="276" rx="66.2" ry="44.1"/>
			<rect x="172.1" y="263.6" fill="#ECA434" width="132.4" height="12.4"/>
			<ellipse fill="#FECE67" cx="238.3" cy="263.6" rx="66.2" ry="44.1"/>
			<path fill="#F5B541" d="M238.3,296.3c-29.7,0-54.7-15-54.7-32.7c0-17.7,25.1-32.7,54.7-32.7c29.7,0,54.7,15,54.7,32.7
				C293,281.3,267.9,296.3,238.3,296.3z"/>
			<path fill="#ECA434" d="M192.4,263.6c0-16.8,22.6-31.1,50.3-32.5c-1.5-0.1-2.9-0.1-4.4-0.1c-29.7,0-54.7,15-54.7,32.7
				c0,17.7,25.1,32.7,54.7,32.7c1.5,0,3,0,4.4-0.1C215,294.8,192.4,280.4,192.4,263.6z"/>
			<g>
				<g>
					<path fill="#F5B541" d="M213.9,306c-0.7-0.2-1.5-0.4-2.2-0.6v9.6c0.7,0.2,1.5,0.4,2.2,0.6V306z"/>
					<path fill="#F5B541" d="M298.3,292.2c0.8-1.3,1.6-2.7,2.2-4.1v-6.8c-0.7,1.1-1.4,2.1-2.2,3.1V292.2z"/>
					<path fill="#F5B541" d="M219,307.2c-0.7-0.1-1.5-0.3-2.2-0.5v9.7c0.7,0.2,1.5,0.3,2.2,0.5V307.2z"/>
					<path fill="#F5B541" d="M229.2,308.6c-0.7-0.1-1.5-0.1-2.2-0.2v9.7c0.7,0.1,1.5,0.2,2.2,0.2V308.6z"/>
					<path fill="#F5B541" d="M224.1,308.1c-0.7-0.1-1.5-0.2-2.2-0.3v9.7c0.7,0.1,1.5,0.2,2.2,0.3V308.1z"/>
					<path fill="#F5B541" d="M203.7,302.7c-0.7-0.3-1.5-0.6-2.2-0.9v9.5c0.7,0.3,1.5,0.6,2.2,1V302.7z"/>
					<path fill="#F5B541" d="M208.8,304.5c-0.7-0.2-1.5-0.5-2.2-0.8v9.6c0.7,0.3,1.5,0.5,2.2,0.8V304.5z"/>
					<path fill="#F5B541" d="M288.1,303.4c0.8-0.6,1.5-1.2,2.2-1.8v-9c-0.7,0.6-1.5,1.1-2.2,1.7V303.4z"/>
					<path fill="#F5B541" d="M293.2,298.7c0.8-0.8,1.5-1.6,2.2-2.5v-8.4c-0.7,0.8-1.4,1.5-2.2,2.2V298.7z"/>
					<path fill="#F5B541" d="M188.4,303.4v-9.1c-0.8-0.6-1.5-1.1-2.2-1.7v9C186.9,302.1,187.7,302.8,188.4,303.4z"/>
					<path fill="#F5B541" d="M198.6,300.4c-0.8-0.4-1.5-0.7-2.2-1.1v9.4c0.7,0.4,1.5,0.8,2.2,1.2V300.4z"/>
					<path fill="#F5B541" d="M193.5,297.6c-0.8-0.4-1.5-0.9-2.2-1.4v9.2c0.7,0.5,1.5,1,2.2,1.5V297.6z"/>
					<path fill="#F5B541" d="M239.4,318.8v-9.7c-0.4,0-0.7,0-1.1,0c-0.4,0-0.7,0-1.1,0v9.7c0.4,0,0.7,0,1.1,0
						C238.6,318.8,239,318.8,239.4,318.8z"/>
					<path fill="#F5B541" d="M277.9,309.8c0.7-0.4,1.5-0.8,2.2-1.2v-9.4c-0.7,0.4-1.5,0.8-2.2,1.1V309.8z"/>
					<path fill="#F5B541" d="M283,306.9c0.8-0.5,1.5-1,2.2-1.5v-9.2c-0.7,0.5-1.5,0.9-2.2,1.4V306.9z"/>
					<path fill="#F5B541" d="M272.8,312.2c0.7-0.3,1.5-0.6,2.2-1v-9.5c-0.7,0.3-1.5,0.6-2.2,0.9V312.2z"/>
					<path fill="#F5B541" d="M181.1,296.2c0.7,0.8,1.4,1.7,2.2,2.5V290c-0.8-0.7-1.5-1.5-2.2-2.2V296.2z"/>
					<path fill="#F5B541" d="M176,288.1c0.6,1.4,1.4,2.8,2.2,4.1v-7.8c-0.8-1-1.5-2.1-2.2-3.1V288.1z"/>
					<path fill="#F5B541" d="M267.7,314.1c0.7-0.3,1.5-0.5,2.2-0.8v-9.6c-0.7,0.3-1.5,0.5-2.2,0.8V314.1z"/>
					<path fill="#F5B541" d="M252.4,317.7c0.7-0.1,1.5-0.2,2.2-0.3v-9.7c-0.7,0.1-1.5,0.2-2.2,0.3V317.7z"/>
					<path fill="#F5B541" d="M247.3,318.4c0.7-0.1,1.5-0.1,2.2-0.2v-9.7c-0.7,0.1-1.5,0.2-2.2,0.2V318.4z"/>
					<path fill="#F5B541" d="M242.3,318.7c0.7,0,1.5-0.1,2.2-0.1v-9.7c-0.7,0-1.5,0.1-2.2,0.1V318.7z"/>
					<path fill="#F5B541" d="M262.6,315.6c0.7-0.2,1.5-0.4,2.2-0.6v-9.6c-0.7,0.2-1.5,0.4-2.2,0.6V315.6z"/>
					<path fill="#F5B541" d="M257.5,316.9c0.7-0.2,1.5-0.3,2.2-0.5v-9.7c-0.7,0.2-1.5,0.3-2.2,0.5V316.9z"/>
					<path fill="#F5B541" d="M234.3,309c-0.7,0-1.5-0.1-2.2-0.1v9.7c0.7,0,1.5,0.1,2.2,0.1V309z"/>
				</g>
			</g>
		</g>
		<g>
			<ellipse fill="#ECA434" cx="245.3" cy="256.2" rx="66.2" ry="44.1"/>
			<rect x="179.1" y="243.8" fill="#ECA434" width="132.4" height="12.4"/>
			<ellipse fill="#FECE67" cx="245.3" cy="243.8" rx="66.2" ry="44.1"/>
			<path fill="#F5B541" d="M245.3,276.5c-29.7,0-54.7-15-54.7-32.7c0-17.7,25.1-32.7,54.7-32.7c29.7,0,54.7,15,54.7,32.7
				C300,261.5,275,276.5,245.3,276.5z"/>
			<path fill="#ECA434" d="M199.4,243.8c0-16.8,22.6-31.1,50.3-32.5c-1.5-0.1-2.9-0.1-4.4-0.1c-29.7,0-54.7,15-54.7,32.7
				c0,17.7,25.1,32.7,54.7,32.7c1.5,0,3,0,4.4-0.1C222,275,199.4,260.6,199.4,243.8z"/>
			<g>
				<g>
					<path fill="#F5B541" d="M220.9,286.2c-0.7-0.2-1.5-0.4-2.2-0.6v9.6c0.7,0.2,1.5,0.4,2.2,0.6V286.2z"/>
					<path fill="#F5B541" d="M305.3,272.4c0.8-1.3,1.6-2.7,2.2-4.1v-6.8c-0.7,1.1-1.4,2.1-2.2,3.1V272.4z"/>
					<path fill="#F5B541" d="M226,287.4c-0.7-0.1-1.5-0.3-2.2-0.5v9.7c0.7,0.2,1.5,0.3,2.2,0.5V287.4z"/>
					<path fill="#F5B541" d="M236.2,288.9c-0.7-0.1-1.5-0.1-2.2-0.2v9.7c0.7,0.1,1.5,0.2,2.2,0.2V288.9z"/>
					<path fill="#F5B541" d="M231.1,288.3c-0.7-0.1-1.5-0.2-2.2-0.3v9.7c0.7,0.1,1.5,0.2,2.2,0.3V288.3z"/>
					<path fill="#F5B541" d="M210.8,282.9c-0.7-0.3-1.5-0.6-2.2-0.9v9.5c0.7,0.3,1.5,0.6,2.2,1V282.9z"/>
					<path fill="#F5B541" d="M215.9,284.7c-0.7-0.2-1.5-0.5-2.2-0.8v9.6c0.7,0.3,1.5,0.5,2.2,0.8V284.7z"/>
					<path fill="#F5B541" d="M295.1,283.6c0.8-0.6,1.5-1.2,2.2-1.8v-9c-0.7,0.6-1.5,1.1-2.2,1.7V283.6z"/>
					<path fill="#F5B541" d="M300.2,278.9c0.8-0.8,1.5-1.6,2.2-2.5V268c-0.7,0.8-1.4,1.5-2.2,2.2V278.9z"/>
					<path fill="#F5B541" d="M195.5,283.6v-9.1c-0.8-0.6-1.5-1.1-2.2-1.7v9C194,282.4,194.7,283,195.5,283.6z"/>
					<path fill="#F5B541" d="M205.7,280.6c-0.8-0.4-1.5-0.7-2.2-1.1v9.4c0.7,0.4,1.5,0.8,2.2,1.2V280.6z"/>
					<path fill="#F5B541" d="M200.6,277.8c-0.8-0.4-1.5-0.9-2.2-1.4v9.2c0.7,0.5,1.5,1,2.2,1.5V277.8z"/>
					<path fill="#F5B541" d="M246.4,299v-9.7c-0.4,0-0.7,0-1.1,0c-0.4,0-0.7,0-1.1,0v9.7c0.4,0,0.7,0,1.1,0
						C245.7,299,246,299,246.4,299z"/>
					<path fill="#F5B541" d="M284.9,290c0.7-0.4,1.5-0.8,2.2-1.2v-9.4c-0.7,0.4-1.5,0.8-2.2,1.1V290z"/>
					<path fill="#F5B541" d="M290,287.1c0.8-0.5,1.5-1,2.2-1.5v-9.2c-0.7,0.5-1.5,0.9-2.2,1.4V287.1z"/>
					<path fill="#F5B541" d="M279.9,292.4c0.7-0.3,1.5-0.6,2.2-1v-9.5c-0.7,0.3-1.5,0.6-2.2,0.9V292.4z"/>
					<path fill="#F5B541" d="M188.2,276.5c0.7,0.8,1.4,1.7,2.2,2.5v-8.7c-0.8-0.7-1.5-1.5-2.2-2.2V276.5z"/>
					<path fill="#F5B541" d="M183.1,268.3c0.6,1.4,1.4,2.8,2.2,4.1v-7.8c-0.8-1-1.5-2.1-2.2-3.1V268.3z"/>
					<path fill="#F5B541" d="M274.8,294.3c0.7-0.3,1.5-0.5,2.2-0.8V284c-0.7,0.3-1.5,0.5-2.2,0.8V294.3z"/>
					<path fill="#F5B541" d="M259.5,298c0.7-0.1,1.5-0.2,2.2-0.3v-9.7c-0.7,0.1-1.5,0.2-2.2,0.3V298z"/>
					<path fill="#F5B541" d="M254.4,298.6c0.7-0.1,1.5-0.1,2.2-0.2v-9.7c-0.7,0.1-1.5,0.2-2.2,0.2V298.6z"/>
					<path fill="#F5B541" d="M249.3,298.9c0.7,0,1.5-0.1,2.2-0.1v-9.7c-0.7,0-1.5,0.1-2.2,0.1V298.9z"/>
					<path fill="#F5B541" d="M269.7,295.9c0.7-0.2,1.5-0.4,2.2-0.6v-9.6c-0.7,0.2-1.5,0.4-2.2,0.6V295.9z"/>
					<path fill="#F5B541" d="M264.6,297.1c0.7-0.2,1.5-0.3,2.2-0.5v-9.7c-0.7,0.2-1.5,0.3-2.2,0.5V297.1z"/>
					<path fill="#F5B541" d="M241.3,289.2c-0.7,0-1.5-0.1-2.2-0.1v9.7c0.7,0,1.5,0.1,2.2,0.1V289.2z"/>
				</g>
			</g>
		</g>
		<g>
			<ellipse fill="#ECA434" cx="257" cy="236.4" rx="66.2" ry="44.1"/>
			<rect x="190.8" y="224" fill="#ECA434" width="132.4" height="12.4"/>
			<path fill="#FECE67" d="M323.2,224c0,24.4-29.6,44.1-66.2,44.1c-36.6,0-66.2-19.8-66.2-44.1c0-24.4,29.6-44.1,66.2-44.1
				C293.6,179.9,323.2,199.7,323.2,224z"/>
			<path fill="#F5B541" d="M257,256.7c-29.7,0-54.7-15-54.7-32.7c0-17.7,25.1-32.7,54.7-32.7c29.7,0,54.7,15,54.7,32.7
				C311.8,241.7,286.7,256.7,257,256.7z"/>
			<path fill="#ECA434" d="M211.1,224c0-16.8,22.6-31.2,50.3-32.5c-1.5-0.1-2.9-0.1-4.4-0.1c-29.7,0-54.7,15-54.7,32.7
				c0,17.7,25.1,32.7,54.7,32.7c1.5,0,3,0,4.4-0.1C233.8,255.2,211.1,240.9,211.1,224z"/>
			<g>
				<g>
					<path fill="#F5B541" d="M232.7,266.4c-0.7-0.2-1.5-0.4-2.2-0.6v9.6c0.7,0.2,1.5,0.4,2.2,0.6V266.4z"/>
					<path fill="#F5B541" d="M317.1,252.7c0.8-1.3,1.6-2.7,2.2-4.1v-6.8c-0.7,1.1-1.4,2.1-2.2,3.1V252.7z"/>
					<path fill="#F5B541" d="M237.8,267.6c-0.7-0.1-1.5-0.3-2.2-0.5v9.7c0.7,0.2,1.5,0.3,2.2,0.5V267.6z"/>
					<path fill="#F5B541" d="M248,269.1c-0.7-0.1-1.5-0.1-2.2-0.2v9.7c0.7,0.1,1.5,0.2,2.2,0.2V269.1z"/>
					<path fill="#F5B541" d="M242.9,268.5c-0.7-0.1-1.5-0.2-2.2-0.3v9.7c0.7,0.1,1.5,0.2,2.2,0.3V268.5z"/>
					<path fill="#F5B541" d="M222.5,263.1c-0.7-0.3-1.5-0.6-2.2-0.9v9.5c0.7,0.3,1.5,0.6,2.2,1V263.1z"/>
					<path fill="#F5B541" d="M227.6,264.9c-0.7-0.2-1.5-0.5-2.2-0.8v9.6c0.7,0.3,1.5,0.5,2.2,0.8V264.9z"/>
					<path fill="#F5B541" d="M306.9,263.8c0.8-0.6,1.5-1.2,2.2-1.8v-9c-0.7,0.6-1.5,1.1-2.2,1.7V263.8z"/>
					<path fill="#F5B541" d="M312,259.2c0.8-0.8,1.5-1.6,2.2-2.5v-8.4c-0.7,0.8-1.4,1.5-2.2,2.2V259.2z"/>
					<path fill="#F5B541" d="M207.2,263.8v-9.1c-0.8-0.6-1.5-1.1-2.2-1.7v9C205.7,262.6,206.5,263.2,207.2,263.8z"/>
					<path fill="#F5B541" d="M217.4,260.8c-0.7-0.4-1.5-0.7-2.2-1.1v9.4c0.7,0.4,1.5,0.8,2.2,1.2V260.8z"/>
					<path fill="#F5B541" d="M212.3,258.1c-0.7-0.4-1.5-0.9-2.2-1.4v9.2c0.7,0.5,1.5,1,2.2,1.5V258.1z"/>
					<path fill="#F5B541" d="M258.1,279.2v-9.7c-0.4,0-0.7,0-1.1,0c-0.4,0-0.7,0-1.1,0v9.7c0.4,0,0.7,0,1.1,0
						C257.4,279.2,257.8,279.2,258.1,279.2z"/>
					<path fill="#F5B541" d="M296.7,270.3c0.8-0.4,1.5-0.8,2.2-1.2v-9.4c-0.7,0.4-1.5,0.8-2.2,1.1V270.3z"/>
					<path fill="#F5B541" d="M301.8,267.4c0.8-0.5,1.5-1,2.2-1.5v-9.2c-0.7,0.5-1.5,0.9-2.2,1.4V267.4z"/>
					<path fill="#F5B541" d="M291.6,272.6c0.7-0.3,1.5-0.6,2.2-1v-9.5c-0.7,0.3-1.5,0.6-2.2,0.9V272.6z"/>
					<path fill="#F5B541" d="M199.9,256.7c0.7,0.8,1.4,1.7,2.2,2.5v-8.7c-0.8-0.7-1.5-1.5-2.2-2.2V256.7z"/>
					<path fill="#F5B541" d="M194.8,248.5c0.6,1.4,1.4,2.8,2.2,4.1v-7.8c-0.8-1-1.5-2.1-2.2-3.1V248.5z"/>
					<path fill="#F5B541" d="M286.5,274.5c0.7-0.3,1.5-0.5,2.2-0.8v-9.6c-0.7,0.3-1.5,0.5-2.2,0.8V274.5z"/>
					<path fill="#F5B541" d="M271.2,278.2c0.7-0.1,1.5-0.2,2.2-0.3v-9.7c-0.7,0.1-1.5,0.2-2.2,0.3V278.2z"/>
					<path fill="#F5B541" d="M266.1,278.8c0.7-0.1,1.5-0.1,2.2-0.2v-9.7c-0.7,0.1-1.5,0.2-2.2,0.2V278.8z"/>
					<path fill="#F5B541" d="M261,279.1c0.7,0,1.5-0.1,2.2-0.1v-9.7c-0.7,0-1.5,0.1-2.2,0.1V279.1z"/>
					<path fill="#F5B541" d="M281.4,276.1c0.7-0.2,1.5-0.4,2.2-0.6v-9.6c-0.7,0.2-1.5,0.4-2.2,0.6V276.1z"/>
					<path fill="#F5B541" d="M276.3,277.3c0.7-0.2,1.5-0.3,2.2-0.5v-9.7c-0.7,0.2-1.5,0.3-2.2,0.5V277.3z"/>
					<path fill="#F5B541" d="M253.1,269.4c-0.7,0-1.5-0.1-2.2-0.1v9.7c0.7,0,1.5,0.1,2.2,0.1V269.4z"/>
				</g>
			</g>
		</g>
		<g>
			<ellipse fill="#ECA434" cx="240.6" cy="216.6" rx="66.2" ry="44.1"/>
			<rect x="174.4" y="204.2" fill="#ECA434" width="132.4" height="12.4"/>
			<ellipse fill="#FECE67" cx="240.6" cy="204.2" rx="66.2" ry="44.1"/>
			<path fill="#F5B541" d="M240.6,236.9c-29.7,0-54.7-15-54.7-32.7s25.1-32.7,54.7-32.7s54.7,15,54.7,32.7S270.3,236.9,240.6,236.9z
				"/>
			<path fill="#ECA434" d="M194.7,204.2c0-16.8,22.6-31.1,50.3-32.5c-1.5-0.1-2.9-0.1-4.4-0.1c-29.7,0-54.7,15-54.7,32.7
				s25.1,32.7,54.7,32.7c1.5,0,3,0,4.4-0.1C217.3,235.4,194.7,221.1,194.7,204.2z"/>
			<g>
				<g>
					<path fill="#F5B541" d="M216.3,246.6c-0.7-0.2-1.5-0.4-2.2-0.6v9.6c0.7,0.2,1.5,0.4,2.2,0.6V246.6z"/>
					<path fill="#F5B541" d="M300.6,232.9c0.8-1.3,1.6-2.7,2.2-4.1v-6.8c-0.7,1.1-1.4,2.1-2.2,3.1V232.9z"/>
					<path fill="#F5B541" d="M221.3,247.8c-0.7-0.1-1.5-0.3-2.2-0.5v9.7c0.7,0.2,1.5,0.3,2.2,0.5V247.8z"/>
					<path fill="#F5B541" d="M231.5,249.3c-0.7-0.1-1.5-0.1-2.2-0.2v9.7c0.7,0.1,1.5,0.2,2.2,0.2V249.3z"/>
					<path fill="#F5B541" d="M226.4,248.7c-0.7-0.1-1.5-0.2-2.2-0.3v9.7c0.7,0.1,1.5,0.2,2.2,0.3V248.7z"/>
					<path fill="#F5B541" d="M206.1,243.3c-0.8-0.3-1.5-0.6-2.2-0.9v9.5c0.7,0.3,1.5,0.6,2.2,1V243.3z"/>
					<path fill="#F5B541" d="M211.2,245.2c-0.7-0.2-1.5-0.5-2.2-0.8v9.6c0.7,0.3,1.5,0.5,2.2,0.8V245.2z"/>
					<path fill="#F5B541" d="M290.4,244c0.8-0.6,1.5-1.2,2.2-1.8v-9c-0.7,0.6-1.5,1.1-2.2,1.7V244z"/>
					<path fill="#F5B541" d="M295.5,239.4c0.8-0.8,1.5-1.6,2.2-2.5v-8.4c-0.7,0.8-1.4,1.5-2.2,2.2V239.4z"/>
					<path fill="#F5B541" d="M190.8,244v-9.1c-0.8-0.6-1.5-1.1-2.2-1.7v9C189.3,242.8,190,243.4,190.8,244z"/>
					<path fill="#F5B541" d="M201,241c-0.7-0.4-1.5-0.7-2.2-1.1v9.4c0.7,0.4,1.5,0.8,2.2,1.2V241z"/>
					<path fill="#F5B541" d="M195.9,238.3c-0.8-0.4-1.5-0.9-2.2-1.4v9.2c0.7,0.5,1.5,1,2.2,1.5V238.3z"/>
					<path fill="#F5B541" d="M241.7,259.4v-9.7c-0.4,0-0.7,0-1.1,0c-0.4,0-0.7,0-1.1,0v9.7c0.4,0,0.7,0,1.1,0
						C241,259.4,241.3,259.4,241.7,259.4z"/>
					<path fill="#F5B541" d="M280.3,250.5c0.7-0.4,1.5-0.8,2.2-1.2v-9.4c-0.7,0.4-1.5,0.8-2.2,1.1V250.5z"/>
					<path fill="#F5B541" d="M285.3,247.6c0.8-0.5,1.5-1,2.2-1.5v-9.2c-0.7,0.5-1.5,0.9-2.2,1.4V247.6z"/>
					<path fill="#F5B541" d="M275.2,252.8c0.7-0.3,1.5-0.6,2.2-1v-9.5c-0.7,0.3-1.5,0.6-2.2,0.9V252.8z"/>
					<path fill="#F5B541" d="M183.5,236.9c0.7,0.8,1.4,1.7,2.2,2.5v-8.7c-0.8-0.7-1.5-1.5-2.2-2.2V236.9z"/>
					<path fill="#F5B541" d="M178.4,228.7c0.6,1.4,1.4,2.8,2.2,4.1v-7.8c-0.8-1-1.5-2.1-2.2-3.1V228.7z"/>
					<path fill="#F5B541" d="M270.1,254.7c0.7-0.3,1.5-0.5,2.2-0.8v-9.6c-0.7,0.3-1.5,0.5-2.2,0.8V254.7z"/>
					<path fill="#F5B541" d="M254.8,258.4c0.7-0.1,1.5-0.2,2.2-0.3v-9.7c-0.7,0.1-1.5,0.2-2.2,0.3V258.4z"/>
					<path fill="#F5B541" d="M249.7,259c0.7-0.1,1.5-0.1,2.2-0.2v-9.7c-0.7,0.1-1.5,0.2-2.2,0.2V259z"/>
					<path fill="#F5B541" d="M244.6,259.3c0.7,0,1.5-0.1,2.2-0.1v-9.7c-0.7,0-1.5,0.1-2.2,0.1V259.3z"/>
					<path fill="#F5B541" d="M265,256.3c0.7-0.2,1.5-0.4,2.2-0.6V246c-0.7,0.2-1.5,0.4-2.2,0.6V256.3z"/>
					<path fill="#F5B541" d="M259.9,257.5c0.7-0.2,1.5-0.3,2.2-0.5v-9.7c-0.7,0.2-1.5,0.3-2.2,0.5V257.5z"/>
					<path fill="#F5B541" d="M236.6,249.6c-0.7,0-1.5-0.1-2.2-0.1v9.7c0.7,0,1.5,0.1,2.2,0.1V249.6z"/>
				</g>
			</g>
		</g>
		<g>
			<ellipse fill="#ECA434" cx="257" cy="196.8" rx="66.2" ry="44.1"/>
			<rect x="190.8" y="184.5" fill="#ECA434" width="132.4" height="12.4"/>
			<ellipse fill="#FECE67" cx="257" cy="184.5" rx="66.2" ry="44.1"/>
			<path fill="#F5B541" d="M257,217.1c-29.7,0-54.7-15-54.7-32.7s25.1-32.7,54.7-32.7c29.7,0,54.7,15,54.7,32.7
				S286.7,217.1,257,217.1z"/>
			<path fill="#ECA434" d="M211.1,184.5c0-16.8,22.6-31.1,50.3-32.5c-1.5-0.1-2.9-0.1-4.4-0.1c-29.7,0-54.7,15-54.7,32.7
				s25.1,32.7,54.7,32.7c1.5,0,3,0,4.4-0.1C233.8,215.6,211.1,201.3,211.1,184.5z"/>
			<g>
				<g>
					<path fill="#F5B541" d="M232.7,226.9c-0.7-0.2-1.5-0.4-2.2-0.6v9.6c0.7,0.2,1.5,0.4,2.2,0.6V226.9z"/>
					<path fill="#F5B541" d="M317.1,213.1c0.8-1.3,1.6-2.7,2.2-4.1v-6.8c-0.7,1.1-1.4,2.1-2.2,3.1V213.1z"/>
					<path fill="#F5B541" d="M237.8,228c-0.7-0.1-1.5-0.3-2.2-0.5v9.7c0.7,0.2,1.5,0.3,2.2,0.5V228z"/>
					<path fill="#F5B541" d="M248,229.5c-0.7-0.1-1.5-0.1-2.2-0.2v9.7c0.7,0.1,1.5,0.2,2.2,0.2V229.5z"/>
					<path fill="#F5B541" d="M242.9,228.9c-0.7-0.1-1.5-0.2-2.2-0.3v9.7c0.7,0.1,1.5,0.2,2.2,0.3V228.9z"/>
					<path fill="#F5B541" d="M222.5,223.5c-0.7-0.3-1.5-0.6-2.2-0.9v9.5c0.7,0.3,1.5,0.6,2.2,1V223.5z"/>
					<path fill="#F5B541" d="M227.6,225.4c-0.7-0.2-1.5-0.5-2.2-0.8v9.6c0.7,0.3,1.5,0.5,2.2,0.8V225.4z"/>
					<path fill="#F5B541" d="M306.9,224.2c0.8-0.6,1.5-1.2,2.2-1.8v-9c-0.7,0.6-1.5,1.1-2.2,1.7V224.2z"/>
					<path fill="#F5B541" d="M312,219.6c0.8-0.8,1.5-1.6,2.2-2.5v-8.4c-0.7,0.8-1.4,1.5-2.2,2.2V219.6z"/>
					<path fill="#F5B541" d="M207.2,224.2v-9.1c-0.8-0.6-1.5-1.1-2.2-1.7v9C205.7,223,206.5,223.6,207.2,224.2z"/>
					<path fill="#F5B541" d="M217.4,221.2c-0.7-0.4-1.5-0.7-2.2-1.1v9.4c0.7,0.4,1.5,0.8,2.2,1.2V221.2z"/>
					<path fill="#F5B541" d="M212.3,218.5c-0.7-0.4-1.5-0.9-2.2-1.4v9.2c0.7,0.5,1.5,1,2.2,1.5V218.5z"/>
					<path fill="#F5B541" d="M258.1,239.6v-9.7c-0.4,0-0.7,0-1.1,0c-0.4,0-0.7,0-1.1,0v9.7c0.4,0,0.7,0,1.1,0
						C257.4,239.6,257.8,239.6,258.1,239.6z"/>
					<path fill="#F5B541" d="M296.7,230.7c0.8-0.4,1.5-0.8,2.2-1.2v-9.4c-0.7,0.4-1.5,0.8-2.2,1.1V230.7z"/>
					<path fill="#F5B541" d="M301.8,227.8c0.8-0.5,1.5-1,2.2-1.5v-9.2c-0.7,0.5-1.5,0.9-2.2,1.4V227.8z"/>
					<path fill="#F5B541" d="M291.6,233c0.7-0.3,1.5-0.6,2.2-1v-9.5c-0.7,0.3-1.5,0.6-2.2,0.9V233z"/>
					<path fill="#F5B541" d="M199.9,217.1c0.7,0.8,1.4,1.7,2.2,2.5v-8.7c-0.8-0.7-1.5-1.5-2.2-2.2V217.1z"/>
					<path fill="#F5B541" d="M194.8,208.9c0.6,1.4,1.4,2.8,2.2,4.1v-7.8c-0.8-1-1.5-2.1-2.2-3.1V208.9z"/>
					<path fill="#F5B541" d="M286.5,235c0.7-0.3,1.5-0.5,2.2-0.8v-9.6c-0.7,0.3-1.5,0.5-2.2,0.8V235z"/>
					<path fill="#F5B541" d="M271.2,238.6c0.7-0.1,1.5-0.2,2.2-0.3v-9.7c-0.7,0.1-1.5,0.2-2.2,0.3V238.6z"/>
					<path fill="#F5B541" d="M266.1,239.2c0.7-0.1,1.5-0.1,2.2-0.2v-9.7c-0.7,0.1-1.5,0.2-2.2,0.2V239.2z"/>
					<path fill="#F5B541" d="M261,239.5c0.7,0,1.5-0.1,2.2-0.1v-9.7c-0.7,0-1.5,0.1-2.2,0.1V239.5z"/>
					<path fill="#F5B541" d="M281.4,236.5c0.7-0.2,1.5-0.4,2.2-0.6v-9.6c-0.7,0.2-1.5,0.4-2.2,0.6V236.5z"/>
					<path fill="#F5B541" d="M276.3,237.7c0.7-0.2,1.5-0.3,2.2-0.5v-9.7c-0.7,0.2-1.5,0.3-2.2,0.5V237.7z"/>
					<path fill="#F5B541" d="M253.1,229.8c-0.7,0-1.5-0.1-2.2-0.1v9.7c0.7,0,1.5,0.1,2.2,0.1V229.8z"/>
				</g>
			</g>
		</g>
	</g>
</g>
</svg>
