<?xml version="1.0" encoding="utf-8"?>
<!-- Generator: Adobe Illustrator 19.1.0, SVG Export Plug-In . SVG Version: 6.00 Build 0)  -->
<svg version="1.0" id="Layer_1" xmlns="http://www.w3.org/2000/svg" xmlns:xlink="http://www.w3.org/1999/xlink" x="0px" y="0px"
	 viewBox="0 0 500 500" enable-background="new 0 0 500 500" xml:space="preserve">
<g>
	<circle fill="#95D9F1" cx="250" cy="250" r="200"/>
	<g>
		<defs>
			<circle id="SVGID_58_" cx="250" cy="250" r="200"/>
		</defs>
		<clipPath id="SVGID_2_">
			<use xlink:href="#SVGID_58_"  overflow="visible"/>
		</clipPath>
		<path clip-path="url(#SVGID_2_)" fill="#71C9E9" d="M328.6,464c66.5-16.6,109.8-106.6,131.2-171L337.5,190.7
			c-0.1-0.1-0.2-0.3-0.4-0.4l-1.7-1.8c-0.2-0.1-0.3-0.3-0.4-0.4c-6.7-6.1-15.5-9.8-25.3-9.8c-5.7,0-11.1,1.3-16,3.6
			c-8-26.5-32.6-45.8-61.7-45.8c-35.6,0-64.4,28.9-64.4,64.4c0,0.6,0.1,1.2,0.1,1.8c0,0,0,0-0.1,0c-20.7,0-37.5,16.8-37.5,37.6
			c0,9.3,3.4,17.8,9,24.3l4.1,4.1"/>
	</g>
	<path fill="#FFFFFF" d="M223.6,277.5h-56c-9.3,0-17.9-3.4-24.5-9.1c-1.5-1.3-2.8-2.6-4.1-4.1c-5.6-6.6-9-15-9-24.3
		c0-20.7,16.8-37.6,37.5-37.6c0,0,0.1,0,0.1,0c0-0.6-0.1-1.2-0.1-1.8c0-35.6,28.9-64.4,64.4-64.4c29.1,0,53.7,19.3,61.7,45.8
		c4.9-2.3,10.3-3.6,16-3.6c9.8,0,18.6,3.7,25.3,9.8c0.1,0.1,0.3,0.3,0.4,0.4l1.7,1.8c0.2,0.1,0.3,0.3,0.4,0.4
		c6.1,6.7,9.8,15.5,9.8,25.3c0,4.8-0.9,9.3-2.5,13.5c0.4,0,0.8-0.1,1.2-0.1c13.3,0,24.1,10.8,24.1,24.1c0,13.3-10.8,24.1-24.1,24.1
		h-69.5"/>
	<path fill-rule="evenodd" clip-rule="evenodd" fill="#EDF0F1" d="M382,285.2c0,2.7,0,5.5,0,8.2c0,0.8-0.6,1.4-1.4,1.4h-2
		c-0.7,0-1.4-0.6-1.4-1.4v-4.9c0-0.7-0.6-1.4-1.4-1.4h-50.9c0,2.1,0,4.2,0,6.2c0,0.8-0.6,1.4-1.4,1.4h-1.9c-0.8,0-1.4-0.6-1.4-1.4
		v-6.2h-50.9c-0.8,0-1.4,0.6-1.4,1.4v4.9c0,0.8-0.6,1.4-1.4,1.4h-1.9c-0.8,0-1.4-0.6-1.4-1.4v-8.2c0-1.5,1.2-2.7,2.7-2.7h54.2
		c0-2.1,0-4.1,0-6.2c0-0.8,0.6-1.4,1.4-1.4h1.9c0.7,0,1.4,0.6,1.4,1.4l0,6.2c18.1,0,36.1,0,54.2,0C380.8,282.5,382,283.7,382,285.2z
		"/>
	<path fill-rule="evenodd" clip-rule="evenodd" fill="#E4CDA5" d="M256.9,315.5h10.5l1.1,12c0.1,0.8,0.8,1.5,1.7,1.5l0.2,0l-1.3,4.5
		l-14-1.1l-1-3.4l0.4-0.1c0.8-0.1,1.4-0.7,1.5-1.5L256.9,315.5z"/>
	<path fill-rule="evenodd" clip-rule="evenodd" fill="#D3C5A3" d="M262.2,333l-7.1-0.6l-1-3.4l0.4-0.1c0.8-0.1,1.4-0.7,1.5-1.5
		l0.7-8.4h5.6V333z"/>
	<path fill-rule="evenodd" clip-rule="evenodd" fill="#CCBC97" d="M256.9,315.5h10.5l0.8,9.1c-0.2,0.3-0.3,0.5-0.5,0.8
		c-1.5,2.1-3.5,3.6-5.5,3.6c-1.9,0-3.9-1.4-5.5-3.6c-0.2-0.3-0.4-0.6-0.6-0.9L256.9,315.5z"/>
	<path fill-rule="evenodd" clip-rule="evenodd" fill="#E8D6AC" d="M262.2,325.8c-2.5,0-4.9-1.6-6.8-3.9c-1.8-2.3-3-5.4-3-8.3v-0.1
		l0,0c0-0.2,0-0.4,0-0.6c0-7.1-1.3-12.8,9.8-12.8c11.1,0,9.8,5.7,9.8,12.8c0,0.2,0,0.4,0,0.6l0,0v0.1c0,3-1.2,6-3,8.3
		C267.1,324.2,264.7,325.8,262.2,325.8z"/>
	<path fill-rule="evenodd" clip-rule="evenodd" fill="#EDF0F1" d="M263.9,331.5h-3.3l-4.8-3.7L254,329c-5.8,1.2-10.3,3.8-10.3,7.7
		c0,2,0,3.9,0,5.8c0,1.6,1.4,2.9,3.1,2.9h5.7h7.7h4.1h6.7h6.6c1.7,0,3.1-1.3,3.1-2.9v-5.8c0-4-4.5-6.5-10.3-7.7l-1.8-1.2
		L263.9,331.5z"/>
	<polygon fill-rule="evenodd" clip-rule="evenodd" fill="#DBE1E6" points="263.9,331.5 260.6,331.5 255.9,327.8 254,329 
		263.5,338.9 264.3,345.5 264.7,345.5 263.8,336.3 271,329.2 270.4,329 268.6,327.9 	"/>
	<path fill-rule="evenodd" clip-rule="evenodd" fill="#FFE8BE" d="M255.7,323.2c1.8,2.3,4.2,3.9,6.5,3.9c2.3,0,4.7-1.6,6.5-3.9
		c1.9-2.4,3.2-5.6,3.2-8.7l-0.6-2.4c-0.2-0.9-0.2-1.7-0.3-2.5c0-1,0-2-0.6-2.7c-1-1.2-2.5-0.8-4.2-0.4c-1.2,0.3-2.5,0.7-3.9,0.7
		c-1.4,0-2.7-0.3-3.9-0.7h0c-1.8-0.5-3.3-0.9-4.2,0.4c-0.6,0.8-0.6,1.7-0.6,2.7c0,0.8,0,1.6-0.3,2.5l-0.6,2.4
		C252.5,317.6,253.8,320.8,255.7,323.2z"/>
	<path fill-rule="evenodd" clip-rule="evenodd" fill="#E8D6AC" d="M255.7,323.2c1.8,2.3,4.2,3.9,6.5,3.9v-19.9
		c-1.4,0-2.7-0.3-3.9-0.7h0c-1.8-0.5-3.3-0.9-4.2,0.4c-0.6,0.8-0.6,1.7-0.6,2.7c0,0.8,0,1.6-0.3,2.5l-0.6,2.4
		C252.5,317.6,253.8,320.8,255.7,323.2z"/>
	<path fill-rule="evenodd" clip-rule="evenodd" fill="#3E576F" d="M260.2,345.5h4.1c-0.4-3.7-0.9-6.5-1.3-10.2c0-0.2,0-0.4,0.1-0.5
		l1.1-2.7c0.1-0.1,0.1-0.2,0-0.3c-0.1-0.1-0.2-0.2-0.3-0.2c-1.1,0-2.2,0-3.3,0c-0.2,0-0.3,0.1-0.3,0.2c-0.1,0.1-0.1,0.2,0,0.3
		l1.1,2.7c0.1,0.2,0.2,0.3,0.1,0.5C261.1,339,260.6,341.8,260.2,345.5z"/>
	<path fill-rule="evenodd" clip-rule="evenodd" fill="#2D3F50" d="M263,335.3c0-0.2,0-0.4,0.1-0.5l1.1-2.7c0.1-0.1,0.1-0.2,0-0.3
		c-0.1-0.1-0.2-0.2-0.3-0.2c-1.1,0-2.2,0-3.3,0c-0.2,0-0.3,0.1-0.3,0.2c-0.1,0.1-0.1,0.2,0,0.3l1.1,2.7c0.1,0.2,0.2,0.3,0.1,0.5
		l-0.2,1.4l2,1.7L263,335.3z"/>
	<polygon fill-rule="evenodd" clip-rule="evenodd" fill="#EDF0F1" points="262.3,331.5 255.9,327.8 254,329 260.3,335 	"/>
	<polygon fill-rule="evenodd" clip-rule="evenodd" fill="#EDF0F1" points="262.3,331.5 268.6,327.9 270.4,329 264.2,335 	"/>
	<path fill-rule="evenodd" clip-rule="evenodd" fill="#E4CDA5" d="M317.4,315.5h10.5l1.1,12c0.1,0.8,0.8,1.5,1.7,1.5l0.2,0l-1.3,4.5
		l-14-1.1l-1-3.4l0.4-0.1c0.8-0.1,1.4-0.7,1.5-1.5L317.4,315.5z"/>
	<path fill-rule="evenodd" clip-rule="evenodd" fill="#D3C5A3" d="M322.7,333l-7.1-0.6l-1-3.4l0.4-0.1c0.8-0.1,1.4-0.7,1.5-1.5
		l0.7-8.4h5.6V333z"/>
	<path fill-rule="evenodd" clip-rule="evenodd" fill="#CCBC97" d="M317.4,315.5h10.5l0.8,9.1c-0.2,0.3-0.3,0.5-0.5,0.8
		c-1.5,2.1-3.5,3.6-5.5,3.6c-1.9,0-3.9-1.4-5.5-3.6c-0.2-0.3-0.4-0.6-0.6-0.9L317.4,315.5z"/>
	<path fill-rule="evenodd" clip-rule="evenodd" fill="#E8D6AC" d="M322.7,325.8c-2.5,0-4.9-1.6-6.8-3.9c-1.8-2.3-3-5.4-3-8.3v-0.1
		l0,0c0-0.2,0-0.4,0-0.6c0-7.1-1.3-12.8,9.8-12.8c11.1,0,9.8,5.7,9.8,12.8c0,0.2,0,0.4,0,0.6l0,0v0.1c0,3-1.2,6-3,8.3
		C327.7,324.2,325.2,325.8,322.7,325.8z"/>
	<path fill-rule="evenodd" clip-rule="evenodd" fill="#EDF0F1" d="M324.5,331.5h-3.3l-4.8-3.7l-1.8,1.2c-5.8,1.2-10.3,3.8-10.3,7.7
		c0,2,0,3.9,0,5.8c0,1.6,1.4,2.9,3.1,2.9h5.7h7.7h4.1h6.7h6.6c1.7,0,3.1-1.3,3.1-2.9l0-5.8c0-4-4.5-6.5-10.3-7.7l-1.8-1.2
		L324.5,331.5z"/>
	<polygon fill-rule="evenodd" clip-rule="evenodd" fill="#DBE1E6" points="324.5,331.5 321.2,331.5 316.4,327.8 314.6,329 
		324.1,338.9 324.9,345.5 325.3,345.5 324.3,336.3 331.6,329.2 330.9,329 329.1,327.9 	"/>
	<path fill-rule="evenodd" clip-rule="evenodd" fill="#FFE8BE" d="M316.2,323.2c1.8,2.3,4.2,3.9,6.5,3.9c2.3,0,4.7-1.6,6.5-3.9
		c1.9-2.4,3.2-5.6,3.2-8.7l-0.7-2.4c-0.2-0.9-0.2-1.7-0.3-2.5c0-1,0-2-0.6-2.7c-1-1.2-2.5-0.8-4.2-0.4c-1.2,0.3-2.5,0.7-4,0.7
		c-1.4,0-2.7-0.3-3.9-0.7l0,0c-1.8-0.5-3.3-0.9-4.2,0.4c-0.6,0.8-0.6,1.7-0.6,2.7c0,0.8,0,1.6-0.3,2.5l-0.6,2.4
		C313,317.6,314.3,320.8,316.2,323.2z"/>
	<path fill-rule="evenodd" clip-rule="evenodd" fill="#E8D6AC" d="M316.2,323.2c1.8,2.3,4.2,3.9,6.5,3.9v-19.9
		c-1.4,0-2.7-0.3-3.9-0.7l0,0c-1.8-0.5-3.3-0.9-4.2,0.4c-0.6,0.8-0.6,1.7-0.6,2.7c0,0.8,0,1.6-0.3,2.5l-0.6,2.4
		C313,317.6,314.3,320.8,316.2,323.2z"/>
	<path fill-rule="evenodd" clip-rule="evenodd" fill="#3E576F" d="M320.7,345.5h4.1c-0.5-3.7-0.9-6.5-1.3-10.2c0-0.2,0-0.4,0.1-0.5
		l1.1-2.7c0.1-0.1,0.1-0.2,0-0.3c-0.1-0.1-0.2-0.2-0.3-0.2c-1.1,0-2.2,0-3.3,0c-0.1,0-0.3,0.1-0.3,0.2c-0.1,0.1-0.1,0.2,0,0.3
		l1.1,2.7c0.1,0.2,0.2,0.3,0.1,0.5C321.6,339,321.2,341.8,320.7,345.5z"/>
	<path fill-rule="evenodd" clip-rule="evenodd" fill="#2D3F50" d="M323.5,335.3c0-0.2,0-0.4,0.1-0.5l1.1-2.7c0.1-0.1,0.1-0.2,0-0.3
		c-0.1-0.1-0.2-0.2-0.3-0.2c-1.1,0-2.2,0-3.3,0c-0.1,0-0.3,0.1-0.3,0.2c-0.1,0.1-0.1,0.2,0,0.3l1.1,2.7c0.1,0.2,0.2,0.3,0.1,0.5
		l-0.2,1.4l2,1.7L323.5,335.3z"/>
	<polygon fill-rule="evenodd" clip-rule="evenodd" fill="#EDF0F1" points="322.8,331.5 316.4,327.8 314.6,329 320.9,335 	"/>
	<polygon fill-rule="evenodd" clip-rule="evenodd" fill="#EDF0F1" points="322.8,331.5 329.1,327.9 331,329 324.8,335 	"/>
	<path fill-rule="evenodd" clip-rule="evenodd" fill="#E4CDA5" d="M378,315.5h10.5l1.1,12c0.1,0.8,0.8,1.5,1.7,1.5l0.2,0l-1.3,4.5
		l-14-1.1l-1-3.4l0.4-0.1c0.8-0.1,1.4-0.7,1.5-1.5L378,315.5z"/>
	<path fill-rule="evenodd" clip-rule="evenodd" fill="#D3C5A3" d="M383.3,333l-7.1-0.6l-1-3.4l0.4-0.1c0.8-0.1,1.4-0.7,1.5-1.5
		l0.7-8.4h5.6V333z"/>
	<path fill-rule="evenodd" clip-rule="evenodd" fill="#CCBC97" d="M378,315.5h10.5l0.8,9.1c-0.2,0.3-0.3,0.5-0.5,0.8
		c-1.5,2.1-3.5,3.6-5.5,3.6s-3.9-1.4-5.5-3.6c-0.2-0.3-0.4-0.6-0.6-0.9L378,315.5z"/>
	<path fill-rule="evenodd" clip-rule="evenodd" fill="#E8D6AC" d="M383.3,325.8c-2.5,0-4.9-1.6-6.8-3.9c-1.8-2.3-3-5.4-3-8.3v-0.1
		l0,0c0-0.2,0-0.4,0-0.6c0-7.1-1.3-12.8,9.8-12.8c11.1,0,9.8,5.7,9.8,12.8c0,0.2,0,0.4,0,0.6l0,0v0.1c0,3-1.2,6-3,8.3
		C388.2,324.2,385.8,325.8,383.3,325.8z"/>
	<path fill-rule="evenodd" clip-rule="evenodd" fill="#EDF0F1" d="M385,331.5h-3.3l-4.8-3.7l-1.8,1.2c-5.8,1.2-10.3,3.8-10.3,7.7
		c0,2,0,3.9,0,5.8c0,1.6,1.4,2.9,3.1,2.9h5.7h7.7h4.1h6.8h6.6c1.7,0,3.1-1.3,3.1-2.9v-5.8c0-4-4.5-6.5-10.3-7.7l-1.8-1.2L385,331.5z
		"/>
	<polygon fill-rule="evenodd" clip-rule="evenodd" fill="#DBE1E6" points="385,331.5 381.7,331.5 376.9,327.8 375.1,329 
		384.6,338.9 385.4,345.5 385.8,345.5 384.9,336.3 392.1,329.2 391.5,329 389.7,327.9 	"/>
	<path fill-rule="evenodd" clip-rule="evenodd" fill="#FFE8BE" d="M376.8,323.2c1.8,2.3,4.2,3.9,6.5,3.9c2.3,0,4.7-1.6,6.5-3.9
		c1.9-2.4,3.2-5.6,3.2-8.7l-0.7-2.4c-0.2-0.9-0.2-1.7-0.3-2.5c0-1,0-2-0.6-2.7c-1-1.2-2.5-0.8-4.2-0.4c-1.2,0.3-2.5,0.7-3.9,0.7
		c-1.4,0-2.7-0.3-3.9-0.7h0c-1.8-0.5-3.3-0.9-4.2,0.4c-0.6,0.8-0.6,1.7-0.6,2.7c0,0.8,0,1.6-0.3,2.5l-0.7,2.4
		C373.6,317.6,374.9,320.8,376.8,323.2z"/>
	<path fill-rule="evenodd" clip-rule="evenodd" fill="#E8D6AC" d="M376.8,323.2c1.8,2.3,4.2,3.9,6.5,3.9v-19.9
		c-1.4,0-2.7-0.3-3.9-0.7h0c-1.8-0.5-3.3-0.9-4.2,0.4c-0.6,0.8-0.6,1.7-0.6,2.7c0,0.8,0,1.6-0.3,2.5l-0.7,2.4
		C373.6,317.6,374.9,320.8,376.8,323.2z"/>
	<path fill-rule="evenodd" clip-rule="evenodd" fill="#3E576F" d="M381.3,345.5h4.1c-0.4-3.7-0.9-6.5-1.3-10.2c0-0.2,0-0.4,0.1-0.5
		l1.1-2.7c0.1-0.1,0.1-0.2,0-0.3c-0.1-0.1-0.2-0.2-0.3-0.2c-1.1,0-2.2,0-3.3,0c-0.1,0-0.3,0.1-0.3,0.2c-0.1,0.1-0.1,0.2,0,0.3
		l1.1,2.7c0.1,0.2,0.2,0.3,0.1,0.5C382.2,339,381.7,341.8,381.3,345.5z"/>
	<path fill-rule="evenodd" clip-rule="evenodd" fill="#2D3F50" d="M384.1,335.3c0-0.2,0-0.4,0.1-0.5l1.1-2.7c0.1-0.1,0.1-0.2,0-0.3
		c-0.1-0.1-0.2-0.2-0.3-0.2c-1.1,0-2.2,0-3.3,0c-0.1,0-0.3,0.1-0.3,0.2c-0.1,0.1,0,0.2,0,0.3l1.1,2.7c0.1,0.2,0.2,0.3,0.1,0.5
		l-0.2,1.4l2,1.7L384.1,335.3z"/>
	<polygon fill-rule="evenodd" clip-rule="evenodd" fill="#EDF0F1" points="383.3,331.5 376.9,327.8 375.1,329 381.4,335 	"/>
	<polygon fill-rule="evenodd" clip-rule="evenodd" fill="#EDF0F1" points="383.3,331.5 389.7,327.9 391.5,329 385.3,335 	"/>
</g>
</svg>
