<?xml version="1.0" encoding="utf-8"?>
<!-- Generator: Adobe Illustrator 17.0.0, SVG Export Plug-In . SVG Version: 6.00 Build 0)  -->
<!DOCTYPE svg PUBLIC "-//W3C//DTD SVG 1.1//EN" "http://www.w3.org/Graphics/SVG/1.1/DTD/svg11.dtd">
<svg version="1.1" id="Layer_1" xmlns="http://www.w3.org/2000/svg" xmlns:xlink="http://www.w3.org/1999/xlink" x="0px" y="0px"
	 width="24px" height="24px" viewBox="0 0 24 24" enable-background="new 0 0 24 24" xml:space="preserve">
<g>
	<g>
		<g>
			<g>
				<g>
					<path fill="#FFFFFF" d="M19.932,15.599H8.06c-0.211,0-0.383,0.215-0.383,0.48v1.441c0,0.265,0.171,0.48,0.383,0.48h11.872
						c0.211,0,0.383-0.215,0.383-0.48v-1.441C20.315,15.814,20.143,15.599,19.932,15.599z"/>
					<path fill="#FFFFFF" d="M19.932,10.803H8.06c-0.211,0-0.383,0.215-0.383,0.48v1.441c0,0.265,0.171,0.48,0.383,0.48h11.872
						c0.211,0,0.383-0.215,0.383-0.48v-1.441C20.315,11.018,20.143,10.803,19.932,10.803z"/>
					<path fill="#FFFFFF" d="M19.932,6H8.06C7.849,6,7.677,6.215,7.677,6.48v1.441c0,0.265,0.171,0.48,0.383,0.48h11.872
						c0.211,0,0.383-0.215,0.383-0.48V6.48C20.315,6.215,20.143,6,19.932,6z"/>
				</g>
			</g>
		</g>
	</g>
	<text transform="matrix(1 0 0 1 3.6396 8.5532)"><tspan x="0" y="0" fill="#FFFFFF" font-family="'Times-Bold'" font-size="4.8337">1</tspan><tspan x="0" y="4.834" fill="#FFFFFF" font-family="'Times-Bold'" font-size="4.8337">2</tspan><tspan x="0" y="9.667" fill="#FFFFFF" font-family="'Times-Bold'" font-size="4.8337">3</tspan></text>
</g>
</svg>
