<?xml version="1.0" encoding="utf-8"?>
<!-- Generator: Adobe Illustrator 17.1.0, SVG Export Plug-In . SVG Version: 6.00 Build 0)  -->
<!DOCTYPE svg PUBLIC "-//W3C//DTD SVG 1.0//EN" "http://www.w3.org/TR/2001/REC-SVG-20010904/DTD/svg10.dtd">
<svg version="1.0" id="Layer_1" xmlns="http://www.w3.org/2000/svg" xmlns:xlink="http://www.w3.org/1999/xlink" x="0px" y="0px"
	 viewBox="0 0 44 44" enable-background="new 0 0 44 44" xml:space="preserve">
<g>
	<g opacity="0.8">
		<linearGradient id="SVGID_1_" gradientUnits="userSpaceOnUse" x1="22" y1="7.2261" x2="22" y2="37.4299">
			<stop  offset="0" style="stop-color:#2275DA"/>
			<stop  offset="1" style="stop-color:#639DE5"/>
		</linearGradient>
		<path fill="url(#SVGID_1_)" d="M22,8.226c7.674,0,13.895,6.314,13.895,14.102S29.674,36.43,22,36.43S8.105,30.116,8.105,22.328
			S14.326,8.226,22,8.226 M22,7.226c-8.213,0-14.895,6.775-14.895,15.102S13.787,37.43,22,37.43s14.895-6.775,14.895-15.102
			S30.213,7.226,22,7.226L22,7.226z"/>
	</g>
	<g>
		<linearGradient id="SVGID_2_" gradientUnits="userSpaceOnUse" x1="22.2027" y1="-9.094947e-12" x2="22.2027" y2="9.6182">
			<stop  offset="0" style="stop-color:#2275DA"/>
			<stop  offset="1" style="stop-color:#639DE5"/>
		</linearGradient>
		<path opacity="0.4" fill="url(#SVGID_2_)" d="M5.738,9.116C9.558,4.28,15.418,1.175,22,1.175c6.804,0,12.828,3.324,16.632,8.443
			l0.952-0.653C35.566,3.535,29.19,0,22,0C15.052,0,8.857,3.295,4.822,8.416L5.738,9.116z"/>
		<linearGradient id="SVGID_3_" gradientUnits="userSpaceOnUse" x1="8.4988" y1="18.6144" x2="8.4988" y2="44">
			<stop  offset="0" style="stop-color:#2275DA"/>
			<stop  offset="1" style="stop-color:#639DE5"/>
		</linearGradient>
		<path opacity="0.4" fill="url(#SVGID_3_)" d="M16.998,42.842c-9.09-2.277-15.84-10.585-15.84-20.514
			c0-1.146,0.115-2.261,0.287-3.358L0.33,18.614C0.129,19.825,0,21.06,0,22.328C0,32.819,7.176,41.62,16.801,44L16.998,42.842z"/>
		<linearGradient id="SVGID_4_" gradientUnits="userSpaceOnUse" x1="35.737" y1="19.2889" x2="35.737" y2="43.8766">
			<stop  offset="0" style="stop-color:#2275DA"/>
			<stop  offset="1" style="stop-color:#639DE5"/>
		</linearGradient>
		<path opacity="0.4" fill="url(#SVGID_4_)" d="M42.647,19.585c0.115,0.9,0.195,1.811,0.195,2.743
			c0,9.756-6.517,17.948-15.368,20.391l0.197,1.158C37.057,41.328,44,32.647,44,22.328c0-1.033-0.094-2.043-0.228-3.039
			L42.647,19.585z"/>
	</g>
	<g>
		<linearGradient id="SVGID_5_" gradientUnits="userSpaceOnUse" x1="22" y1="9.5767" x2="22" y2="35.0796">
			<stop  offset="0" style="stop-color:#2275DA"/>
			<stop  offset="1" style="stop-color:#639DE5"/>
		</linearGradient>
		<path fill="url(#SVGID_5_)" d="M22,35.08c-6.937,0-12.579-5.72-12.579-12.751S15.063,9.577,22,9.577s12.579,5.72,12.579,12.751
			S28.937,35.08,22,35.08z"/>
		<g>
			<path fill="#FFFFFF" d="M22,10.576c6.395,0,11.579,5.261,11.579,11.752S28.395,34.08,22,34.08s-11.579-5.261-11.579-11.752
				S15.605,10.576,22,10.576 M22,8.576c-7.487,0-13.579,6.169-13.579,13.752S14.513,36.08,22,36.08s13.579-6.169,13.579-13.752
				S29.487,8.576,22,8.576L22,8.576z"/>
		</g>
	</g>
	<g>
		<linearGradient id="SVGID_6_" gradientUnits="userSpaceOnUse" x1="33.705" y1="20.1784" x2="33.705" y2="40.3944">
			<stop  offset="0" style="stop-color:#2275DA"/>
			<stop  offset="1" style="stop-color:#639DE5"/>
		</linearGradient>
		<path opacity="0.6" fill="url(#SVGID_6_)" d="M39.271,20.475c0.063,0.609,0.097,1.227,0.097,1.853
			c0,8.013-5.272,14.765-12.485,16.908l0.196,1.158c7.75-2.249,13.446-9.488,13.446-18.066c0-0.728-0.051-1.443-0.131-2.15
			L39.271,20.475z"/>
		<linearGradient id="SVGID_7_" gradientUnits="userSpaceOnUse" x1="22.1498" y1="3.5255" x2="22.1498" y2="11.5939">
			<stop  offset="0" style="stop-color:#2275DA"/>
			<stop  offset="1" style="stop-color:#639DE5"/>
		</linearGradient>
		<path opacity="0.6" fill="url(#SVGID_7_)" d="M8.51,11.235C11.694,7.251,16.551,4.701,22,4.701c5.607,0,10.579,2.708,13.755,6.893
			l0.953-0.654C33.319,6.444,27.995,3.525,22,3.525c-5.816,0-11.008,2.74-14.408,7.008L8.51,11.235z"/>
		<linearGradient id="SVGID_8_" gradientUnits="userSpaceOnUse" x1="10.5307" y1="19.6835" x2="10.5307" y2="40.5178">
			<stop  offset="0" style="stop-color:#2275DA"/>
			<stop  offset="1" style="stop-color:#639DE5"/>
		</linearGradient>
		<path opacity="0.6" fill="url(#SVGID_8_)" d="M17.588,39.359c-7.451-1.984-12.956-8.846-12.956-17.031
			c0-0.777,0.067-1.538,0.163-2.288l-1.115-0.356c-0.121,0.866-0.205,1.745-0.205,2.644c0,8.751,5.929,16.102,13.918,18.19
			L17.588,39.359z"/>
	</g>
</g>
</svg>
