<?xml version="1.0" encoding="utf-8"?>
<!-- Generator: Adobe Illustrator 17.0.0, SVG Export Plug-In . SVG Version: 6.00 Build 0)  -->
<!DOCTYPE svg PUBLIC "-//W3C//DTD SVG 1.1//EN" "http://www.w3.org/Graphics/SVG/1.1/DTD/svg11.dtd">
<svg version="1.1" xmlns="http://www.w3.org/2000/svg" xmlns:xlink="http://www.w3.org/1999/xlink" x="0px" y="0px" width="32px"
	 height="32px" viewBox="0 0 32 32" enable-background="new 0 0 32 32" xml:space="preserve">
<g id="Layer_1">
</g>
<g id="icons">
	<g>
		<path opacity="0.6" fill="#4C5355" d="M14,2v27h9V2H14z M16.481,25.243h-1.778v-1.778h1.778V25.243z M16.481,22.28h-1.778v-1.778
			h1.778V22.28z M16.481,19.317h-1.778v-1.778h1.778V19.317z M16.481,16.354h-1.778v-1.778h1.778V16.354z M16.481,13.391h-1.778
			v-1.778h1.778V13.391z M16.481,10.428h-1.778V8.65h1.778V10.428z M16.481,7.465h-1.778V5.687h1.778V7.465z M16.481,4.502h-1.778
			V2.724h1.778V4.502z M19.444,25.243h-1.778v-1.778h1.778V25.243z M19.444,22.28h-1.778v-1.778h1.778V22.28z M19.444,19.317h-1.778
			v-1.778h1.778V19.317z M19.444,16.354h-1.778v-1.778h1.778V16.354z M19.444,13.391h-1.778v-1.778h1.778V13.391z M19.444,10.428
			h-1.778V8.65h1.778V10.428z M19.444,7.465h-1.778V5.687h1.778V7.465z M19.444,4.502h-1.778V2.724h1.778V4.502z M22.407,25.243
			H20.63v-1.778h1.778V25.243z M22.407,22.28H20.63v-1.778h1.778V22.28z M22.407,19.317H20.63v-1.778h1.778V19.317z M22.407,16.354
			H20.63v-1.778h1.778V16.354z M22.407,13.391H20.63v-1.778h1.778V13.391z M22.407,10.428H20.63V8.65h1.778V10.428z M22.407,7.465
			H20.63V5.687h1.778V7.465z M22.407,4.502H20.63V2.724h1.778V4.502z"/>
		<path fill="#FFFFFF" d="M14,9v20h3V9H14z"/>
		<path fill="#4C5355" d="M7,10v19h9V10H7z M8,13h3v2H8V13z M8,17h3v2H8V17z M8,21h3v2H8V21z M13,28h-3v-3h3V28z M15,23h-3v-2h3V23z
			 M15,19h-3v-2h3V19z M15,15h-3v-2h3V15z"/>
	</g>
</g>
</svg>
