<?xml version="1.0" encoding="utf-8"?>
<!-- Generator: Adobe Illustrator 17.0.0, SVG Export Plug-In . SVG Version: 6.00 Build 0)  -->
<!DOCTYPE svg PUBLIC "-//W3C//DTD SVG 1.1//EN" "http://www.w3.org/Graphics/SVG/1.1/DTD/svg11.dtd">
<svg version="1.1" xmlns="http://www.w3.org/2000/svg" xmlns:xlink="http://www.w3.org/1999/xlink" x="0px" y="0px" width="32px"
	 height="32px" viewBox="0 0 32 32" enable-background="new 0 0 32 32" xml:space="preserve">
<g id="Layer_1">
</g>
<g id="icons">
	<g>
		<g>
			<path fill="#CCCCCC" d="M16,3.769c-6.744,0-12.231,5.486-12.231,12.23S9.256,28.23,16,28.23c6.744,0,12.231-5.487,12.231-12.231
				S22.744,3.769,16,3.769z M16.742,18.253l-6.199,2.632c-0.199,0.086-0.389,0.127-0.593,0.127c-0.566,0-1.071-0.312-1.319-0.84
				c-0.338-0.719,0.065-1.564,0.813-1.889l6.207-2.632C15.673,15.642,16,15.645,16,15.636V7.997c0-0.344,0.156-0.623,0.5-0.623
				S17,7.653,17,7.997v7.723c0,0.143,0.356,0.35,0.494,0.645C17.832,17.083,17.49,17.928,16.742,18.253z"/>
			<g id="clock_15_">
				<g>
					<path fill="#999999" d="M16,3.769c6.744,0,12.231,5.486,12.231,12.23S22.744,28.23,16,28.23
						c-6.744,0-12.231-5.487-12.231-12.231S9.256,3.769,16,3.769 M16,0C7.178,0,0,7.177,0,15.999c0,8.822,7.178,16,16,16
						s16-7.178,16-16C32,7.177,24.822,0,16,0L16,0z"/>
				</g>
			</g>
		</g>
		<g>
			<path fill="#CCCCCC" d="M16,3.769c-6.744,0-12.231,5.486-12.231,12.23S9.256,28.23,16,28.23c6.744,0,12.231-5.487,12.231-12.231
				S22.744,3.769,16,3.769z"/>
			<g id="clock_14_">
				<g>
					<path fill="#999999" d="M16,3.769c6.744,0,12.231,5.486,12.231,12.23S22.744,28.23,16,28.23
						c-6.744,0-12.231-5.487-12.231-12.231S9.256,3.769,16,3.769 M16,0C7.178,0,0,7.177,0,15.999c0,8.822,7.178,16,16,16
						s16-7.178,16-16C32,7.177,24.822,0,16,0L16,0z"/>
				</g>
			</g>
		</g>
		<g id="clock_13_">
			<path fill="#FFFFFF" d="M16.454,17.268c-0.453,0-0.819-0.367-0.819-0.819V6.063c0-0.452,0.366-0.819,0.819-0.819
				s0.819,0.367,0.819,0.819V16.45C17.273,16.902,16.907,17.268,16.454,17.268z"/>
			<path fill="#FFFFFF" d="M9.752,21.106c-0.624,0-1.219-0.358-1.493-0.964c-0.373-0.824-0.006-1.794,0.818-2.166l6.685-3.019
				c0.825-0.371,1.794-0.006,2.166,0.818c0.373,0.824,0.006,1.794-0.818,2.166l-6.685,3.019C10.206,21.06,9.978,21.106,9.752,21.106
				z"/>
		</g>
	</g>
</g>
</svg>
