<svg version="1.1" xmlns="http://www.w3.org/2000/svg" xmlns:xlink="http://www.w3.org/1999/xlink" x="0px" y="0px"
	 viewBox="0 0 24 24" enable-background="new 0 0 24 24" xml:space="preserve">
<g>
	<g>
		<circle fill="#FFFFFF" cx="11.5" cy="13.5" r="10.5"/>
	</g>
	<path opacity="0.75" fill="#828788" d="M12.8,1.9h-2.6V1c0-0.5,0.4-1,0.9-1h0.9c0.5,0,0.9,0.4,0.9,1V1.9z"/>
	<rect x="10.7" y="1.9" opacity="0.75" fill="#828788" width="1.6" height="1.5"/>
	<polygon opacity="0.75" fill="#828788" points="17.2,4.9 18.5,5.8 19.5,4.4 18.2,3.5 	"/>
	<polyline fill="#FF0000" points="11.4,14.6 8.5,8.3 11.9,14.4 	"/>
	<path fill="#4C5355" d="M11.4,14.8c0.3,0.1,0.6,0,0.7-0.3L15,8.4c0.1-0.3,0-0.6-0.3-0.7s-0.6,0-0.7,0.3l-2.9,6.2
		C11,14.4,11.1,14.7,11.4,14.8z"/>
	<path fill="#4C5355" d="M4.4,14.4c0,0.2-0.1,0.3-0.3,0.3H3.2c-0.2,0-0.3-0.1-0.3-0.3v0.1c0-0.2,0.1-0.3,0.3-0.3H4
		C4.2,14.1,4.4,14.3,4.4,14.4L4.4,14.4z"/>
	<path fill="#4C5355" d="M20.1,14.4c0,0.2-0.1,0.3-0.3,0.3H19c-0.2,0-0.3-0.1-0.3-0.3v0.1c0-0.2,0.1-0.3,0.3-0.3h0.8
		C20,14.1,20.1,14.3,20.1,14.4L20.1,14.4z"/>
	<path fill="#4C5355" d="M11.8,6.3c0,0.2-0.1,0.3-0.3,0.3l0,0c-0.2,0-0.3-0.1-0.3-0.3V5.3c0-0.2,0.1-0.3,0.3-0.3l0,0
		c0.2,0,0.3,0.1,0.3,0.3V6.3z"/>
	<path fill="#4C5355" d="M11.8,22.8c0,0.2-0.1,0.3-0.3,0.3l0,0c-0.2,0-0.3-0.1-0.3-0.3v-0.9c0-0.2,0.1-0.3,0.3-0.3l0,0
		c0.2,0,0.3,0.1,0.3,0.3V22.8z"/>
	<g>
		<path fill="#828788" d="M11.5,4c5.2,0,9.5,4.3,9.5,9.5S16.7,23,11.5,23S2,18.7,2,13.5S6.3,4,11.5,4 M11.5,3C5.7,3,1,7.7,1,13.5
			S5.7,24,11.5,24S22,19.3,22,13.5S17.3,3,11.5,3L11.5,3z"/>
	</g>
</g>
<g id="guide" opacity="0.5"></g>
</svg>
