<?xml version="1.0" encoding="utf-8"?>
<!-- Generator: Adobe Illustrator 17.1.0, SVG Export Plug-In . SVG Version: 6.00 Build 0)  -->
<!DOCTYPE svg PUBLIC "-//W3C//DTD SVG 1.0//EN" "http://www.w3.org/TR/2001/REC-SVG-20010904/DTD/svg10.dtd">
<svg version="1.0" id="Layer_1" xmlns="http://www.w3.org/2000/svg" xmlns:xlink="http://www.w3.org/1999/xlink" x="0px" y="0px"
	 viewBox="0 0 20 20" enable-background="new 0 0 20 20" xml:space="preserve">
<path fill="#828788" d="M11,4.932C11,5.246,10.661,6,10.242,6H6.758C6.339,6,6,5.246,6,4.932V4.568C6,4.254,6.339,4,6.758,4h3.484
	C10.661,4,11,4.254,11,4.568V4.932z"/>
<g opacity="0.4">
	<g>
		<path fill="#828788" d="M14.902,10.949c0.173,0.72,0.577,1.979-0.4,2.24c-0.611,0.163-1.313,0.024-1.941,0.096
			c-0.717,0.082-1.342,0.433-1.911,0.858c-0.745,0.557-1.044,1.276-1.628,0.228c-0.471-0.845-1.766-0.089-1.295,0.757
			c0.493,0.885,1.285,1.779,2.386,1.262c1.152-0.54,1.743-1.638,3.147-1.649c0.874-0.007,1.978,0.061,2.655-0.614
			c0.967-0.964,0.722-2.374,0.432-3.577C16.122,9.61,14.676,10.009,14.902,10.949L14.902,10.949z"/>
	</g>
</g>
<g>
	<path fill="#5D5D5D" d="M5.088,8.617c0.043,0.045,0.074,0.097,0.101,0.151l2.667,5.351c0.065,0.131,0.152,0.237,0.347,0.295V9.432
		C7.805,9.334,7.531,9.032,7.54,8.676C7.55,8.273,7.939,7.934,8.414,7.92C8.932,7.905,9.37,8.257,9.37,8.693
		c0,0.362-0.29,0.665-0.68,0.749v4.979c0.098-0.056,0.271-0.165,0.339-0.303l2.616-5.295c0.045-0.09,0.103-0.173,0.167-0.255
		c0.182-0.234,0.15-0.552-0.093-0.758l-1.494-1.265c-0.094-0.08-0.222-0.125-0.355-0.125H6.986c-0.133,0-0.261,0.045-0.355,0.125
		L5.137,7.811C4.876,8.031,4.86,8.38,5.088,8.617z"/>
</g>
<g>
	<g>
		<g>
			<path fill="#4C5355" d="M15.222,3C16.08,3,17,3.698,17,4.557v2.599v6.007v2.281C17,16.302,16.302,17,15.444,17h-2.6H4.556
				C3.698,17,3,16.302,3,15.444V4.556c0-0.073,0.014-0.142,0.027-0.227C3.033,4.29,3.037,4.249,3.04,4.203
				C3.1,3.949,3.232,3.707,3.428,3.497l0.028-0.033c0.021-0.017,0.041-0.034,0.06-0.051c0.205-0.187,0.443-0.315,0.69-0.372
				C4.25,3.037,4.297,3.032,4.372,3.021C4.432,3.012,4.493,3,4.557,3h8.606H15 M15.444,2h-2.281H4.557h0
				C4.432,2,4.312,2.019,4.192,2.037c-0.05,0.007-0.102,0.005-0.15,0.015c-0.458,0.094-0.865,0.317-1.199,0.62
				C2.813,2.7,2.778,2.721,2.75,2.75C2.728,2.772,2.711,2.799,2.69,2.822c-0.313,0.337-0.542,0.753-0.638,1.22
				C2.043,4.086,2.045,4.134,2.038,4.178C2.02,4.303,2,4.427,2,4.556v0v10.887v0C2,16.854,3.146,18,4.556,18h0h8.288h2.6
				C16.854,18,18,16.853,18,15.444v-2.281V7.155V4.557C18,3.147,16.854,2,15.444,2L15.444,2z"/>
		</g>
	</g>
</g>
</svg>
