<?xml version="1.0" encoding="utf-8"?>
<!-- Generator: Adobe Illustrator 17.0.0, SVG Export Plug-In . SVG Version: 6.00 Build 0)  -->
<!DOCTYPE svg PUBLIC "-//W3C//DTD SVG 1.1//EN" "http://www.w3.org/Graphics/SVG/1.1/DTD/svg11.dtd">
<svg version="1.1" id="Layer_1" xmlns="http://www.w3.org/2000/svg" xmlns:xlink="http://www.w3.org/1999/xlink" x="0px" y="0px"
	 width="21px" height="21px" viewBox="0 0 21 21" enable-background="new 0 0 21 21" xml:space="preserve">
<path fill="#B9B9B9" d="M21,18c0,1.657-1.341,3-2.995,3H2.995C1.341,21,0,19.657,0,18V3c0-1.657,1.341-3,2.995-3h15.01
	C19.659,0,21,1.343,21,3V18z"/>
<g>
	<path fill="#FFFFFF" d="M18.188,9.258l-3.443,3.356l0.813,4.739c0.035,0.21-0.051,0.421-0.22,0.54
		C15.242,17.963,15.128,18,15.014,18c-0.087,0-0.178-0.02-0.257-0.062L10.5,15.697l-4.256,2.241
		c-0.187,0.096-0.411,0.079-0.583-0.045c-0.169-0.119-0.255-0.33-0.218-0.54l0.812-4.739L2.811,9.258
		c-0.15-0.15-0.205-0.369-0.139-0.57c0.065-0.197,0.238-0.342,0.446-0.37l4.759-0.695l2.129-4.313C10.098,3.124,10.291,3,10.5,3
		c0.21,0,0.401,0.124,0.496,0.31l2.128,4.313l4.76,0.695c0.207,0.028,0.38,0.173,0.445,0.37C18.393,8.89,18.338,9.109,18.188,9.258z
		"/>
</g>
</svg>
