<?xml version="1.0" encoding="utf-8"?>
<!-- Generator: Adobe Illustrator 18.0.0, SVG Export Plug-In . SVG Version: 6.00 Build 0)  -->
<!DOCTYPE svg PUBLIC "-//W3C//DTD SVG 1.1//EN" "http://www.w3.org/Graphics/SVG/1.1/DTD/svg11.dtd">
<svg version="1.1" id="Layer_1" xmlns="http://www.w3.org/2000/svg" xmlns:xlink="http://www.w3.org/1999/xlink" x="0px" y="0px"
	 viewBox="0 0 10 11.5" enable-background="new 0 0 10 11.5" xml:space="preserve">
<g>
	<g>
		<g>
			<path fill="#FFFFFF" d="M4.2,1L3.5,0H0v7.3h1.8L4.1,5c0.5-0.5,1.3-0.5,1.8,0l2.3,2.3H10V1H4.2z"/>
		</g>
	</g>
	<g>
		<path fill="#FFFFFF" d="M5,5.9c-0.2,0-0.4,0.1-0.5,0.2L2,8.6C1.7,8.9,1.8,9.1,1.8,9.2c0,0.1,0.2,0.3,0.6,0.3l0.8,0v1.6
			c0,0.2,0.2,0.4,0.4,0.4h2.8c0.2,0,0.4-0.2,0.4-0.4V9.6l0.8,0c0.4,0,0.6-0.2,0.6-0.3c0-0.1,0.1-0.4-0.2-0.7L5.5,6.1
			C5.4,5.9,5.2,5.9,5,5.9L5,5.9z"/>
	</g>
</g>
</svg>
