<?xml version="1.0" encoding="utf-8"?>
<!-- Generator: Adobe Illustrator 19.1.0, SVG Export Plug-In . SVG Version: 6.00 Build 0)  -->
<svg version="1.0" id="Layer_1" xmlns="http://www.w3.org/2000/svg" xmlns:xlink="http://www.w3.org/1999/xlink" x="0px" y="0px"
	 viewBox="0 0 500 500" enable-background="new 0 0 500 500" xml:space="preserve">
<g>
	<circle fill="#95D9F1" cx="250" cy="250" r="200"/>
</g>
<g>
	<defs>
		<circle id="SVGID_26_" cx="250" cy="250" r="200"/>
	</defs>
	<clipPath id="SVGID_2_">
		<use xlink:href="#SVGID_26_"  overflow="visible"/>
	</clipPath>
	<path clip-path="url(#SVGID_2_)" fill-rule="evenodd" clip-rule="evenodd" fill="#71C9E9" d="M450,282.8L440,450H262.8l-85-85
		c-1.1-0.8-2.1-1.7-2.9-2.9c-0.4-0.6-0.7-1.2-1-1.8c-0.3-0.6-0.5-1.3-0.6-2c-0.1-0.7-0.2-1.4-0.2-2.1V170.7c0-0.7,0.1-1.4,0.2-2.1
		c0.1-0.7,0.3-1.3,0.6-2c0.3-0.6,0.6-1.2,1-1.8c0.4-0.6,0.8-1.1,1.3-1.6c0.5-0.5,1-0.9,1.6-1.3c0.6-0.4,1.2-0.7,1.8-1
		c0.6-0.3,1.3-0.5,2-0.6c0.7-0.1,1.4-0.2,2.1-0.2H208h11.7h3.5h60.5h3.5h13.4h22.6c0.7,0,1.4,0.1,2.1,0.2c0.7,0.1,1.3,0.3,2,0.6
		c0.6,0.3,1.2,0.6,1.8,1c0.6,0.4,1.1,0.8,1.6,1.3c0.5,0.5,0.9,1,1.3,1.6L450,282.8z"/>
</g>
<g>
	<path fill-rule="evenodd" clip-rule="evenodd" fill="#2D3F50" d="M173.7,356.8h139.6c5.8,0,10.5-4.7,10.5-10.6V160.7
		c0-5.8-4.7-10.5-10.5-10.5h-22.6h-13.4h-67.5H198h-24.3c-5.8,0-10.5,4.7-10.5,10.5v185.5C163.1,352,167.9,356.8,173.7,356.8z"/>
	<path fill-rule="evenodd" clip-rule="evenodd" fill="#EDF0F1" d="M307,165.2v176.6H180V165.2C222.3,165.2,264.6,165.2,307,165.2z"
		/>
	<rect x="180" y="165.2" fill-rule="evenodd" clip-rule="evenodd" fill="#DBE1E6" width="63.5" height="176.6"/>
	<path fill-rule="evenodd" clip-rule="evenodd" fill="#676767" d="M213.2,180.1v-29.9h60.5v29.9H213.2L213.2,180.1z M266.8,174.2
		c0-6.5,0-11.6,0-18.1c-15.6,0-31.1,0-46.7,0c0,6.5,0,11.6,0,18.1C235.7,174.2,251.2,174.2,266.8,174.2z"/>
	<path fill-rule="evenodd" clip-rule="evenodd" fill="#E02B29" d="M199.5,208.6L199.5,208.6c2.5,0,4.5,2,4.5,4.5l0,0
		c0,2.5-2,4.5-4.5,4.5l0,0c-2.5,0-4.5-2-4.5-4.5l0,0C194.9,210.6,197,208.6,199.5,208.6z"/>
	<path fill-rule="evenodd" clip-rule="evenodd" fill="#FFCB0B" d="M199.5,232.9L199.5,232.9c2.5,0,4.5,2,4.5,4.5l0,0
		c0,2.5-2,4.5-4.5,4.5l0,0c-2.5,0-4.5-2-4.5-4.5l0,0C194.9,234.9,197,232.9,199.5,232.9z"/>
	<path fill-rule="evenodd" clip-rule="evenodd" fill="#7392CB" d="M199.5,258.8L199.5,258.8c2.5,0,4.5,2,4.5,4.5l0,0
		c0,2.5-2,4.5-4.5,4.5l0,0c-2.5,0-4.5-2-4.5-4.5l0,0C194.9,260.8,197,258.8,199.5,258.8z"/>
	<rect x="213.2" y="210.8" fill-rule="evenodd" clip-rule="evenodd" fill="#2D3F50" width="70.3" height="4.5"/>
	<rect x="213.2" y="235.2" fill-rule="evenodd" clip-rule="evenodd" fill="#2D3F50" width="76" height="4.5"/>
	<rect x="213.2" y="261" fill-rule="evenodd" clip-rule="evenodd" fill="#2D3F50" width="59.8" height="4.5"/>
	<path fill-rule="evenodd" clip-rule="evenodd" fill="#989898" d="M213.2,165.1v-14.9h60.5v14.9h-6.9v-9.1c-15.6,0-31.1,0-46.7,0
		v9.1H213.2z"/>
</g>
</svg>
