<?xml version="1.0" encoding="utf-8"?>
<!-- Generator: Adobe Illustrator 17.1.0, SVG Export Plug-In . SVG Version: 6.00 Build 0)  -->
<!DOCTYPE svg PUBLIC "-//W3C//DTD SVG 1.0//EN" "http://www.w3.org/TR/2001/REC-SVG-20010904/DTD/svg10.dtd">
<svg version="1.0" id="Layer_1" xmlns="http://www.w3.org/2000/svg" xmlns:xlink="http://www.w3.org/1999/xlink" x="0px" y="0px"
	 viewBox="0 0 20 20" enable-background="new 0 0 20 20" xml:space="preserve">
<g>
	<path fill="#4C5355" d="M10,0C4.477,0,0,4.477,0,10s4.477,10,10,10s10-4.478,10-10S15.523,0,10,0z"/>
	<g>
		<path fill="#FFFFFF" d="M11.488,6.05c0,0.381-0.127,0.527-0.508,0.527H9.111c-0.381,0-0.527-0.146-0.527-0.527V4.544
			C8.585,4.164,8.73,4,9.111,4h1.869c0.381,0,0.508,0.164,0.508,0.544V6.05z M11.488,15.025c0,0.381-0.127,0.544-0.508,0.544H9.111
			c-0.381,0-0.527-0.164-0.527-0.544v-6.48C8.585,8.164,8.73,8,9.111,8h1.869c0.381,0,0.508,0.164,0.508,0.544V15.025z"/>
	</g>
</g>
</svg>
