<?xml version="1.0" encoding="UTF-8"?>
<svg width="200px" height="46px" viewBox="0 0 200 46" version="1.1" xmlns="http://www.w3.org/2000/svg" xmlns:xlink="http://www.w3.org/1999/xlink">
    <!-- Generator: sketchtool 42 (36781) - http://www.bohemiancoding.com/sketch -->
    <title>E2B99DA1-B80C-466E-8FB1-57542A7FD733</title>
    <desc>Created with sketchtool.</desc>
    <defs></defs>
    <g id="Styles-+-Patterns" stroke="none" stroke-width="1" fill="none" fill-rule="evenodd">
        <g id="Logos" transform="translate(-158.000000, -1009.000000)" fill="#F89720">
            <g id="work.market.logo.orange" transform="translate(158.000000, 1009.000000)">
                <g id="Layer_1">
                    <g id="Group">
                        <path d="M39.7709924,0 L6.03053435,0 C2.69720102,0 0,2.69720102 0,6.03053435 L0,39.7455471 C0,43.0788804 2.69720102,45.7760814 6.03053435,45.7760814 L39.7455471,45.7760814 C43.0788804,45.7760814 45.7760814,43.0788804 45.7760814,39.7455471 L45.7760814,6.03053435 C45.8015267,2.69720102 43.1043257,0 39.7709924,0 L39.7709924,0 Z M40.4580153,29.4910941 C40.2290076,29.5928753 40,29.6437659 39.7709924,29.6437659 C39.1348601,29.6437659 38.524173,29.2875318 38.2442748,28.6513995 L34.9363868,21.3231552 L31.6284987,28.6513995 C31.3486005,29.2366412 30.7633588,29.6437659 30.1017812,29.6437659 C29.4402036,29.6437659 28.8549618,29.2620865 28.5750636,28.6513995 L25.2671756,21.3231552 L21.9592875,28.6513995 C21.6793893,29.2366412 21.0941476,29.6437659 20.43257,29.6437659 C19.7709924,29.6437659 19.1857506,29.2620865 18.9058524,28.6513995 L15.5979644,21.3231552 L12.2900763,28.7022901 C12.0101781,29.2875318 11.4249364,29.7455471 10.7633588,29.7455471 L10.7633588,29.7455471 C10.1017812,29.7455471 9.51653944,29.3129771 9.23664122,28.7022901 L4.40203562,17.9898219 C4.02035623,17.1501272 4.40203562,16.1577608 5.24173028,15.7760814 C6.08142494,15.394402 7.07379135,15.7506361 7.45547074,16.5903308 L10.7633588,23.9185751 L14.0712468,16.5903308 C14.351145,16.0050891 14.9363868,15.6234097 15.5979644,15.6234097 L15.5979644,15.6234097 C16.259542,15.6234097 16.8447837,15.9796438 17.1246819,16.5903308 L20.43257,23.9185751 L23.740458,16.5903308 C24.0203562,16.0050891 24.605598,15.5979644 25.2671756,15.5979644 C25.9287532,15.5979644 26.5139949,15.9796438 26.7938931,16.5648855 L30.1017812,23.8931298 L33.4096692,16.5648855 C33.6895674,15.9796438 34.2748092,15.5725191 34.9363868,15.5725191 C35.5979644,15.5725191 36.1832061,15.9541985 36.4631043,16.5648855 L41.2977099,27.2519084 C41.6793893,28.1424936 41.2977099,29.1094148 40.4580153,29.4910941 L40.4580153,29.4910941 Z" id="Shape"></path>
                        <path d="M73.6132316,28.9058524 C73.4605598,29.389313 73.3842239,29.56743 72.9007634,29.56743 L70.0508906,29.56743 C69.5419847,29.56743 69.4147583,29.3384224 69.3129771,28.9058524 L67.7099237,22.0610687 C67.5572519,21.475827 67.4554707,20.6870229 67.4554707,20.5343511 C67.4300254,20.6361323 67.2773537,21.3231552 67.0737913,22.0610687 L65.0890585,28.9058524 C64.9618321,29.3384224 64.8600509,29.56743 64.3765903,29.56743 L61.5776081,29.56743 C61.0687023,29.56743 60.9414758,29.3638677 60.8142494,28.9058524 L57.3282443,15.9287532 C57.1755725,15.4452926 57.5063613,15.216285 58.0152672,15.216285 L60.3053435,15.216285 C60.8142494,15.216285 60.9923664,15.4961832 61.1195929,15.9287532 L63.1043257,23.4860051 C63.2569975,24.0966921 63.307888,24.783715 63.3333333,24.8600509 C63.3333333,24.783715 63.5368957,23.9694656 63.6895674,23.4860051 L65.8015267,15.9287532 C65.9287532,15.4961832 66.0814249,15.216285 66.5903308,15.216285 L68.9058524,15.216285 C69.4147583,15.216285 69.6183206,15.4961832 69.7201018,15.9287532 L71.475827,23.4860051 C71.6284987,24.1475827 71.7048346,24.7328244 71.7302799,24.8346056 C71.7302799,24.783715 71.9083969,24.0203562 72.0356234,23.4860051 L73.9949109,15.9287532 C74.1221374,15.4961832 74.2748092,15.216285 74.8091603,15.216285 L76.7175573,15.216285 C77.2010178,15.216285 77.5318066,15.4452926 77.3791349,15.9287532 L73.6132316,28.9058524 L73.6132316,28.9058524 Z" id="Shape"></path>
                        <path d="M78.5496183,19.2111959 C78.5496183,16.6412214 80.5343511,14.9618321 84.783715,14.9618321 C89.0330789,14.9618321 91.0178117,16.6412214 91.0178117,19.2111959 L91.0178117,25.5216285 C91.0178117,28.1170483 89.0330789,29.7964377 84.783715,29.7964377 C80.5343511,29.7964377 78.5496183,28.1170483 78.5496183,25.5216285 L78.5496183,19.2111959 L78.5496183,19.2111959 Z M87.2264631,19.5165394 C87.2264631,18.4478372 86.3867684,17.9643766 84.783715,17.9643766 C83.1806616,17.9643766 82.3409669,18.4478372 82.3409669,19.5165394 L82.3409669,25.1908397 C82.3409669,26.2849873 83.1806616,26.7684478 84.783715,26.7684478 C86.4122137,26.7684478 87.2264631,26.2849873 87.2264631,25.1908397 L87.2264631,19.5165394 L87.2264631,19.5165394 Z" id="Shape"></path>
                        <path d="M101.959288,15.648855 L101.959288,17.5063613 C101.959288,18.0152672 101.73028,18.2188295 101.221374,18.2442748 C99.1094148,18.3969466 97.7099237,19.3638677 97.0737913,19.9491094 L97.0737913,28.8040712 C97.0737913,29.3129771 96.8956743,29.5419847 96.4122137,29.5419847 L94.0203562,29.5419847 C93.5114504,29.5419847 93.307888,29.3129771 93.307888,28.8040712 L93.307888,15.8778626 C93.307888,15.394402 93.5114504,15.1908397 94.0203562,15.1908397 L96.2340967,15.1908397 C96.7430025,15.1908397 96.8956743,15.394402 96.9211196,15.8778626 L96.9974555,16.8956743 C97.735369,16.0814249 99.1348601,14.9618321 101.221374,14.9618321 C101.73028,14.9618321 101.959288,15.1653944 101.959288,15.648855 L101.959288,15.648855 Z" id="Shape"></path>
                        <path d="M116.081425,28.8295165 C116.310433,29.1857506 116.234097,29.5419847 115.725191,29.5419847 L113.104326,29.5419847 C112.620865,29.5419847 112.315522,29.1857506 112.061069,28.8295165 L108.015267,22.9516539 L107.379135,22.9516539 L107.379135,28.8295165 C107.379135,29.3129771 107.201018,29.5419847 106.717557,29.5419847 L104.3257,29.5419847 C103.816794,29.5419847 103.613232,29.3129771 103.613232,28.8295165 L103.613232,10.1272265 C103.613232,9.6437659 103.816794,9.41475827 104.3257,9.41475827 L106.717557,9.41475827 C107.201018,9.41475827 107.379135,9.6437659 107.379135,10.1272265 L107.379135,20.1017812 L108.015267,20.1017812 L111.603053,15.9287532 C111.908397,15.5725191 112.264631,15.216285 112.748092,15.216285 L115.343511,15.216285 C115.826972,15.216285 115.979644,15.5979644 115.699746,15.9287532 L111.017812,21.3994911 L116.081425,28.8295165 L116.081425,28.8295165 Z" id="Shape"></path>
                        <path d="M139.312977,19.1094148 C139.312977,16.5394402 141.017812,14.9618321 145.139949,14.9618321 C149.363868,14.9618321 150.941476,16.5394402 150.941476,19.1094148 L150.941476,28.8040712 C150.941476,29.3129771 150.737913,29.5419847 150.254453,29.5419847 L148.091603,29.5419847 C147.582697,29.5419847 147.455471,29.3129771 147.40458,28.8040712 L147.35369,28.1933842 C146.513995,28.8804071 145.114504,29.7709924 143.07888,29.7709924 C140.254453,29.7709924 138.931298,28.0661578 138.931298,26.1577608 L138.931298,24.8600509 C138.931298,22.9262087 140.407125,21.221374 143.256997,21.221374 L147.226463,21.221374 L147.226463,19.3638677 C147.226463,18.3206107 146.743003,17.7608142 145.063613,17.7608142 C143.409669,17.7608142 142.849873,18.2188295 142.849873,19.2620865 L142.849873,19.4656489 C142.849873,19.9745547 142.64631,20.178117 142.16285,20.178117 L140.025445,20.178117 C139.516539,20.178117 139.338422,19.9745547 139.338422,19.4656489 L139.338422,19.1094148 L139.312977,19.1094148 Z M147.201018,25.5470738 L147.201018,23.8931298 L143.969466,23.8931298 C142.849873,23.8931298 142.59542,24.4529262 142.59542,25.1908397 L142.59542,25.648855 C142.59542,26.5139949 143.180662,26.7684478 144.045802,26.7684478 C145.368957,26.7938931 146.53944,26.0305344 147.201018,25.5470738 L147.201018,25.5470738 Z" id="Shape" opacity="0.5"></path>
                        <path d="M161.882952,15.648855 L161.882952,17.5063613 C161.882952,18.0152672 161.653944,18.2188295 161.119593,18.2442748 C159.007634,18.3969466 157.608142,19.3638677 156.97201,19.9491094 L156.97201,28.8040712 C156.97201,29.3129771 156.793893,29.5419847 156.310433,29.5419847 L153.94402,29.5419847 C153.435115,29.5419847 153.231552,29.3129771 153.231552,28.8040712 L153.231552,15.8778626 C153.231552,15.394402 153.435115,15.1908397 153.94402,15.1908397 L156.157761,15.1908397 C156.666667,15.1908397 156.819338,15.394402 156.844784,15.8778626 L156.92112,16.8956743 C157.659033,16.0814249 159.058524,14.9618321 161.145038,14.9618321 C161.653944,14.9618321 161.882952,15.1653944 161.882952,15.648855 L161.882952,15.648855 Z" id="Shape" opacity="0.5"></path>
                        <path d="M176.10687,28.8295165 C176.335878,29.1857506 176.259542,29.5419847 175.750636,29.5419847 L173.129771,29.5419847 C172.64631,29.5419847 172.340967,29.1857506 172.086514,28.8295165 L168.040712,22.9516539 L167.430025,22.9516539 L167.430025,28.8295165 C167.430025,29.3129771 167.251908,29.5419847 166.768448,29.5419847 L164.37659,29.5419847 C163.867684,29.5419847 163.664122,29.3129771 163.664122,28.8295165 L163.664122,10.1272265 C163.664122,9.6437659 163.867684,9.41475827 164.37659,9.41475827 L166.768448,9.41475827 C167.251908,9.41475827 167.430025,9.6437659 167.430025,10.1272265 L167.430025,20.1017812 L168.066158,20.1017812 L171.653944,15.9287532 C171.959288,15.5725191 172.315522,15.216285 172.798982,15.216285 L175.394402,15.216285 C175.877863,15.216285 176.030534,15.5979644 175.750636,15.9287532 L171.068702,21.3994911 L176.10687,28.8295165 L176.10687,28.8295165 Z" id="Shape" opacity="0.5"></path>
                        <path d="M188.70229,22.5445293 C188.70229,23.0025445 188.524173,23.2061069 188.066158,23.2061069 L180.305344,23.2061069 L180.305344,25.3435115 C180.305344,26.3613232 180.86514,26.9211196 182.544529,26.9211196 C184.249364,26.9211196 185.165394,26.3358779 185.165394,25.3435115 L185.165394,25.1908397 C185.165394,24.7073791 185.368957,24.4783715 185.877863,24.4783715 L187.888041,24.4783715 C188.371501,24.4783715 188.600509,24.7073791 188.600509,25.1908397 L188.600509,25.5216285 C188.600509,28.1170483 186.743003,29.7964377 182.493639,29.7964377 C178.244275,29.7964377 176.590331,28.1170483 176.590331,25.5216285 L176.590331,19.2111959 C176.590331,16.6412214 178.295165,14.9618321 182.519084,14.9618321 C186.743003,14.9618321 188.651399,16.6412214 188.651399,19.2111959 L188.651399,22.5445293 L188.70229,22.5445293 Z M180.305344,20.6870229 L185.165394,20.6870229 L185.165394,19.4147583 C185.165394,18.3969466 184.173028,17.8371501 182.544529,17.8371501 C180.890585,17.8371501 180.305344,18.4223919 180.305344,19.4147583 L180.305344,20.6870229 L180.305344,20.6870229 Z" id="Shape" opacity="0.5"></path>
                        <path d="M198.778626,15.2417303 C199.262087,15.2417303 199.491094,15.4198473 199.491094,15.9033079 L199.491094,17.5063613 C199.491094,18.0152672 199.262087,18.2188295 198.778626,18.2188295 L196.157761,18.2188295 L196.157761,24.8600509 C196.157761,25.9287532 196.844784,26.4122137 198.473282,26.4122137 L199.109415,26.4122137 C199.618321,26.4122137 199.821883,26.6157761 199.821883,27.1246819 L199.821883,28.8040712 C199.821883,29.3129771 199.618321,29.5165394 199.109415,29.5165394 L197.888041,29.5165394 C193.638677,29.5165394 192.340967,28.0661578 192.340967,25.2417303 L192.340967,18.1933842 L190.916031,18.1933842 C190.43257,18.1933842 190.229008,17.9898219 190.229008,17.480916 L190.229008,16.0305344 C190.229008,15.5470738 190.43257,15.394402 190.916031,15.3435115 L192.239186,15.1908397 L192.315522,15.1908397 L192.315522,12.4936387 C192.315522,11.9847328 192.519084,11.7811705 193.02799,11.7811705 L195.419847,11.7811705 C195.928753,11.7811705 196.10687,11.9847328 196.10687,12.4936387 L196.10687,15.2671756 L198.778626,15.2671756 L198.778626,15.2417303 Z" id="Shape" opacity="0.5"></path>
                        <g opacity="0.5" transform="translate(117.557252, 15.012723)" id="Shape">
                            <path d="M20.8651399,13.8167939 L16.8956743,0.839694656 C16.7430025,0.356234097 16.6666667,0.178117048 16.1832061,0.178117048 L13.5368957,0.178117048 C13.0279898,0.178117048 12.9007634,0.407124682 12.7735369,0.839694656 L10.7124682,7.68447837 C10.6361323,7.98982188 10.3816794,9.05852417 10.3307888,9.33842239 C10.2798982,9.03307888 10.1017812,7.96437659 10.0254453,7.68447837 L7.86259542,0.839694656 C7.73536896,0.407124682 7.63358779,0.178117048 7.09923664,0.178117048 L4.68193384,0.178117048 C4.19847328,0.178117048 4.09669211,0.356234097 3.96946565,0.839694656 L0.279898219,13.8167939 C0.127226463,14.3002545 0.458015267,14.5292621 0.941475827,14.5292621 L3.25699746,14.5292621 C3.76590331,14.5292621 3.94402036,14.2493639 4.07124682,13.8167939 L6.03053435,6.25954198 C6.18320611,5.69974555 6.33587786,4.96183206 6.33587786,4.91094148 C6.36132316,5.03816794 6.43765903,5.59796438 6.59033079,6.25954198 L8.70229008,13.8167939 C8.77862595,14.2493639 8.9821883,14.5292621 9.51653944,14.5292621 L11.5267176,14.5292621 C12.0356234,14.5292621 12.2391858,14.2493639 12.3409669,13.8167939 C12.3409669,13.8167939 14.7582697,5.06361323 14.8091603,4.91094148 C14.8091603,4.96183206 14.9618321,5.49618321 15.0636132,6.15776081 L17.1501272,13.8167939 C17.2773537,14.2493639 17.4300254,14.5292621 17.9643766,14.5292621 L20.2035623,14.5292621 C20.6870229,14.5547074 21.0178117,14.3256997 20.8651399,13.8167939 L20.8651399,13.8167939 Z"></path>
                        </g>
                    </g>
                </g>
            </g>
        </g>
    </g>
</svg>
