<?xml version="1.0" encoding="utf-8"?>
<!-- Generator: Adobe Illustrator 17.0.0, SVG Export Plug-In . SVG Version: 6.00 Build 0)  -->
<!DOCTYPE svg PUBLIC "-//W3C//DTD SVG 1.1//EN" "http://www.w3.org/Graphics/SVG/1.1/DTD/svg11.dtd">
<svg version="1.1" id="Layer_1" xmlns="http://www.w3.org/2000/svg" xmlns:xlink="http://www.w3.org/1999/xlink" x="0px" y="0px"
	 width="200px" height="26px" viewBox="0 0 200 26" enable-background="new 0 0 200 26" xml:space="preserve">
<path opacity="0.7" fill="#B5B6B6" d="M200,23c0,1.105-0.895,2-2,2H2c-1.105,0-2-0.895-2-2V2c0-1.105,0.895-2,2-2h196
	c1.105,0,2,0.895,2,2V23z"/>
<path opacity="0.6" fill="#525252" d="M51.5,22.526c0,1.366-1.108,2.474-2.474,2.474H29.974c-1.366,0-2.474-1.108-2.474-2.474V3.474
	C27.5,2.108,28.608,1,29.974,1h19.052C50.392,1,51.5,2.108,51.5,3.474V22.526z"/>
<path fill="#F89720" stroke="#FFFFFF" stroke-miterlimit="10" d="M165.333,17.763c0,0.683-0.554,1.237-1.237,1.237h-9.526
	c-0.683,0-1.237-0.554-1.237-1.237V8.237c0-0.683,0.554-1.237,1.237-1.237h9.526c0.683,0,1.237,0.554,1.237,1.237V17.763z"/>
<g opacity="0.2">
	<line fill="none" stroke="#FFFFFF" stroke-miterlimit="10" x1="84.5" y1="4" x2="84.5" y2="22"/>
	<line fill="none" stroke="#010101" stroke-miterlimit="10" x1="85.5" y1="4" x2="85.5" y2="22"/>
</g>
<path fill="#FFFFFF" d="M6.833,18.549c0.48-0.017,0.824-0.081,1.032-0.191c0.353-0.185,0.529-0.538,0.529-1.058V8.699
	c0-0.516-0.165-0.864-0.494-1.042C7.703,7.549,7.348,7.48,6.833,7.451V7h5.488c1.058,0,1.936,0.121,2.636,0.364
	c1.318,0.457,1.977,1.289,1.977,2.497c0,0.734-0.267,1.316-0.802,1.747c-0.535,0.431-1.114,0.704-1.738,0.819v0.165
	c0.659,0.127,1.231,0.341,1.717,0.642c0.948,0.59,1.422,1.41,1.422,2.462c0,0.983-0.454,1.779-1.361,2.389S14.056,19,12.547,19
	H6.833V18.549z M13.44,11.847c0.376-0.358,0.564-0.994,0.564-1.908c0-0.676-0.123-1.246-0.368-1.708
	c-0.246-0.462-0.718-0.694-1.418-0.694c-0.37,0-0.627,0.062-0.772,0.186c-0.145,0.124-0.217,0.348-0.217,0.672v3.988
	C12.328,12.384,13.065,12.205,13.44,11.847z M11.368,18.046c0.145,0.254,0.422,0.382,0.832,0.382c0.838,0,1.426-0.228,1.764-0.685
	s0.507-1.107,0.507-1.951c0-1.26-0.373-2.098-1.118-2.514c-0.451-0.254-1.159-0.373-2.124-0.355v4.439
	C11.235,17.673,11.281,17.902,11.368,18.046z"/>
<path fill="#FFFFFF" d="M35.833,18.536c0.426-0.053,0.742-0.156,0.946-0.312c0.204-0.158,0.374-0.479,0.508-0.966l2.203-8.05
	c0.064-0.228,0.112-0.419,0.145-0.574c0.032-0.155,0.048-0.291,0.048-0.407c0-0.304-0.085-0.495-0.254-0.574
	c-0.169-0.079-0.523-0.142-1.06-0.188V7h5.343v0.464c-0.438,0.058-0.755,0.164-0.95,0.315c-0.196,0.152-0.361,0.476-0.495,0.972
	l-2.213,8.05l-0.14,0.619c-0.012,0.058-0.022,0.117-0.031,0.178c-0.009,0.061-0.013,0.118-0.013,0.171
	c0,0.302,0.082,0.493,0.245,0.575c0.164,0.08,0.517,0.145,1.06,0.191V19h-5.342V18.536z"/>
<g>
	<path fill="#FFFFFF" d="M66.895,7v0.356c-0.543,0.018-0.906,0.103-1.089,0.252S65.533,8.1,65.533,8.636v4.699
		c0,0.713,0.084,1.264,0.253,1.652c0.306,0.722,0.892,1.084,1.759,1.084c1.077,0,1.805-0.399,2.184-1.199
		c0.21-0.438,0.315-1.053,0.315-1.844V8.739c0-0.502-0.092-0.848-0.277-1.037c-0.185-0.189-0.547-0.305-1.085-0.346V7h3.081v0.356
		c-0.447,0.087-0.743,0.193-0.887,0.318C70.732,7.8,70.66,8.089,70.66,8.54v4.484c0,1.191-0.288,2.111-0.863,2.759
		s-1.479,0.972-2.711,0.972c-1.611,0-2.713-0.482-3.307-1.446c-0.315-0.511-0.472-1.172-0.472-1.981V8.636
		c0-0.527-0.07-0.858-0.209-0.994c-0.139-0.137-0.453-0.232-0.941-0.286V7H66.895z"/>
	<line fill="none" stroke="#FFFFFF" stroke-miterlimit="10" x1="61.833" y1="19" x2="71.765" y2="19"/>
</g>
<g>
	<g>
		<g>
			<g>
				<g>
					<path fill="#FFFFFF" d="M112.899,16.599h-11.872c-0.211,0-0.383,0.215-0.383,0.48v1.441c0,0.265,0.171,0.48,0.383,0.48h11.872
						c0.211,0,0.383-0.215,0.383-0.48v-1.441C113.282,16.814,113.11,16.599,112.899,16.599z"/>
					<path fill="#FFFFFF" d="M112.899,11.803h-11.872c-0.211,0-0.383,0.215-0.383,0.48v1.441c0,0.265,0.171,0.48,0.383,0.48h11.872
						c0.211,0,0.383-0.215,0.383-0.48v-1.441C113.282,12.018,113.11,11.803,112.899,11.803z"/>
					<path fill="#FFFFFF" d="M112.899,7h-11.872c-0.211,0-0.383,0.215-0.383,0.48v1.441c0,0.265,0.171,0.48,0.383,0.48h11.872
						c0.211,0,0.383-0.215,0.383-0.48V7.48C113.282,7.215,113.11,7,112.899,7z"/>
				</g>
				<g>
					<path fill="#FFFFFF" d="M98.576,16.599h-1.762c-0.211,0-0.383,0.215-0.383,0.48v1.441c0,0.265,0.171,0.48,0.383,0.48h1.762
						c0.211,0,0.383-0.215,0.383-0.48v-1.441C98.959,16.814,98.788,16.599,98.576,16.599z"/>
					<path fill="#FFFFFF" d="M98.576,11.803h-1.762c-0.211,0-0.383,0.215-0.383,0.48v1.441c0,0.265,0.171,0.48,0.383,0.48h1.762
						c0.211,0,0.383-0.215,0.383-0.48v-1.441C98.959,12.018,98.788,11.803,98.576,11.803z"/>
					<path fill="#FFFFFF" d="M98.576,7h-1.762c-0.211,0-0.383,0.215-0.383,0.48v1.441c0,0.265,0.171,0.48,0.383,0.48h1.762
						c0.211,0,0.383-0.215,0.383-0.48V7.48C98.959,7.215,98.788,7,98.576,7z"/>
				</g>
			</g>
		</g>
	</g>
</g>
<g>
	<g>
		<g>
			<g>
				<g>
					<path fill="#FFFFFF" d="M139.765,16.599h-11.872c-0.211,0-0.383,0.215-0.383,0.48v1.441c0,0.265,0.171,0.48,0.383,0.48h11.872
						c0.211,0,0.383-0.215,0.383-0.48v-1.441C140.148,16.814,139.977,16.599,139.765,16.599z"/>
					<path fill="#FFFFFF" d="M139.765,11.803h-11.872c-0.211,0-0.383,0.215-0.383,0.48v1.441c0,0.265,0.171,0.48,0.383,0.48h11.872
						c0.211,0,0.383-0.215,0.383-0.48v-1.441C140.148,12.018,139.977,11.803,139.765,11.803z"/>
					<path fill="#FFFFFF" d="M139.765,7h-11.872c-0.211,0-0.383,0.215-0.383,0.48v1.441c0,0.265,0.171,0.48,0.383,0.48h11.872
						c0.211,0,0.383-0.215,0.383-0.48V7.48C140.148,7.215,139.977,7,139.765,7z"/>
				</g>
			</g>
		</g>
	</g>
	<text transform="matrix(1 0 0 1 123.473 9.5532)"><tspan x="0" y="0" fill="#FFFFFF" font-family="'Times-Bold'" font-size="4.8337">1</tspan><tspan x="0" y="4.834" fill="#FFFFFF" font-family="'Times-Bold'" font-size="4.8337">2</tspan><tspan x="0" y="9.667" fill="#FFFFFF" font-family="'Times-Bold'" font-size="4.8337">3</tspan></text>
</g>
</svg>
