<svg version="1.1" xmlns="http://www.w3.org/2000/svg" xmlns:xlink="http://www.w3.org/1999/xlink" x="0px" y="0px"
	 viewBox="0 0 24 24" enable-background="new 0 0 24 24" xml:space="preserve">
<g>
	<g>
		<g>
			<circle fill="#FFFFFF" cx="11.5" cy="13.5" r="10.5"/>
		</g>
		<g opacity="0.5">
			<path fill="#5AB65A" d="M11.5,4c5.2,0,9.5,4.3,9.5,9.5S16.7,23,11.5,23S2,18.7,2,13.5S6.3,4,11.5,4 M11.5,3C5.7,3,1,7.7,1,13.5
				S5.7,24,11.5,24S22,19.3,22,13.5S17.3,3,11.5,3L11.5,3z"/>
		</g>
		<path fill="none" stroke="#5AB65A" stroke-width="2" stroke-linecap="round" stroke-linejoin="round" stroke-miterlimit="10" d="
			M7.2,14.1c1,0.1,2.7,1.7,3.1,2.5c0.8-1.3,3.2-5.2,5.8-6.2"/>
	</g>
</g>
<g id="guide" opacity="0.5"></g>
</svg>
