<?xml version="1.0" encoding="utf-8"?>
<!-- Generator: Adobe Illustrator 17.0.0, SVG Export Plug-In . SVG Version: 6.00 Build 0)  -->
<!DOCTYPE svg PUBLIC "-//W3C//DTD SVG 1.1//EN" "http://www.w3.org/Graphics/SVG/1.1/DTD/svg11.dtd">
<svg version="1.1" xmlns="http://www.w3.org/2000/svg" xmlns:xlink="http://www.w3.org/1999/xlink" x="0px" y="0px" width="32px"
	 height="32px" viewBox="0 0 32 32" enable-background="new 0 0 32 32" xml:space="preserve">
<g id="Layer_1">
</g>
<g id="icons">
	<g opacity="0.8">
		<g opacity="0.8">
			<path fill="#4C5355" d="M0.264,8.824V27.06c0,2.728,2.201,4.94,4.915,4.94h21.994c2.715,0,4.915-2.212,4.915-4.94V8.824H0.264z"
				/>
		</g>
		<g>
			<g>
				<g>
					<path fill="#FFFFFF" d="M9.865,23.326H6.662c-0.385,0-0.696,0.265-0.696,0.591v1.773c0,0.326,0.312,0.591,0.696,0.591h3.203
						c0.385,0,0.696-0.265,0.696-0.591v-1.773C10.561,23.591,10.249,23.326,9.865,23.326z"/>
					<path fill="#FFFFFF" d="M9.865,17.423H6.662c-0.385,0-0.696,0.265-0.696,0.591v1.773c0,0.326,0.312,0.591,0.696,0.591h3.203
						c0.385,0,0.696-0.265,0.696-0.591v-1.773C10.561,17.688,10.249,17.423,9.865,17.423z"/>
					<path fill="#FFFFFF" d="M9.865,11.511H6.662c-0.385,0-0.696,0.265-0.696,0.591v1.773c0,0.326,0.312,0.591,0.696,0.591h3.203
						c0.385,0,0.696-0.265,0.696-0.591v-1.773C10.561,11.776,10.249,11.511,9.865,11.511z"/>
				</g>
			</g>
			<g>
				<g>
					<path fill="#FFFFFF" d="M17.825,23.326h-3.203c-0.385,0-0.696,0.265-0.696,0.591v1.773c0,0.326,0.312,0.591,0.696,0.591h3.203
						c0.385,0,0.696-0.265,0.696-0.591v-1.773C18.521,23.591,18.209,23.326,17.825,23.326z"/>
					<path fill="#FFFFFF" d="M17.825,17.423h-3.203c-0.385,0-0.696,0.265-0.696,0.591v1.773c0,0.326,0.312,0.591,0.696,0.591h3.203
						c0.385,0,0.696-0.265,0.696-0.591v-1.773C18.521,17.688,18.209,17.423,17.825,17.423z"/>
					<path fill="#FFFFFF" d="M17.825,11.511h-3.203c-0.385,0-0.696,0.265-0.696,0.591v1.773c0,0.326,0.312,0.591,0.696,0.591h3.203
						c0.385,0,0.696-0.265,0.696-0.591v-1.773C18.521,11.776,18.209,11.511,17.825,11.511z"/>
				</g>
			</g>
			<g>
				<g>
					<path fill="#FFFFFF" d="M25.653,23.326H22.45c-0.385,0-0.696,0.265-0.696,0.591v1.773c0,0.326,0.312,0.591,0.696,0.591h3.203
						c0.385,0,0.696-0.265,0.696-0.591v-1.773C26.349,23.591,26.037,23.326,25.653,23.326z"/>
					<path fill="#FFFFFF" d="M25.653,17.423H22.45c-0.385,0-0.696,0.265-0.696,0.591v1.773c0,0.326,0.312,0.591,0.696,0.591h3.203
						c0.385,0,0.696-0.265,0.696-0.591v-1.773C26.349,17.688,26.037,17.423,25.653,17.423z"/>
					<path fill="#FFFFFF" d="M25.653,11.511H22.45c-0.385,0-0.696,0.265-0.696,0.591v1.773c0,0.326,0.312,0.591,0.696,0.591h3.203
						c0.385,0,0.696-0.265,0.696-0.591v-1.773C26.349,11.776,26.037,11.511,25.653,11.511z"/>
				</g>
			</g>
		</g>
		<path fill="#4C5355" d="M27.245,0H5.129C2.4,0,0.187,2.224,0.187,4.967v1.521h32V4.967C32.187,2.224,29.974,0,27.245,0z
			 M8.593,4.489c0,0.259-0.262,0.469-0.585,0.469H6.253c-0.323,0-0.585-0.21-0.585-0.469V2.332c0-0.259,0.262-0.469,0.585-0.469
			h1.755c0.323,0,0.585,0.21,0.585,0.469V4.489z M26.133,4.489c0,0.259-0.262,0.469-0.585,0.469h-1.755
			c-0.323,0-0.585-0.21-0.585-0.469V2.332c0-0.259,0.262-0.469,0.585-0.469h1.755c0.323,0,0.585,0.21,0.585,0.469V4.489z"/>
	</g>
</g>
</svg>
