<?xml version="1.0" encoding="utf-8"?>
<!-- Generator: Adobe Illustrator 17.0.0, SVG Export Plug-In . SVG Version: 6.00 Build 0)  -->
<!DOCTYPE svg PUBLIC "-//W3C//DTD SVG 1.1//EN" "http://www.w3.org/Graphics/SVG/1.1/DTD/svg11.dtd">
<svg version="1.1" xmlns="http://www.w3.org/2000/svg" xmlns:xlink="http://www.w3.org/1999/xlink" x="0px" y="0px" width="32px"
	 height="32px" viewBox="0 0 32 32" enable-background="new 0 0 32 32" xml:space="preserve">
<g id="Layer_1">
</g>
<g id="icons">
	<rect y="3" fill="#999999" width="32" height="7"/>
	<rect y="12" fill="#999999" width="32" height="7"/>
	<rect y="21" fill="#999999" width="32" height="7"/>
	<path fill="#FFFFFF" d="M28.718,17h-15.59c-0.68,0-1.231-0.821-1.231-1.5s0.551-1.5,1.231-1.5h15.59c0.68,0,1.231,0.821,1.231,1.5
		S29.398,17,28.718,17z"/>
	<path fill="#FFFFFF" d="M28.718,26H17.231C16.551,26,16,25.179,16,24.5s0.551-1.5,1.231-1.5h11.487c0.68,0,1.231,0.821,1.231,1.5
		S29.398,26,28.718,26z"/>
	<path fill="#CCCCCC" d="M8.205,17H4.103c-0.68,0-1.231-0.821-1.231-1.5S3.423,14,4.103,14h4.103c0.68,0,1.231,0.821,1.231,1.5
		S8.885,17,8.205,17z"/>
	<path fill="#CCCCCC" d="M12.308,26H4.103c-0.68,0-1.231-0.821-1.231-1.5S3.423,23,4.103,23h8.205c0.68,0,1.231,0.821,1.231,1.5
		S12.988,26,12.308,26z"/>
	<path fill="#FFFFFF" d="M28.718,8h-5.59c-0.68,0-1.231-0.821-1.231-1.5S22.448,5,23.128,5h5.59c0.68,0,1.231,0.821,1.231,1.5
		S29.398,8,28.718,8z"/>
	<path fill="#CCCCCC" d="M18.205,8H4.103c-0.68,0-1.231-0.821-1.231-1.5S3.423,5,4.103,5h14.103c0.68,0,1.231,0.821,1.231,1.5
		S18.885,8,18.205,8z"/>
</g>
</svg>
