<?xml version="1.0" encoding="utf-8"?>
<!-- Generator: Adobe Illustrator 17.1.0, SVG Export Plug-In . SVG Version: 6.00 Build 0)  -->
<!DOCTYPE svg PUBLIC "-//W3C//DTD SVG 1.0//EN" "http://www.w3.org/TR/2001/REC-SVG-20010904/DTD/svg10.dtd">
<svg version="1.0" id="Layer_1" xmlns="http://www.w3.org/2000/svg" xmlns:xlink="http://www.w3.org/1999/xlink" x="0px" y="0px"
	 viewBox="0 0 24 16" enable-background="new 0 0 24 16" xml:space="preserve">
<g>
	<path fill="#4C5355" d="M22.02,10H1.98C0.886,10,0,9.114,0,8.02V7.98C0,6.886,0.886,6,1.98,6h20.04C23.114,6,24,6.886,24,7.98v0.04
		C24,9.114,23.114,10,22.02,10z"/>
	<path fill="#FFFFFF" d="M21.538,9H9.846c-0.51,0-0.923-0.49-0.923-1s0.413-1,0.923-1h11.692c0.51,0,0.923,0.49,0.923,1
		S22.048,9,21.538,9z"/>
	<path fill="#CCCCCC" d="M6.154,9H3.077c-0.51,0-0.923-0.49-0.923-1s0.413-1,0.923-1h3.077c0.51,0,0.923,0.49,0.923,1
		S6.664,9,6.154,9z"/>
	<path fill="#4C5355" d="M22.02,16H1.98C0.886,16,0,15.114,0,14.02v-0.04C0,12.886,0.886,12,1.98,12h20.04
		c1.094,0,1.98,0.886,1.98,1.98v0.04C24,15.114,23.114,16,22.02,16z"/>
	<path fill="#FFFFFF" d="M21.538,15h-8.692c-0.51,0-0.923-0.49-0.923-1s0.413-1,0.923-1h8.692c0.51,0,0.923,0.49,0.923,1
		S22.048,15,21.538,15z"/>
	<path fill="#CCCCCC" d="M9.154,15H3.077c-0.51,0-0.923-0.49-0.923-1s0.413-1,0.923-1h6.077c0.51,0,0.923,0.49,0.923,1
		S9.664,15,9.154,15z"/>
	<path fill="#4C5355" d="M22.02,4H1.98C0.886,4,0,3.114,0,2.02V1.98C0,0.886,0.886,0,1.98,0h20.04C23.114,0,24,0.886,24,1.98v0.04
		C24,3.114,23.114,4,22.02,4z"/>
	<path fill="#FFFFFF" d="M14.615,3H2.923C2.413,3,2,2.51,2,2s0.413-1,0.923-1h11.692c0.51,0,0.923,0.49,0.923,1S15.125,3,14.615,3z"
		/>
	<path fill="#CCCCCC" d="M21.154,3h-3.077c-0.51,0-0.923-0.49-0.923-1s0.413-1,0.923-1h3.077c0.51,0,0.923,0.49,0.923,1
		S21.664,3,21.154,3z"/>
</g>
</svg>
