<?xml version="1.0" encoding="utf-8"?>
<!-- Generator: Adobe Illustrator 18.0.0, SVG Export Plug-In . SVG Version: 6.00 Build 0)  -->
<!DOCTYPE svg PUBLIC "-//W3C//DTD SVG 1.1//EN" "http://www.w3.org/Graphics/SVG/1.1/DTD/svg11.dtd">
<svg version="1.1" id="Layer_1" xmlns="http://www.w3.org/2000/svg" xmlns:xlink="http://www.w3.org/1999/xlink" x="0px" y="0px"
	 viewBox="0 0 11.3 12.3" enable-background="new 0 0 11.3 12.3" xml:space="preserve">
<path fill="#FFFFFF" d="M9.7,0.4C9.6,0.4,9.5,0.3,9.4,0.3C8.5-0.1,7.5-0.1,6.7,0.3C6,0.6,6.4,1.3,6.8,1.1c0.9-0.5,2-0.5,2.7,0.1
	c0.4,0.3,0.7,0.7,0.9,1.2c0.3,1.1,0,2-0.8,2.8C7.7,7.1,5.8,9.1,3.9,11c-0.1,0.1-0.1,0.1-0.2,0.2c-0.7,0.6-1.8,0.6-2.5-0.1
	c-0.7-0.7-0.7-1.8,0-2.5c1.6-1.6,3.3-3.3,4.9-4.9c0.2-0.2,0.5-0.3,0.8-0.3C7.3,3.5,7.5,3.7,7.7,4c0.1,0.4,0,0.7-0.3,1
	C6.3,6.2,5.1,7.3,4,8.5C3.9,8.5,3.8,8.6,3.8,8.6C4,8.9,4.1,9,4.3,9.2C4.6,9,4.8,8.7,5,8.5c1-1,1.9-1.9,2.9-2.9
	c0.5-0.5,0.7-1.1,0.5-1.7C8.1,2.7,6.6,2.3,5.7,3.1c0,0-0.1,0.1-0.1,0.1C4,4.8,2.3,6.4,0.7,8C0,8.8-0.2,9.9,0.2,10.8
	c0.7,1.6,2.8,2,4.1,0.7c2-2,3.9-3.9,5.9-5.9c0.2-0.2,0.3-0.3,0.4-0.5C11.8,3.5,11.3,1.4,9.7,0.4z"/>
</svg>
