<?xml version="1.0" encoding="utf-8"?>
<!-- Generator: Adobe Illustrator 17.1.0, SVG Export Plug-In . SVG Version: 6.00 Build 0)  -->
<!DOCTYPE svg PUBLIC "-//W3C//DTD SVG 1.0//EN" "http://www.w3.org/TR/2001/REC-SVG-20010904/DTD/svg10.dtd">
<svg version="1.0" id="Layer_1" xmlns="http://www.w3.org/2000/svg" xmlns:xlink="http://www.w3.org/1999/xlink" x="0px" y="0px"
	 viewBox="0 0 20 20" enable-background="new 0 0 20 20" xml:space="preserve">
<g>
	<g>
		<polygon fill="#828788" points="2.5,13.383 8.137,9 10.801,12.214 12.99,10.939 14.621,13.1 17,14.393 17.208,15.792 16.542,17 
			3.86,17 2.797,15.956 		"/>
		<circle opacity="0.4" fill="#828788" cx="6.437" cy="6.391" r="1.553"/>
	</g>
	<g>
		<g>
			<path fill="#4C5355" d="M15.222,3C16.08,3,17,3.698,17,4.557v2.599v6.007v2.281C17,16.302,16.302,17,15.444,17h-2.6H4.556
				C3.698,17,3,16.302,3,15.444V4.556c0-0.073,0.014-0.142,0.027-0.227C3.033,4.29,3.037,4.249,3.04,4.203
				C3.1,3.949,3.232,3.707,3.428,3.497l0.028-0.033c0.021-0.017,0.041-0.034,0.06-0.051c0.205-0.187,0.443-0.315,0.69-0.372
				C4.25,3.037,4.297,3.032,4.372,3.021C4.432,3.012,4.493,3,4.557,3h8.606H15 M15.444,2h-2.281H4.557h0
				C4.432,2,4.312,2.019,4.192,2.037c-0.05,0.007-0.102,0.005-0.15,0.015c-0.458,0.094-0.865,0.317-1.199,0.62
				C2.813,2.7,2.778,2.721,2.75,2.75C2.728,2.772,2.711,2.799,2.69,2.822c-0.313,0.337-0.542,0.753-0.638,1.22
				C2.043,4.086,2.045,4.134,2.038,4.178C2.02,4.303,2,4.427,2,4.556v0v10.887v0C2,16.854,3.146,18,4.556,18h0h8.288h2.6
				C16.854,18,18,16.853,18,15.444v-2.281V7.155V4.557C18,3.147,16.854,2,15.444,2L15.444,2z"/>
		</g>
	</g>
</g>
</svg>
