<?xml version="1.0" encoding="utf-8"?>
<!-- Generator: Adobe Illustrator 17.0.0, SVG Export Plug-In . SVG Version: 6.00 Build 0)  -->
<!DOCTYPE svg PUBLIC "-//W3C//DTD SVG 1.1//EN" "http://www.w3.org/Graphics/SVG/1.1/DTD/svg11.dtd">
<svg version="1.1" xmlns="http://www.w3.org/2000/svg" xmlns:xlink="http://www.w3.org/1999/xlink" x="0px" y="0px" width="22px"
	 height="22px" viewBox="0 0 22 22" enable-background="new 0 0 22 22" xml:space="preserve">
<g id="Layer_1">
</g>
<g id="icons">
	<g>
		<g opacity="0.8">
			<path fill="#4C5355" d="M11,0C4.925,0,0,4.925,0,11c0,6.075,4.925,11,11,11s11-4.925,11-11C22,4.925,17.075,0,11,0z"/>
		</g>
		<g>
			<g>
				<path fill="#FFFFFF" d="M12.627,6.485c0,0.417-0.139,0.575-0.556,0.575h-2.044c-0.417,0-0.575-0.159-0.575-0.575V4.838
					c0-0.417,0.159-0.595,0.575-0.595h2.044c0.417,0,0.556,0.179,0.556,0.595V6.485z M12.627,17.517
					c0,0.416-0.139,0.595-0.556,0.595h-2.044c-0.417,0-0.575-0.179-0.575-0.595v-8.73c0-0.417,0.159-0.595,0.575-0.595h2.044
					c0.417,0,0.556,0.179,0.556,0.595V17.517z"/>
			</g>
		</g>
	</g>
</g>
</svg>
