<?xml version="1.0" encoding="utf-8"?>
<!-- Generator: Adobe Illustrator 19.1.0, SVG Export Plug-In . SVG Version: 6.00 Build 0)  -->
<svg version="1.0" id="Layer_1" xmlns="http://www.w3.org/2000/svg" xmlns:xlink="http://www.w3.org/1999/xlink" x="0px" y="0px"
	 viewBox="0 0 500 500" enable-background="new 0 0 500 500" xml:space="preserve">
<g>
	<circle fill="#95D9F1" cx="250" cy="250" r="200"/>
	<path fill="#71C9E9" d="M446.8,285.5L303.3,141.9c-14.3-12.3-33-19.7-53.3-19.7c-41.1,0-75,30.2-81,69.6c-0.1,0.7-0.2,1.4-0.3,2.1
		c-0.1,0.6-0.2,1.3-0.2,1.9c-0.1,0.9-0.2,1.9-0.2,2.8c0,0.4-0.1,0.8-0.1,1.3c-0.1,1.4-0.1,2.8-0.1,4.2c0,21.9,8.6,41.8,22.6,56.5
		c0.9,0.9,1.8,1.9,2.8,2.8l42,42c-0.6,0.9-1,2-1,3.1v74.4c0,3.7,1.3,7.1,3.5,9.8c0.1,0.1,0.1,0.2,0.2,0.2l1.7,1.7
		c0.1,0.1,0.2,0.1,0.2,0.2l50.9,50.9C370.4,429.2,432.5,365.6,446.8,285.5z"/>
	<g>
		<path fill="#FFFFFF" d="M279.6,170.4c1.4,0,2.6,0.5,3.5,1.4c0.9,0.9,1.4,2.1,1.4,3.5v60.3c0,1.4-0.5,2.6-1.4,3.5
			c-0.9,0.9-2.1,1.4-3.5,1.4h-60.4c-1.4,0-2.6-0.5-3.7-1.4c-1-0.9-1.5-2.1-1.5-3.5v-60.3c0-1.4,0.5-2.6,1.5-3.5
			c1-0.9,2.2-1.4,3.7-1.4H279.6z M272,230.8V227c0-3.5-2.6-6.2-7.8-8.2c-5.2-2-10.1-3.1-14.9-3.1c-4.7,0-9.7,1-14.9,3.1
			c-5.2,2-7.8,4.8-7.8,8.2v3.8H272z M257.3,187.5c-2.3-2.3-4.9-3.4-7.9-3.4c-3,0-5.6,1.1-7.9,3.4c-2.3,2.3-3.4,4.9-3.4,7.9
			c0,3,1.1,5.6,3.4,7.9c2.3,2.3,4.9,3.4,7.9,3.4c3,0,5.6-1.1,7.9-3.4c2.3-2.3,3.4-4.9,3.4-7.9C260.7,192.5,259.6,189.8,257.3,187.5z
			 M294.7,240.7v-70.3h9.9v70.3H294.7z M314.7,170.4h10.1v70.3h-10.1V170.4z"/>
	</g>
	<g>
		<path fill="#FFFFFF" d="M183.5,240.7h-10.1v-70.3h10.1V240.7z M193.7,240.7v-70.3h9.9v70.3H193.7z M279,170.4
			c1.4,0,2.6,0.5,3.7,1.4c1,0.9,1.5,2.1,1.5,3.5v60.3c0,1.4-0.5,2.6-1.5,3.5c-1,0.9-2.2,1.4-3.7,1.4h-60.3c-1.4,0-2.6-0.5-3.5-1.4
			c-0.9-0.9-1.4-2.1-1.4-3.5v-60.3c0-1.4,0.5-2.6,1.4-3.5s2.1-1.4,3.5-1.4H279z M271.5,230.8V227c0-3.5-2.6-6.2-7.8-8.2
			c-5.2-2-10.1-3.1-14.9-3.1s-9.7,1-14.9,3.1c-5.2,2-7.8,4.8-7.8,8.2v3.8H271.5z M237.5,195.4c0,3,1.1,5.6,3.4,7.9
			c2.3,2.3,4.9,3.4,7.9,3.4c3,0,5.6-1.1,7.9-3.4c2.3-2.3,3.4-4.9,3.4-7.9c0-3-1.1-5.6-3.4-7.9c-2.3-2.3-4.9-3.4-7.9-3.4
			c-3,0-5.6,1.1-7.9,3.4C238.7,189.8,237.5,192.5,237.5,195.4z"/>
	</g>
	<g>
		<g>
			<rect x="242.1" y="284.2" fill="#343C44" width="15.7" height="18.8"/>
			<path fill="#4A5158" d="M250,122.3c-45.2,0-81.9,36.7-81.9,81.9c0,45.2,36.7,81.9,81.9,81.9c45.2,0,81.9-36.7,81.9-81.9
				C331.9,158.9,295.2,122.3,250,122.3z M250,269.7c-36.2,0-65.5-29.3-65.5-65.5c0-36.2,29.3-65.5,65.5-65.5
				c36.2,0,65.5,29.3,65.5,65.5C315.5,240.3,286.2,269.7,250,269.7z"/>
			<path fill="#4A5158" d="M265.5,310.5v72.4c0,8.5-6.9,15.5-15.5,15.5c-8.6,0-15.5-6.9-15.5-15.5v-72.4H265.5z"/>
			<path fill="#FFFFFF" d="M265.5,310.5h-31v-1.9c0-1.4,0.5-2.8,1.6-3.9c1.1-1.1,2.5-1.6,3.9-1.6H260c1.4,0,2.8,0.5,3.9,1.6
				c1.1,1.1,1.6,2.5,1.6,3.9V310.5z"/>
		</g>
	</g>
</g>
</svg>
