<?xml version="1.0" encoding="utf-8"?>
<!-- Generator: Adobe Illustrator 17.0.0, SVG Export Plug-In . SVG Version: 6.00 Build 0)  -->
<!DOCTYPE svg PUBLIC "-//W3C//DTD SVG 1.1//EN" "http://www.w3.org/Graphics/SVG/1.1/DTD/svg11.dtd">
<svg version="1.1" id="Layer_1" xmlns="http://www.w3.org/2000/svg" xmlns:xlink="http://www.w3.org/1999/xlink" x="0px" y="0px"
	 width="24px" height="24px" viewBox="0 0 24 24" enable-background="new 0 0 24 24" xml:space="preserve">
<g>
	<g>
		<g>
			<g>
				<g>
					<path fill="#FFFFFF" d="M20.065,15.599H8.194c-0.211,0-0.383,0.215-0.383,0.48v1.441c0,0.265,0.171,0.48,0.383,0.48h11.872
						c0.211,0,0.383-0.215,0.383-0.48v-1.441C20.448,15.814,20.277,15.599,20.065,15.599z"/>
					<path fill="#FFFFFF" d="M20.065,10.803H8.194c-0.211,0-0.383,0.215-0.383,0.48v1.441c0,0.265,0.171,0.48,0.383,0.48h11.872
						c0.211,0,0.383-0.215,0.383-0.48v-1.441C20.448,11.018,20.277,10.803,20.065,10.803z"/>
					<path fill="#FFFFFF" d="M20.065,6H8.194C7.982,6,7.811,6.215,7.811,6.48v1.441c0,0.265,0.171,0.48,0.383,0.48h11.872
						c0.211,0,0.383-0.215,0.383-0.48V6.48C20.448,6.215,20.277,6,20.065,6z"/>
				</g>
				<g>
					<path fill="#FFFFFF" d="M5.743,15.599H3.981c-0.211,0-0.383,0.215-0.383,0.48v1.441c0,0.265,0.171,0.48,0.383,0.48h1.762
						c0.211,0,0.383-0.215,0.383-0.48v-1.441C6.126,15.814,5.954,15.599,5.743,15.599z"/>
					<path fill="#FFFFFF" d="M5.743,10.803H3.981c-0.211,0-0.383,0.215-0.383,0.48v1.441c0,0.265,0.171,0.48,0.383,0.48h1.762
						c0.211,0,0.383-0.215,0.383-0.48v-1.441C6.126,11.018,5.954,10.803,5.743,10.803z"/>
					<path fill="#FFFFFF" d="M5.743,6H3.981C3.77,6,3.598,6.215,3.598,6.48v1.441c0,0.265,0.171,0.48,0.383,0.48h1.762
						c0.211,0,0.383-0.215,0.383-0.48V6.48C6.126,6.215,5.954,6,5.743,6z"/>
				</g>
			</g>
		</g>
	</g>
</g>
</svg>
