<?xml version="1.0" encoding="utf-8"?>
<!-- Generator: Adobe Illustrator 17.0.0, SVG Export Plug-In . SVG Version: 6.00 Build 0)  -->
<!DOCTYPE svg PUBLIC "-//W3C//DTD SVG 1.1//EN" "http://www.w3.org/Graphics/SVG/1.1/DTD/svg11.dtd">
<svg version="1.1" id="Layer_1" xmlns="http://www.w3.org/2000/svg" xmlns:xlink="http://www.w3.org/1999/xlink" x="0px" y="0px"
	 width="24px" height="24px" viewBox="0 0 24 24" enable-background="new 0 0 24 24" xml:space="preserve">
<g>
	<path fill="#FFFFFF" d="M12.395,6v0.356c-0.543,0.018-0.906,0.103-1.089,0.252S11.033,7.1,11.033,7.636v4.699
		c0,0.713,0.084,1.264,0.253,1.652c0.306,0.722,0.892,1.084,1.759,1.084c1.077,0,1.805-0.399,2.184-1.199
		c0.21-0.438,0.315-1.053,0.315-1.844V7.739c0-0.502-0.092-0.848-0.277-1.037c-0.185-0.189-0.547-0.305-1.085-0.346V6h3.081v0.356
		c-0.447,0.087-0.743,0.193-0.887,0.318C16.232,6.8,16.16,7.089,16.16,7.54v4.484c0,1.191-0.288,2.111-0.863,2.759
		c-0.575,0.648-1.479,0.972-2.711,0.972c-1.611,0-2.713-0.482-3.307-1.446c-0.315-0.511-0.472-1.172-0.472-1.981V7.636
		c0-0.527-0.07-0.858-0.209-0.994C8.46,6.505,8.146,6.411,7.657,6.356V6H12.395z"/>
	<rect x="7.333" y="17.5" fill="#FFFFFF" width="9.932" height="1"/>
</g>
</svg>
