<?xml version="1.0" encoding="utf-8"?>
<!-- Generator: Adobe Illustrator 17.0.0, SVG Export Plug-In . SVG Version: 6.00 Build 0)  -->
<!DOCTYPE svg PUBLIC "-//W3C//DTD SVG 1.1//EN" "http://www.w3.org/Graphics/SVG/1.1/DTD/svg11.dtd">
<svg version="1.1" id="Layer_1" xmlns="http://www.w3.org/2000/svg" xmlns:xlink="http://www.w3.org/1999/xlink" x="0px" y="0px"
	 width="12px" height="12px" viewBox="0 0 12 12" enable-background="new 0 0 12 12" xml:space="preserve">
<g>
	<path fill="#F7961D" d="M11.5,10.366c0,0.626-0.508,1.134-1.134,1.134H1.634c-0.626,0-1.134-0.508-1.134-1.134V1.634
		C0.5,1.008,1.008,0.5,1.634,0.5h8.732c0.626,0,1.134,0.508,1.134,1.134V10.366z"/>
	<path fill="#FFFFFF" d="M10.366,12H1.634C0.733,12,0,11.267,0,10.366V1.634C0,0.733,0.733,0,1.634,0h8.732
		C11.267,0,12,0.733,12,1.634v8.732C12,11.267,11.267,12,10.366,12z M1.634,1C1.284,1,1,1.284,1,1.634v8.732
		C1,10.716,1.284,11,1.634,11h8.732C10.716,11,11,10.716,11,10.366V1.634C11,1.284,10.716,1,10.366,1H1.634z"/>
</g>
</svg>
