<?xml version="1.0" encoding="utf-8"?>
<!-- Generator: Adobe Illustrator 19.1.0, SVG Export Plug-In . SVG Version: 6.00 Build 0)  -->
<svg version="1.0" id="Layer_1" xmlns="http://www.w3.org/2000/svg" xmlns:xlink="http://www.w3.org/1999/xlink" x="0px" y="0px"
	 viewBox="0 0 500 500" enable-background="new 0 0 500 500" xml:space="preserve">
<g>
	<circle fill="#95D9F1" cx="250" cy="250" r="200"/>
</g>
<g>
	<defs>
		<circle id="SVGID_9_" cx="250" cy="250" r="200"/>
	</defs>
	<clipPath id="SVGID_2_">
		<use xlink:href="#SVGID_9_"  overflow="visible"/>
	</clipPath>
</g>
<path fill-rule="evenodd" clip-rule="evenodd" fill="#2D3F50" d="M312.9,170.5l54.1,0c6.9,0,12.6,5.7,12.6,12.6L379.5,314
	c0,6.9-5.7,12.6-12.6,12.6l-54.1,0c-6.9,0-12.6-5.7-12.6-12.6l0.1-130.9C300.4,176.2,306,170.5,312.9,170.5z"/>
<path fill-rule="evenodd" clip-rule="evenodd" fill="#141522" d="M379.5,231.6l0,82.4c0,6.9-5.7,12.6-12.6,12.6l-54.1,0
	c-6.9,0-12.6-5.7-12.6-12.6l0.1-112.1l18.1-31.4L379.5,231.6z"/>
<path fill-rule="evenodd" clip-rule="evenodd" fill="#EFEEEE" d="M339.9,293.7c5.1,0,9.3,4.2,9.3,9.3c0,5.2-4.2,9.3-9.3,9.3
	c-5.1,0-9.3-4.2-9.3-9.3S334.8,293.7,339.9,293.7z"/>
<path fill-rule="evenodd" clip-rule="evenodd" fill="#4F4F5E" d="M319.9,190.4l40.2,0c2.6,0,4.8,2.2,4.8,4.8l0,9.9
	c0,2.7-2.2,4.8-4.8,4.8l-40.2,0c-2.6,0-4.8-2.1-4.8-4.8l0-9.9C315,192.5,317.2,190.4,319.9,190.4z"/>
<polygon fill-rule="evenodd" clip-rule="evenodd" fill="#4F4F5E" points="320.7,254.3 359.2,254.3 359.2,260 320.7,260 "/>
<polygon fill-rule="evenodd" clip-rule="evenodd" fill="#4F4F5E" points="320.7,270.1 359.2,270.2 359.2,275.9 320.6,275.9 "/>
<polygon fill-rule="evenodd" clip-rule="evenodd" fill="#4F4F5E" points="320.7,238.4 359.2,238.4 359.2,244.2 320.7,244.1 "/>
<path fill-rule="evenodd" clip-rule="evenodd" fill="#141522" d="M339.9,295.7c4,0,7.3,3.2,7.3,7.3c0,4-3.3,7.3-7.3,7.3
	c-4,0-7.3-3.3-7.3-7.3C332.6,299,335.9,295.7,339.9,295.7z"/>
<path fill-rule="evenodd" clip-rule="evenodd" fill="#141522" d="M207.1,301.2l46.7,0c0,5.8,0,10.9,0,16.7c105.2,0-155.4-0.1-46.7,0
	C207.1,312.1,207.1,307,207.1,301.2z"/>
<path fill-rule="evenodd" clip-rule="evenodd" fill="#2D3F50" d="M143.7,170.4l174.8,0.1c6.9,0,12.6,5.7,12.6,12.6l0,105.6
	c0,6.9-5.7,12.6-12.6,12.5l-174.8-0.1c-6.9,0-12.6-5.6-12.6-12.6l0-105.6C131.1,176.1,136.8,170.4,143.7,170.4z"/>
<path fill-rule="evenodd" clip-rule="evenodd" fill="#70BDC7" d="M144.6,179.2l173,0.1c3.1,0,5.6,2.5,5.6,5.6l0,101.7
	c0,3.1-2.5,5.6-5.6,5.6l-173-0.1c-3.1,0-5.6-2.5-5.6-5.6l0-101.7C138.9,181.7,141.5,179.2,144.6,179.2z"/>
<path fill-rule="evenodd" clip-rule="evenodd" fill="#70BDC7" d="M231.7,179.2l85.9,0c3.1,0,5.6,2.5,5.6,5.6l0,101.7
	c0,3.1-2.5,5.6-5.6,5.6l-85.9,0L231.7,179.2z"/>
<path fill-rule="evenodd" clip-rule="evenodd" fill="#EDF0F1" d="M233.3,294.7c-0.4-0.4-1-0.7-1.7-0.7c-0.7,0-1.2,0.3-1.7,0.7
	c-0.4,0.4-0.7,1-0.7,1.7c0,0.7,0.3,1.3,0.7,1.7c0.4,0.4,1,0.7,1.7,0.7c0.7,0,1.2-0.3,1.7-0.7c0.4-0.4,0.7-1,0.7-1.7
	C234,295.7,233.7,295.1,233.3,294.7z"/>
<path fill-rule="evenodd" clip-rule="evenodd" fill="#2D3F50" d="M276.8,317.9c2.6,0,4.8,2.2,4.8,4.8v3.8l-102.4,0v-3.8
	c0-2.6,2.2-4.8,4.8-4.8C221,317.9,239.9,317.9,276.8,317.9z"/>
<rect x="166.6" y="201.9" fill-rule="evenodd" clip-rule="evenodd" fill="#DBE1E6" width="130.2" height="77.7"/>
<rect x="166.6" y="190.7" fill-rule="evenodd" clip-rule="evenodd" fill="#2A81BA" width="130.2" height="11.2"/>
<path fill-rule="evenodd" clip-rule="evenodd" fill="#965BA5" d="M199.6,220.4L199.6,220.4c1.8,0,3.2,1.4,3.2,3.2l0,0
	c0,1.7-1.4,3.2-3.2,3.2l0,0c-1.8,0-3.2-1.4-3.2-3.2l0,0C196.4,221.8,197.8,220.4,199.6,220.4z"/>
<path fill-rule="evenodd" clip-rule="evenodd" fill="#FFCB0B" d="M199.6,237.6L199.6,237.6c1.8,0,3.2,1.4,3.2,3.2l0,0
	c0,1.8-1.4,3.2-3.2,3.2l0,0c-1.8,0-3.2-1.4-3.2-3.2l0,0C196.4,239,197.8,237.6,199.6,237.6z"/>
<path fill-rule="evenodd" clip-rule="evenodd" fill="#7392CB" d="M199.6,255.8L199.6,255.8c1.8,0,3.2,1.4,3.2,3.2l0,0
	c0,1.8-1.4,3.2-3.2,3.2l0,0c-1.8,0-3.2-1.4-3.2-3.2l0,0C196.4,257.2,197.8,255.8,199.6,255.8z"/>
<rect x="209.3" y="222" fill-rule="evenodd" clip-rule="evenodd" fill="#95A5A6" width="49.5" height="3.2"/>
<rect x="209.3" y="239.1" fill-rule="evenodd" clip-rule="evenodd" fill="#95A5A6" width="53.5" height="3.2"/>
<rect x="209.3" y="257.4" fill-rule="evenodd" clip-rule="evenodd" fill="#95A5A6" width="42.1" height="3.2"/>
</svg>
